#N struct timeValuePair float value float time;
#N canvas 1 59 867 339 10;
#X obj 191 125 f;
#X obj 24 51 t f b b b;
#X obj 58 217 f;
#X obj 24 16 inlet;
#X obj 340 16 inlet;
#X obj 340 38 route set;
#X msg 366 100 set \$1;
#X obj 191 157 jf/data/delete2 \$1 \$2 \$3 \$4;
#X obj 24 274 jf/data/append2 \$1 \$2 \$4 \$3;
#X text 188 177 first delete scalar at index position;
#X text 24 293 then append new scalar at index position;
#X text 513 22 Change scalar data field values by index \; \; Assuming
one field in the defined data structure \; is acting as an index \,
a float at the right addresses \; the scalar index. Numbers at the
left inputs change the values of the specified fields at that index
\; \; Works for float inputs only and for data structures \; with at
least 2 fields (one index and one value) \; \; \$1-Struct type name
\; \$2-Destination subpatch name \; \$3-Field to act as index \; \$4
\, \$5 \, ..-Rest of fields defined in structure \; \; Use change \,
change2 \, .. to address structures with \; 1 \, 2 \, .. fields defined
\; \; Use a [set xxxx( message to change \; target data subpatch (\$2)
\; \; J F \;;
#X connect 0 0 2 1;
#X connect 0 0 7 0;
#X connect 1 0 8 0;
#X connect 1 1 8 2;
#X connect 1 2 2 0;
#X connect 1 3 0 0;
#X connect 2 0 8 1;
#X connect 3 0 1 0;
#X connect 4 0 5 0;
#X connect 5 0 6 0;
#X connect 5 1 0 1;
#X connect 6 0 7 1;
#X connect 6 0 8 2;
