#N canvas 47 203 645 328 10;
#X obj 213 199 pointer;
#X obj 213 117 t s s;
#X obj 16 41 t b b;
#X obj 88 281 append \$1 \$4 \$5;
#X obj 213 96 symbol \$3;
#X msg 240 140 \; pd-\$1 clear;
#X msg 213 178 traverse pd-\$1 \, bang;
#X obj 16 11 inlet;
#X obj 224 10 inlet;
#X obj 16 126 jf/data/drip2 \$1 \$2 \$4 \$5;
#X text 357 31 Clone a data structure subpatch \; of a certain type
\; \; \$1-Struct type name \; \$2-Source subpatch name \; \$3-Destination
subpatch name \; \$4 \, \$5 \, ...-Fields to clone \; \; Use clone1
\, 2 \, .. to output 1 \, 2 \, .. fields \; \; Use a [set xxxx( message
to change \; target data subpatch (\$2) \; \; J F \;;
#X connect 0 0 3 2;
#X connect 1 0 6 0;
#X connect 1 1 5 0;
#X connect 2 0 9 0;
#X connect 2 1 4 0;
#X connect 4 0 1 0;
#X connect 6 0 0 0;
#X connect 7 0 2 0;
#X connect 8 0 9 1;
#X connect 9 0 3 0;
#X connect 9 1 3 1;
