#N struct timeValuePair float value float time;
#N canvas 320 68 789 568 10;
#X obj 11 23 inlet;
#X obj 328 23 inlet;
#X obj 128 335 outlet;
#X obj 328 43 route set;
#X msg 280 79 set \$1;
#X obj 128 289 jf/data/drip2 \$1 \$2 \$3 \$4;
#N canvas 1 55 450 300 \$0-buffer 0;
#X scalar timeValuePair 28 12 \;;
#X scalar timeValuePair 1 11 \;;
#X scalar timeValuePair -17 10 \;;
#X scalar timeValuePair 6 9 \;;
#X scalar timeValuePair 54 8 \;;
#X scalar timeValuePair 31 7 \;;
#X scalar timeValuePair -13 6 \;;
#X scalar timeValuePair -30 5 \;;
#X scalar timeValuePair -2 4 \;;
#X scalar timeValuePair 35 3 \;;
#X scalar timeValuePair 22 2 \;;
#X scalar timeValuePair -29 1 \;;
#X scalar timeValuePair -26 0 \;;
#X scalar timeValuePair 38 31 \;;
#X scalar timeValuePair 33 30 \;;
#X scalar timeValuePair -17 29 \;;
#X scalar timeValuePair -30 28 \;;
#X scalar timeValuePair 12 27 \;;
#X scalar timeValuePair 44 26 \;;
#X scalar timeValuePair 35 25 \;;
#X scalar timeValuePair 12 24 \;;
#X scalar timeValuePair -30 23 \;;
#X scalar timeValuePair -27 22 \;;
#X scalar timeValuePair 12 21 \;;
#X scalar timeValuePair 21 20 \;;
#X scalar timeValuePair 16 19 \;;
#X scalar timeValuePair 8 18 \;;
#X scalar timeValuePair 3 17 \;;
#X scalar timeValuePair -14 16 \;;
#X scalar timeValuePair -17 15 \;;
#X scalar timeValuePair -21 14 \;;
#X scalar timeValuePair -26 13 \;;
#X restore 522 44 pd \$0-buffer;
#X obj 170 335 outlet;
#X obj 175 163 s pd-\$0-buffer;
#X msg 175 143 clear;
#X obj 111 116 t b b b b;
#X obj 128 446 jf/data/append2 \$1 \$0-buffer \$3 \$4;
#X obj 11 50 route bang;
#X obj 11 72 b;
#X obj 111 513 jf/data/clone2 \$1 \$0-buffer \$2 \$3 \$4;
#X text 441 87 Maps an operation cross connected to the \; inlets and
outlets onto data field values \; \; The operation can be performed
on any \; number of data fields or all as required \; by cross connecting
in/out 1 \, 2 \, 3 \, .. etc. \; \; \$1-Struct type name \; \$2-Target
data subpatch name \; \$3 \, \$4 \, ..-Value fields to change \; \;
Use map \, map2 \, map3 \, .. to effect 1 \, 2 \, .. fields \; \; Use
a [set xxxx( message to change \; target data subpatch (\$2) \; \;
N.B. make sure to cross connect all in/outs \; if using map2 \, 3 \,
.. Use [t a] if necessary \; \; J F \; \; (idea from [list-map]);
#X obj 128 404 t a;
#X obj 170 404 t a;
#X text 124 363 Cross connect operations here \; out1 goes to in1 \,
out2 to in2 etc.;
#X connect 0 0 12 0;
#X connect 1 0 3 0;
#X connect 3 0 4 0;
#X connect 3 1 17 0;
#X connect 4 0 5 1;
#X connect 4 0 11 2;
#X connect 4 0 14 1;
#X connect 5 0 2 0;
#X connect 5 1 7 0;
#X connect 9 0 8 0;
#X connect 10 0 14 0;
#X connect 10 1 5 0;
#X connect 10 2 11 2;
#X connect 10 3 9 0;
#X connect 12 0 13 0;
#X connect 12 1 16 0;
#X connect 13 0 10 0;
#X connect 16 0 11 0;
#X connect 17 0 11 1;
