#N canvas 0 0 350 235 12;
#X obj 43 78 f;
#X obj 22 102 >;
#X obj 22 127 sel 1;
#X obj 22 51 t f b f;
#X obj 107 127 f;
#X obj 22 17 inlet;
#X obj 107 196 outlet;
#X msg 173 42 0;
#X obj 173 17 inlet clear_history;
#X text 172 115 keep greatest value \; in history;
#X connect 0 0 1 1;
#X connect 1 0 2 0;
#X connect 2 0 4 0;
#X connect 3 0 1 0;
#X connect 3 1 0 0;
#X connect 3 2 4 1;
#X connect 4 0 0 1;
#X connect 4 0 6 0;
#X connect 5 0 3 0;
#X connect 7 0 4 0;
#X connect 8 0 7 0;
