#N canvas 12 116 1180 264 12;
#X obj 13 151 loadbang;
#X msg 13 176 \; pd dsp 1;
#X obj 13 54 outlet;
#X obj 13 4 r rvstparameter0;
#X obj 13 29 * 127;
#X obj 73 84 outlet;
#X obj 73 59 * 127;
#X obj 73 34 r rvstparameter1;
#X obj 133 114 outlet;
#X obj 133 89 * 127;
#X obj 193 144 outlet;
#X obj 193 119 * 127;
#X obj 133 64 r rvstparameter2;
#X obj 193 94 r rvstparameter3;
#X obj 273 54 outlet;
#X obj 273 29 * 127;
#X obj 333 84 outlet;
#X obj 333 59 * 127;
#X obj 393 114 outlet;
#X obj 393 89 * 127;
#X obj 453 144 outlet;
#X obj 453 119 * 127;
#X obj 543 54 outlet;
#X obj 543 29 * 127;
#X obj 603 84 outlet;
#X obj 603 59 * 127;
#X obj 663 114 outlet;
#X obj 663 89 * 127;
#X obj 723 144 outlet;
#X obj 723 119 * 127;
#X obj 813 54 outlet;
#X obj 813 29 * 127;
#X obj 873 84 outlet;
#X obj 873 59 * 127;
#X obj 933 114 outlet;
#X obj 933 89 * 127;
#X obj 993 144 outlet;
#X obj 993 119 * 127;
#X obj 273 4 r rvstparameter4;
#X obj 333 34 r rvstparameter5;
#X obj 393 64 r rvstparameter6;
#X obj 453 94 r rvstparameter7;
#X obj 543 4 r rvstparameter8;
#X obj 603 34 r rvstparameter9;
#X obj 663 64 r rvstparameter10;
#X obj 723 94 r rvstparameter11;
#X obj 813 4 r rvstparameter12;
#X obj 873 34 r rvstparameter13;
#X obj 933 64 r rvstparameter14;
#X obj 993 94 r rvstparameter15;
#X connect 0 0 1 0;
#X connect 3 0 4 0;
#X connect 4 0 2 0;
#X connect 6 0 5 0;
#X connect 7 0 6 0;
#X connect 9 0 8 0;
#X connect 11 0 10 0;
#X connect 12 0 9 0;
#X connect 13 0 11 0;
#X connect 15 0 14 0;
#X connect 17 0 16 0;
#X connect 19 0 18 0;
#X connect 21 0 20 0;
#X connect 23 0 22 0;
#X connect 25 0 24 0;
#X connect 27 0 26 0;
#X connect 29 0 28 0;
#X connect 31 0 30 0;
#X connect 33 0 32 0;
#X connect 35 0 34 0;
#X connect 37 0 36 0;
#X connect 38 0 15 0;
#X connect 39 0 17 0;
#X connect 40 0 19 0;
#X connect 41 0 21 0;
#X connect 42 0 23 0;
#X connect 43 0 25 0;
#X connect 44 0 27 0;
#X connect 45 0 29 0;
#X connect 46 0 31 0;
#X connect 47 0 33 0;
#X connect 48 0 35 0;
#X connect 49 0 37 0;
