#N canvas 320 113 341 260 10;
#X floatatom 19 138 9 0 0 0 - - -;
#X floatatom 19 36 9 8 24000 0 - - -;
#X floatatom 84 91 6 0 0 0 - - -;
#X obj 19 67 f2note 440;
#X msg 51 114 g1;
#X text 146 37 <float> input frequency;
#X text 92 36 Hz;
#X text 105 66 1.arg: <float> reference-frequency a1;
#X text 132 92 cents;
#X text 76 114 note;
#X text 91 140 midi;
#X text 4 2 f2note;
#X text 58 1 converts frequency to notes + cents;
#X text 184 204 IEM KUG;
#X text 168 192 musil;
#X text 198 192 @;
#X text 204 192 iem.at;
#X text 119 181 (c) Thomas Musil 2000 - 2005;
#X text 167 214 Graz \, Austria;
#X connect 1 0 3 0;
#X connect 3 0 0 0;
#X connect 3 1 4 0;
#X connect 3 2 2 0;
