#N canvas 105 49 635 570 10;
#X text 29 39 dsp ON/OFF;
#X floatatom 435 513 7 0 0 0 - - -;
#X text 491 514 dB;
#X floatatom 120 158 9 0 22000 0 - - -;
#X text 190 160 Hz;
#X floatatom 47 110 3 15 133 0 - - -;
#X floatatom 12 79 5 0 0 0 - - -;
#X text 52 80 % cpu;
#X floatatom 261 304 5 2 9999 0 - - -;
#X text 303 304 ms;
#X obj 12 59 dsp;
#X obj 12 39 tgl 15 0 empty empty empty 8 -8 0 10 -262144 -1 -1 0 1
;
#X obj 47 393 dac~;
#X obj 47 368 gainvu~ 300;
#X obj 426 387 vu 15 120 empty empty 8 -8 0 8 -66577 -1 1 0;
#X obj 530 237 vsl 15 128 0 127 0 1 empty empty empty 8 -8 0 10 -262144
-1 -1 7000 1;
#X obj 47 132 testtone~ 200;
#X obj 114 93 init 69;
#X text 74 111 midi;
#X text 200 144 6.arg:<float> interpolation_time [ms];
#X text 200 91 1.arg:<float> low_level [dB];
#X text 200 101 2.arg:<float> low_freq. [Hz];
#X text 200 112 3.arg:<float> medium_level [dB];
#X text 200 122 4.arg:<float> high_freq. [Hz];
#X text 200 133 5.arg:<float> high_level [dB];
#X obj 47 328 hml_shelf~ 6 100 0 4000 -6 200;
#X obj 328 213 vsl 15 49 27.5 440 1 1 empty empty low_freq. -8 -8 0
8 -262144 -1 -1 1200 1;
#X obj 81 216 vsl 15 81 -40 40 0 1 empty empty low_level -18 -8 0 8
-262144 -1 -1 3000 1;
#X obj 149 215 vsl 15 81 -40 40 0 1 empty empty mid_level -10 -8 0
8 -262144 -1 -1 4000 1;
#X obj 217 214 vsl 15 81 -40 40 0 1 empty empty high_level 0 -8 0 8
-262144 -1 -1 3000 1;
#X text 345 207 -440Hz;
#X text 345 255 -27.5Hz;
#X text 345 231 -110Hz;
#X obj 399 213 vsl 15 49 880 14080 1 1 empty empty high_freq. -8 -8
0 8 -262144 -1 -1 3800 1;
#X text 416 207 -14080Hz;
#X text 416 255 -880Hz;
#X text 416 231 -3520Hz;
#X floatatom 530 385 7 0 0 0 - - -;
#X text 588 387 dB;
#X floatatom 81 305 4 0 0 0 - - -;
#X floatatom 149 304 4 0 0 0 - - -;
#X floatatom 217 303 4 0 0 0 - - -;
#X floatatom 328 305 8 0 0 0 - - -;
#X floatatom 399 305 8 0 0 0 - - -;
#X text 157 8 high-middle-low-shelving-filter;
#X text 4 311 signal_in~;
#X text 97 211 +40;
#X text 99 250 0;
#X text 97 290 -40;
#X text 167 249 0;
#X text 165 289 -40;
#X text 165 210 +40;
#X text 233 209 +40;
#X text 235 248 0;
#X text 233 288 -40;
#X text 80 188 dB;
#X text 147 186 dB;
#X text 216 186 dB;
#X text 54 346 signal_out~;
#X obj 12 13 cnv 8 1 1 empty empty hml_shelf~ 1 2 1 18 -262144 -1109
0;
#X text 78 467 IEM KUG;
#X text 62 455 musil;
#X text 92 455 @;
#X text 98 455 iem.at;
#X text 13 444 (c) Thomas Musil 2000 - 2005;
#X text 61 477 Graz \, Austria;
#X connect 5 0 16 0;
#X connect 8 0 25 6;
#X connect 10 0 6 0;
#X connect 11 0 10 0;
#X connect 13 0 12 0;
#X connect 13 0 12 1;
#X connect 13 1 37 0;
#X connect 13 2 14 0;
#X connect 14 1 1 0;
#X connect 15 0 13 1;
#X connect 16 0 25 0;
#X connect 16 1 3 0;
#X connect 17 0 5 0;
#X connect 25 0 13 0;
#X connect 26 0 42 0;
#X connect 27 0 39 0;
#X connect 28 0 40 0;
#X connect 29 0 41 0;
#X connect 33 0 43 0;
#X connect 39 0 25 1;
#X connect 40 0 25 3;
#X connect 41 0 25 5;
#X connect 42 0 25 2;
#X connect 43 0 25 4;
