#N canvas 152 8 565 552 10;
#X text 109 239 ~signal_in~;
#X text 38 33 dsp ON/OFF;
#X floatatom 191 175 5 0 1005 0 - - -;
#X text 172 273 ~signal_out~;
#X floatatom 21 73 5 0 0 0 - - -;
#X text 60 74 % cpu;
#X floatatom 231 225 5 2 9999 0 - - -;
#X text 273 226 ms;
#X obj 21 53 dsp;
#X obj 21 33 tgl 15 0 empty empty empty 8 -8 0 10 -262144 -1 -1 0 1
;
#X text 292 265 2.arg:<float> interpolation_time [ms];
#X text 234 174 ms;
#X obj 152 255 lp1_t~ 0.5 200;
#X text 234 210 interpolation_time [ms];
#X text 230 159 time_constant [ms];
#X text 292 254 1.arg:<float> time_constant [ms];
#X obj 152 100 tgl 15 0 empty empty empty 0 -6 0 8 -262144 -1 -1 0
1;
#X obj 74 197 t b;
#X obj 152 153 sig~;
#N canvas 0 0 450 300 graph1 0;
#X array scope 400 float 0;
#X coords 0 1 399 0 400 80 1;
#X restore 39 349 graph;
#X obj 74 306 tabwrite~ scope;
#X msg 217 115 0.2;
#X msg 248 115 0.5;
#X msg 278 116 1.5;
#X msg 270 503 \; scope xticks 0 22 2;
#X obj 270 482 loadbang;
#X text 79 431 1;
#X text 123 431 2;
#X text 168 431 3 ms;
#X floatatom 162 130 5 0 0 0 - - -;
#X obj 13 13 cnv 8 1 1 empty empty lp1_t~ 1 2 1 18 -262144 -1109 0
;
#X text 102 8 lowpass 1.order with time_constant-inlet;
#X text 106 495 IEM KUG;
#X text 90 483 musil;
#X text 120 483 @;
#X text 126 483 iem.at;
#X text 41 472 (c) Thomas Musil 2000 - 2005;
#X text 89 505 Graz \, Austria;
#X connect 2 0 12 1;
#X connect 6 0 12 2;
#X connect 8 0 4 0;
#X connect 9 0 8 0;
#X connect 12 0 20 0;
#X connect 16 0 17 0;
#X connect 16 0 18 0;
#X connect 16 0 29 0;
#X connect 17 0 20 0;
#X connect 18 0 12 0;
#X connect 21 0 2 0;
#X connect 22 0 2 0;
#X connect 23 0 2 0;
#X connect 25 0 24 0;
