#N canvas 280 47 585 480 10;
#X text 5 265 ~signal_in~;
#X text 30 44 dsp ON/OFF;
#X floatatom 81 161 3 15 133 0 - - -;
#X obj 81 180 mtof;
#X floatatom 81 199 9 0 22000 0 - - -;
#X text 145 200 Hz;
#X text 60 294 ~signal_out~;
#X floatatom 207 279 7 0 0 0 - - -;
#X text 258 280 dB;
#X floatatom 121 154 9 0 22000 0 - - -;
#X text 185 155 Hz;
#X floatatom 48 115 3 15 133 0 - - -;
#X floatatom 13 84 5 0 0 0 - - -;
#X text 53 85 % cpu;
#X floatatom 181 256 5 2 9999 0 - - -;
#X text 222 257 ms;
#X obj 13 64 dsp;
#X floatatom 114 218 4 0.01 1000 0 - - -;
#X text 150 218 Q;
#X text 95 351 2.arg:<float> Q [-];
#X text 95 341 1.arg:<float> center_freq. [Hz];
#X obj 13 44 tgl 15 0 empty empty empty 8 -8 0 10 -262144 -1 -1 0 1
;
#X obj 48 347 dac~;
#X obj 48 322 gainvu~ 300;
#X obj 253 157 vu 15 120 empty empty 8 -8 0 10 -66577 -1 1 0;
#X obj 315 191 vsl 15 128 0 127 0 1 empty empty empty 8 -8 0 10 -262144
-1 -1 8000 1;
#X obj 48 134 testtone~ 200;
#X obj 112 98 init 69;
#X text 75 116 midi;
#X text 95 371 4.arg:<float> interpolation_time [ms];
#X text 95 361 3.arg:<float> level [dB];
#X obj 48 280 para_bp2~ 440 2 -12 200;
#X floatatom 147 237 6 -40 40 0 - - -;
#X text 191 238 dB;
#X floatatom 302 339 7 0 0 0 - - -;
#X text 353 340 dB;
#X text 137 2 parametric bandpass 2.order;
#X obj 7 7 cnv 8 1 1 empty empty para_bp2~ 1 2 1 18 -262144 -1109 0
;
#X text 115 428 IEM KUG;
#X text 99 416 musil;
#X text 129 416 @;
#X text 135 416 iem.at;
#X text 50 405 (c) Thomas Musil 2000 - 2005;
#X text 98 438 Graz \, Austria;
#X connect 2 0 3 0;
#X connect 3 0 4 0;
#X connect 4 0 31 1;
#X connect 11 0 26 0;
#X connect 14 0 31 4;
#X connect 16 0 12 0;
#X connect 17 0 31 2;
#X connect 21 0 16 0;
#X connect 23 0 22 0;
#X connect 23 0 22 1;
#X connect 23 1 34 0;
#X connect 23 2 24 0;
#X connect 24 1 7 0;
#X connect 25 0 23 1;
#X connect 26 0 31 0;
#X connect 26 1 9 0;
#X connect 27 0 11 0;
#X connect 31 0 23 0;
#X connect 32 0 31 3;
