#N canvas 9 12 488 700 12;
#X text 177 16 <-Amount of particles;
#X obj 152 104 hsl 128 15 0 500 0 0 empty empty Density -2 8 1 10 -262144
-1 -1 3200 1;
#X obj 60 102 random 25;
#X floatatom 149 122 5 0 0 0 - - -;
#X text 233 427 <-Random velocities;
#X text 112 267 <-Random notes;
#X obj 23 192 t b b;
#X obj 23 665 noteout 1;
#X obj 60 125 + 1;
#X obj 144 450 + 1;
#X obj 144 426 random 127;
#X msg 133 17 1000;
#X obj 23 639 makenote 64 250;
#X obj 153 639 makenote 64 250;
#X obj 81 612 *;
#X text 211 506 <-Random panning;
#X obj 153 665 noteout 17;
#X obj 211 611 *;
#X obj 120 505 random 100;
#X obj 120 528 / 100;
#X obj 162 567 * -1;
#X obj 162 592 + 1;
#X obj 144 474 t b f b;
#X obj 23 375 j/musical/mapNote;
#X msg 339 308 0 0 4 4 7 7 11 0;
#X msg 339 284 0 0 4 4 7 7 9 0;
#X obj 23 5 bng 15 250 50 0 empty empty empty 17 7 0 10 -262144 -1
-1;
#X obj 23 44 j/count/fromToTimed 1 20 1 0;
#X obj 23 77 t f b;
#X text 46 3 <-Start;
#X msg 339 260 0 0 4 7 9;
#X obj 222 176 hsl 128 15 0 127 0 0 empty empty Lowest_Note -2 8 1
10 -262144 -1 -1 0 1;
#X obj 222 193 hsl 128 15 0 127 0 0 empty empty Highest_Note -2 8 1
10 -262144 -1 -1 0 1;
#X obj 23 290 j/scale/lin 0 127 0 127;
#X obj 23 267 random 128;
#X obj 23 313 int;
#X connect 1 0 2 1;
#X connect 1 0 3 0;
#X connect 2 0 8 0;
#X connect 6 0 34 0;
#X connect 6 1 10 0;
#X connect 8 0 27 4;
#X connect 9 0 22 0;
#X connect 10 0 9 0;
#X connect 11 0 27 2;
#X connect 12 0 7 0;
#X connect 12 1 7 1;
#X connect 13 0 16 0;
#X connect 13 1 16 1;
#X connect 14 0 12 1;
#X connect 17 0 13 1;
#X connect 18 0 19 0;
#X connect 19 0 14 0;
#X connect 19 0 20 0;
#X connect 20 0 21 0;
#X connect 21 0 17 0;
#X connect 22 0 18 0;
#X connect 22 1 17 1;
#X connect 22 1 14 1;
#X connect 23 0 12 0;
#X connect 23 0 13 0;
#X connect 24 0 23 2;
#X connect 25 0 23 2;
#X connect 26 0 27 0;
#X connect 27 0 28 0;
#X connect 28 0 6 0;
#X connect 28 1 2 0;
#X connect 30 0 23 2;
#X connect 31 0 33 3;
#X connect 32 0 33 4;
#X connect 33 0 35 0;
#X connect 34 0 33 0;
#X connect 35 0 23 0;
