#N canvas 463 36 652 462 12;
#X floatatom 63 26 10 0 0 0 - - -;
#X obj 63 48 mtof;
#X floatatom 63 73 10 0 0 0 - - -;
#X obj 126 220 output~;
#X obj 237 92 tgl 15 0 empty empty empty 17 7 0 10 -262144 -1 -1 1
1;
#X floatatom 182 12 5 0 0 0 - - -;
#X obj 182 34 mtof;
#X floatatom 372 189 10 0 0 0 - - -;
#X obj 301 252 j/file/record~;
#X obj 338 86 +;
#X floatatom 381 35 5 0 0 0 - - -;
#X obj 381 57 t b f;
#X obj 296 51 f;
#X obj 385 154 line;
#X text 468 186 <-around 352798;
#X msg 379 123 \$1 500;
#X obj 125 133 j/synth/oscSaw 16;
#X connect 0 0 1 0;
#X connect 1 0 2 0;
#X connect 2 0 16 0;
#X connect 4 0 16 2;
#X connect 5 0 6 0;
#X connect 6 0 12 0;
#X connect 9 0 15 0;
#X connect 10 0 11 0;
#X connect 11 0 12 0;
#X connect 11 1 9 1;
#X connect 12 0 9 0;
#X connect 13 0 7 0;
#X connect 13 0 16 1;
#X connect 15 0 13 0;
#X connect 16 0 3 0;
#X connect 16 0 3 1;
#X connect 16 0 8 0;
#X connect 16 1 3 0;
#X connect 16 1 3 1;
#X connect 16 1 8 1;
