#N struct timeValuePair float value float time;
#N canvas 655 67 570 483 10;
#X floatatom 267 70 5 0 0 0 - - -;
#X obj 237 87 s globalTimingPosition;
#N canvas 4 634 644 153 \$0-data 1;
#X scalar timeValuePair 76 18 \;;
#X scalar timeValuePair 74 17 \;;
#X scalar timeValuePair 42 16 \;;
#X scalar timeValuePair 17 15 \;;
#X scalar timeValuePair 19 14 \;;
#X scalar timeValuePair 44 13 \;;
#X scalar timeValuePair 67 12 \;;
#X scalar timeValuePair 109 11 \;;
#X scalar timeValuePair 82 10 \;;
#X scalar timeValuePair 68 9 \;;
#X scalar timeValuePair 51 8 \;;
#X scalar timeValuePair 28 7 \;;
#X scalar timeValuePair 11 6 \;;
#X scalar timeValuePair 0 2 \;;
#X scalar timeValuePair 2 1 \;;
#X scalar timeValuePair 28 0 \;;
#X scalar timeValuePair 63 31 \;;
#X scalar timeValuePair 122 30 \;;
#X scalar timeValuePair 127 29 \;;
#X scalar timeValuePair 111 28 \;;
#X scalar timeValuePair 60 27 \;;
#X scalar timeValuePair 21 26 \;;
#X scalar timeValuePair 0 24 \;;
#X scalar timeValuePair 57 23 \;;
#X scalar timeValuePair 127 22 \;;
#X scalar timeValuePair 78 21 \;;
#X scalar timeValuePair 16 20 \;;
#X scalar timeValuePair 77 19 \;;
#X scalar timeValuePair 40 5 \;;
#X scalar timeValuePair 23 4 \;;
#X scalar timeValuePair 37 3 \;;
#X scalar timeValuePair 87 25 \;;
#X restore 27 192 pd \$0-data;
#X floatatom 56 332 5 0 0 0 - - -;
#N canvas 1 65 397 241 outputEvents 0;
#X obj 331 125 ==;
#X obj 39 33 r globalTimingPosition;
#X text 193 72 output events;
#X obj 178 204 outlet;
#X obj 39 64 t b f;
#X obj 39 125 jf/data/filter2 timeValuePair \$0-data time value;
#X connect 0 0 5 1;
#X connect 1 0 4 0;
#X connect 4 0 5 0;
#X connect 4 1 0 1;
#X connect 5 1 3 0;
#X connect 5 2 0 0;
#X restore 56 310 pd outputEvents;
#X obj 25 361 hsl 128 15 0 127 0 0 empty empty empty -2 -8 0 10 -262144
-1 -1 1100 1;
#N canvas 763 409 487 215 timeValuePair 0;
#X obj 6 7 struct timeValuePair float value float time;
#X obj 6 29 drawnumber value time(0:31)(0:600) value(0:127)(100:10)
;
#X obj 6 49 drawnumber time time(0:31)(0:600) 120 64;
#X restore 27 173 pd timeValuePair;
#X msg 28 230 clear;
#X obj 28 250 s pd-\$0-data;
#X floatatom 180 234 5 0 31 0 - - -;
#X obj 78 416 rj/s_drumelectro;
#X msg 78 396 bd \$1;
#X obj 78 438 dac~;
#X obj 237 49 rj/c_multimetro 32 130;
#X obj 237 31 tgl 15 0 empty empty empty 17 7 0 10 -262144 -1 -1 1
1;
#X text 261 30 play/stop;
#N canvas 264 179 591 481 swing-it 0;
#X obj 219 272 + 1;
#X obj 186 272 * 1;
#X obj 303 292 * 1;
#X obj 323 246 swap 1;
#X obj 323 270 -;
#X obj 263 153 t b a b a;
#X obj 186 335 pack 0 0;
#X obj 186 180 t a a;
#X obj 263 133 / 100;
#N canvas 0 0 450 300 show 0;
#X obj 41 39 inlet;
#X obj 186 36 inlet;
#X obj 41 124 outlet;
#X msg 186 76 set;
#X obj 41 59 list prepend set;
#X obj 41 83 list trim;
#X connect 0 0 4 0;
#X connect 1 0 3 0;
#X connect 3 0 2 0;
#X connect 4 0 5 0;
#X connect 5 0 2 0;
#X restore 205 366 pd show;
#X msg 205 386 196.5 103.5;
#X obj 186 154 / 4;
#X obj 186 424 outlet;
#X text 86 27 This example shows how you can delay each second beat
by a fraction of the beat duration \, while still keeping the overall
tempo the same.;
#X text 85 79 Great for house music.;
#X obj 186 132 rj/m_bpm2ms;
#X obj 186 103 inlet;
#X obj 263 103 inlet;
#X connect 0 0 1 1;
#X connect 1 0 6 0;
#X connect 2 0 6 1;
#X connect 3 0 4 0;
#X connect 3 1 4 1;
#X connect 4 0 2 1;
#X connect 5 0 1 0;
#X connect 5 1 0 0;
#X connect 5 2 2 0;
#X connect 5 3 3 0;
#X connect 6 0 9 0;
#X connect 6 0 12 0;
#X connect 7 0 1 0;
#X connect 7 1 2 0;
#X connect 8 0 5 0;
#X connect 9 0 10 0;
#X connect 11 0 7 0;
#X connect 15 0 11 0;
#X connect 16 0 15 0;
#X connect 17 0 8 0;
#X restore 366 27 pd swing-it;
#X floatatom 429 11 5 -99 99 1 swing-percentage - -;
#X floatatom 366 10 5 0 0 0 bpm - -;
#X obj 237 8 loadbang;
#X text 22 1 Heirarchy \; \; song part phrase beat tick \; -Cat-Vrs1------C---15----7
\; \; \; abs \; -addEvent \; -deleteEvent \; \; -undo;
#X obj 343 153 r globalTimingPosition;
#X obj 183 176 hsl 128 15 0 127 0 0 empty empty empty -2 -8 0 10 -262144
-1 -1 7600 1;
#X floatatom 360 175 5 0 0 0 - - -;
#X obj 180 259 jf/data/delete2 timeValuePair \$0-data time value;
#X obj 180 195 jf/data/change2 timeValuePair \$0-data time value;
#X connect 4 0 3 0;
#X connect 4 0 5 0;
#X connect 5 0 11 0;
#X connect 7 0 8 0;
#X connect 9 0 24 0;
#X connect 10 0 12 0;
#X connect 10 0 12 1;
#X connect 11 0 10 0;
#X connect 13 0 1 0;
#X connect 13 0 0 0;
#X connect 14 0 13 0;
#X connect 16 0 13 2;
#X connect 17 0 16 1;
#X connect 18 0 16 0;
#X connect 19 0 14 0;
#X connect 21 0 23 0;
#X connect 21 0 25 1;
#X connect 22 0 25 0;
