#N canvas 461 72 704 367 12;
#X obj 45 81 t a a;
#X obj 110 140 * 12;
#X obj 45 237 +;
#X obj 45 304 outlet;
#X obj 45 41 inlet;
#X obj 456 85 loadbang;
#X obj 218 41 inlet;
#X obj 45 260 + \$1;
#X text 218 20 base note;
#X text 41 18 major step;
#X obj 365 41 inlet;
#X text 364 21 set desired note intervals;
#X obj 308 191 list-abs/list-len;
#X obj 45 184 tabread \$0-chord;
#X obj 271 284 s \$0-chord;
#X obj 271 166 t a a;
#X obj 271 260 list prepend 0;
#X obj 481 271 table \$0-chord 24;
#X obj 110 117 mod 12;
#X msg 456 108 0 0 4 4 7 7 5;
#X obj 45 135 mod;
#X connect 0 0 20 0;
#X connect 0 1 18 0;
#X connect 1 0 2 1;
#X connect 2 0 7 0;
#X connect 4 0 0 0;
#X connect 5 0 19 0;
#X connect 6 0 7 1;
#X connect 7 0 3 0;
#X connect 10 0 15 0;
#X connect 12 0 20 1;
#X connect 13 0 2 0;
#X connect 15 0 16 0;
#X connect 15 1 12 0;
#X connect 16 0 14 0;
#X connect 18 0 1 0;
#X connect 19 0 15 0;
#X connect 20 0 13 0;
