#N canvas 444 6 808 498 12;
#X obj 49 330 *~ 0.125;
#X obj 49 353 rzero~ -1;
#X obj 49 376 rzero~ -1;
#X obj 49 399 rzero~ -1;
#X obj 49 28 inlet~;
#X floatatom 387 307 7 0 0 0 - - -;
#X obj 302 99 / 22050;
#X floatatom 401 287 7 0 0 0 - - -;
#X floatatom 416 267 7 0 0 0 - - -;
#X floatatom 431 247 7 0 0 0 - - -;
#X floatatom 446 227 7 0 0 0 - - -;
#X floatatom 461 207 7 0 0 0 - - -;
#X text 443 308 normalizer for rpole~;
#X text 460 287 normalizer for cpole~;
#X text 474 268 coef for rpole~;
#X text 490 249 coef for cpole~ real part;
#X text 521 209 coef for cpole~ imag part;
#X text 517 227 (same \, other cpole~);
#X msg 302 73 15000;
#X text 352 72 desired cutoff frequency;
#X text 362 100 divide by nyquist frequency of this subpatch \, which
is 22050*16 because of the 16-times oversampling.;
#X text 296 17 Here is how to calculate the filter coefficients:;
#X obj 49 424 outlet~;
#X obj 302 148 j/fx/buttercoef3;
#X obj 210 25 inlet;
#X obj 302 48 loadbang;
#X obj 302 124 / \$1;
#X text 332 383 \$1-Oversampling amount e.g. 2 \, 4 \, 8 \, 16 etc.
;
#X obj 48 174 *~;
#X obj 48 197 rpole~;
#X obj 48 220 *~;
#X obj 48 253 cpole~;
#X obj 48 299 cpole~;
#X obj 445 423 block~ 1024 1 \$1;
#X connect 0 0 1 0;
#X connect 1 0 2 0;
#X connect 2 0 3 0;
#X connect 3 0 22 0;
#X connect 4 0 28 0;
#X connect 6 0 26 0;
#X connect 18 0 6 0;
#X connect 23 0 5 0;
#X connect 23 0 28 1;
#X connect 23 1 7 0;
#X connect 23 1 30 1;
#X connect 23 2 8 0;
#X connect 23 2 29 1;
#X connect 23 3 9 0;
#X connect 23 3 31 2;
#X connect 23 3 32 2;
#X connect 23 4 10 0;
#X connect 23 4 31 3;
#X connect 23 5 11 0;
#X connect 23 5 32 3;
#X connect 24 0 6 0;
#X connect 25 0 18 0;
#X connect 26 0 23 0;
#X connect 28 0 29 0;
#X connect 29 0 30 0;
#X connect 30 0 31 0;
#X connect 31 0 32 0;
#X connect 31 1 32 1;
#X connect 32 0 0 0;
