#N canvas 317 73 656 550 10;
#X obj 319 41 inlet;
#X obj 102 44 inlet;
#X obj 319 146 list-reduce;
#X obj 405 146 +;
#X msg 421 109 0;
#X obj 472 418 table \$0-weights;
#X obj 202 229 s \$0-weights;
#X obj 319 70 t a b a;
#X obj 505 105 list-len;
#X obj 202 176 change -1;
#X msg 202 201 resize \$1;
#X obj 427 196 f 0;
#X obj 455 197 + 1;
#X obj 405 170 t a b a;
#X obj 427 221 pack 0 0;
#X obj 319 259 s \$0-weights;
#X obj 319 173 b;
#X msg 319 196 normalize 1;
#X obj 124 226 f;
#X obj 124 251 until;
#X obj 102 373 f;
#X obj 124 316 f 0;
#X obj 150 316 + 1;
#X obj 175 347 tabread \$0-weights;
#X msg 140 290 0;
#X obj 102 166 t b b b a;
#X obj 102 442 outlet;
#X obj 172 201 + 1;
#X obj 175 377 <=;
#X obj 155 407 select 0;
#X obj 319 111 list prepend 0;
#X obj 514 131 s \$0-len;
#X obj 202 151 r \$0-len;
#X obj 102 112 random 10000;
#X obj 102 136 * 1e-04;
#X obj 505 158 outlet;
#X connect 0 0 7 0;
#X connect 1 0 33 0;
#X connect 2 0 16 0;
#X connect 2 1 3 0;
#X connect 3 0 13 0;
#X connect 4 0 3 1;
#X connect 4 0 11 1;
#X connect 7 0 30 0;
#X connect 7 1 4 0;
#X connect 7 2 8 0;
#X connect 8 0 31 0;
#X connect 8 0 35 0;
#X connect 9 0 10 0;
#X connect 9 0 27 0;
#X connect 10 0 6 0;
#X connect 11 0 12 0;
#X connect 11 0 14 0;
#X connect 12 0 11 1;
#X connect 13 0 2 1;
#X connect 13 1 11 0;
#X connect 13 2 14 1;
#X connect 14 0 15 0;
#X connect 16 0 17 0;
#X connect 17 0 15 0;
#X connect 18 0 19 0;
#X connect 19 0 21 0;
#X connect 20 0 26 0;
#X connect 21 0 23 0;
#X connect 21 0 20 1;
#X connect 21 0 22 0;
#X connect 22 0 21 1;
#X connect 23 0 28 0;
#X connect 24 0 21 1;
#X connect 25 0 20 0;
#X connect 25 1 18 0;
#X connect 25 2 24 0;
#X connect 25 3 28 1;
#X connect 27 0 18 1;
#X connect 28 0 29 0;
#X connect 29 0 19 1;
#X connect 30 0 2 0;
#X connect 32 0 9 0;
#X connect 33 0 34 0;
#X connect 34 0 25 0;
