#N canvas 12 17 869 307 12;
#X obj 15 82 hsl 30 15 0 127 0 0 send-1Nano 1Nano empty -2 8 1 8 -228856
-1 -1 0 1;
#X obj 51 82 hsl 30 15 0 127 0 0 send-2Nano 2Nano empty -2 8 1 8 -191407
-1 -1 0 1;
#X obj 87 82 hsl 30 15 0 127 0 0 send-3Nano 3Nano empty -2 8 1 8 -162280
-1 -1 0 1;
#X obj 123 82 hsl 30 15 0 127 0 0 send-4Nano 4Nano empty -2 8 1 8 -128992
-1 -1 0 1;
#X obj 159 82 hsl 30 15 0 127 0 0 send-5Nano 5Nano empty -2 -6 0 8
-228856 -1 -1 0 1;
#X obj 195 82 hsl 30 15 0 127 0 0 send-6Nano 6Nano empty -2 -6 0 8
-191407 -1 -1 0 1;
#X obj 231 82 hsl 30 15 0 127 0 0 send-7Nano 7Nano empty -2 -6 0 8
-162280 -1 -1 0 1;
#X obj 267 82 hsl 30 15 0 127 0 0 send-8Nano 8Nano empty -2 -6 0 8
-128992 -1 -1 0 1;
#X obj 12 101 vsl 15 128 0 127 0 0 send-9Nano 9Nano empty 18 8 1 8
-228856 -1 -1 0 1;
#X obj 48 101 vsl 15 128 0 127 0 0 send-10Nano 10Nano empty 18 8 1
8 -191407 -1 -1 0 1;
#X obj 84 101 vsl 15 128 0 127 0 0 send-11Nano 11Nano empty 18 8 1
8 -162280 -1 -1 0 1;
#X obj 120 101 vsl 15 128 0 127 0 0 send-12Nano 12Nano empty 18 8 1
8 -128992 -1 -1 0 1;
#X obj 156 101 vsl 15 128 0 127 0 0 send-13Nano 13Nano empty 18 8 1
8 -228856 -1 -1 0 1;
#X obj 192 101 vsl 15 128 0 127 0 0 send-14Nano 14Nano empty 18 8 1
8 -191407 -1 -1 0 1;
#X obj 228 101 vsl 15 128 0 127 0 0 send-15Nano 15Nano empty 0 -8 0
8 -162280 -1 -1 0 1;
#X obj 264 101 vsl 15 128 0 127 0 0 send-16Nano 16Nano empty 0 -8 0
8 -128992 -1 -1 0 1;
#X obj 300 101 vsl 15 128 0 127 0 0 send-17Nano 17Nano empty 0 -8 0
8 -228856 -1 -1 0 1;
#X obj 317 217 cnv 15 18 15 empty empty (\$1) 2 7 1 10 -228856 -66577
0;
#X obj 303 82 hsl 30 15 0 127 0 0 send-20Nano 20Nano empty -2 -6 0
8 -228856 -1 -1 0 1;
#X obj -96 23 ctlin 14 \$1;
#X obj -4 23 ctlin 15 \$1;
#X obj 88 23 ctlin 16 \$1;
#X obj 180 23 ctlin 17 \$1;
#X obj 272 23 ctlin 18 \$1;
#X obj 364 23 ctlin 19 \$1;
#X obj 456 23 ctlin 20 \$1;
#X obj 548 23 ctlin 21 \$1;
#X obj 640 23 ctlin 22 \$1;
#X obj -96 49 ctlin 2 \$1;
#X obj -4 49 ctlin 3 \$1;
#X obj 88 49 ctlin 4 \$1;
#X obj 180 49 ctlin 5 \$1;
#X obj 272 49 ctlin 6 \$1;
#X obj 364 49 ctlin 8 \$1;
#X obj 456 49 ctlin 9 \$1;
#X obj 548 49 ctlin 12 \$1;
#X obj 644 49 ctlin 13 \$1;
#X connect 19 0 0 0;
#X connect 20 0 1 0;
#X connect 21 0 2 0;
#X connect 22 0 3 0;
#X connect 23 0 4 0;
#X connect 24 0 5 0;
#X connect 25 0 6 0;
#X connect 26 0 7 0;
#X connect 27 0 18 0;
#X connect 28 0 8 0;
#X connect 29 0 9 0;
#X connect 30 0 10 0;
#X connect 31 0 11 0;
#X connect 32 0 12 0;
#X connect 33 0 13 0;
#X connect 34 0 14 0;
#X connect 35 0 15 0;
#X connect 36 0 16 0;
#X coords 0 -1 1 1 327 154 2 10 80;
