#N canvas 85 354 663 325 12;
#X obj 124 101 t b f;
#X obj 124 135 -;
#X obj 20 19 inlet;
#X obj 222 32 loadbang;
#X obj 96 63 f \$1;
#X obj 145 63 f \$2;
#X obj 20 84 - \$1;
#X obj 20 137 /;
#X obj 20 214 *;
#X obj 20 237 +;
#X obj 124 208 t b f;
#X obj 124 242 -;
#X obj 20 300 outlet;
#X obj 96 170 f \$3;
#X obj 145 170 f \$4;
#X obj 105 17 inlet;
#X obj 155 17 inlet;
#X obj 256 127 inlet;
#X obj 306 127 inlet;
#X text 306 6 scales input according to bounds \; \$1-input lower bound
\; \$2-input upper bound \; \$3-output lower bound \; \$4-output upper
bound;
#X obj 465 300 outlet;
#X text 523 298 <-inverse outlet;
#X obj 20 44 f;
#X obj 465 201 *;
#X obj 465 254 +;
#X obj 465 135 - 1;
#X obj 465 160 * -1;
#X obj 465 226 t b f;
#X connect 0 0 1 0;
#X connect 0 1 1 1;
#X connect 1 0 7 1;
#X connect 2 0 22 0;
#X connect 3 0 4 0;
#X connect 3 0 5 0;
#X connect 3 0 13 0;
#X connect 3 0 14 0;
#X connect 4 0 0 0;
#X connect 5 0 1 0;
#X connect 6 0 7 0;
#X connect 7 0 8 0;
#X connect 7 0 25 0;
#X connect 8 0 9 0;
#X connect 9 0 12 0;
#X connect 10 0 11 0;
#X connect 10 1 11 1;
#X connect 11 0 8 1;
#X connect 11 0 23 1;
#X connect 13 0 10 0;
#X connect 13 0 9 1;
#X connect 13 0 24 1;
#X connect 14 0 11 0;
#X connect 15 0 4 0;
#X connect 16 0 5 0;
#X connect 17 0 13 0;
#X connect 18 0 14 0;
#X connect 22 0 6 0;
#X connect 23 0 27 0;
#X connect 24 0 20 0;
#X connect 25 0 26 0;
#X connect 26 0 23 0;
#X connect 27 0 24 0;
#X connect 27 1 24 0;
