#N canvas 61 305 656 350 12;
#X obj 26 161 expr pow($f1 \, $f2);
#X obj 420 37 hsl 128 15 1 0.1 1 0 empty empty empty -2 -8 0 10 -262144
-1 -1 0 1;
#X obj 313 68 t b f;
#X obj 26 8 inlet;
#X obj 26 300 outlet;
#X obj 313 8 inlet;
#X text 556 35 log fader;
#X text 255 233 simple quadratic curve mapping \; (useful for MIDI
velocities);
#X connect 0 0 4 0;
#X connect 1 0 2 0;
#X connect 2 0 0 0;
#X connect 2 1 0 1;
#X connect 3 0 0 0;
#X connect 5 0 2 0;
