#N canvas 644 300 450 300 12;
#X obj 46 50 j/gui/vsl VS 18 90 3 56;
#X obj 181 38 j/gui/vsl LongNameeeeeeeee 35 190 -75 1000;
#X floatatom 181 238 5 0 0 0 - - -;
#X floatatom 46 150 5 0 0 0 - - -;
#X floatatom 45 18 5 0 0 0 - - -;
#X connect 0 0 3 0;
#X connect 1 0 2 0;
#X connect 4 0 0 0;
#X connect 4 0 1 0;
