#N canvas 177 208 722 471 10;
#X obj 21 26 j/gui/vsl 15 128 0 127 0 0 send rec lab 0 -9 1 10 -262144
-1 -1 0 1;
#X obj 86 27 j/gui/hsl 324 12 91283 24 0 0 s rrrr LAAA 5 8 2 10 -257985
-1 -1 0 1;
#X floatatom 86 44 5 0 0 0 - - -;
#X floatatom 21 164 5 0 0 0 - - -;
#X floatatom 58 4 5 0 0 0 - - -;
#X connect 0 0 3 0;
#X connect 1 0 2 0;
#X connect 4 0 1 0;
#X connect 4 0 0 0;
