#N canvas 161 184 1002 565 12;
#X obj 15 11 namecanvas \$0-this;
#X obj 293 20 loadbang;
#X obj 380 23 bng 15 250 50 0 empty empty empty 17 7 0 10 -262144 -1
-1;
#X obj 420 522 s \$0-this;
#X obj 435 224 + 5;
#X obj 333 159 t b b;
#X text 479 210 <-for GOP height offset;
#X obj 293 45 t b b b b;
#X msg 559 146 obj 10 102 vsl \$1 \$2 \$3 \$4 \$5 \$6 \$7 \$8 \$9 \$10
\$11 \$12 \$13 \$14 \$15 \$16 \$17 \$18 \;;
#X text 711 235 \$1-width \; \$2-height \; \$3-lower bound \; \$4-upper
bound \; \$5-0? \; \$6-0? \; \$7-send \; \$8-rec \; \$9-label \; \$10-label
x offset \; \$11-label y offset \; \$12-font (1=helvetica) \; \$13-font
size \; \$14-BG colour (-262144=grey) \; \$15-Front colour? \; \$16-Label
colour? \; \$17-? \; \$18-?;
#X obj 624 75 symbol \$7;
#X obj 604 6 t b b b b;
#X obj 644 52 symbol \$8;
#X obj 664 29 symbol \$9;
#X obj 559 106 pack \$1 \$2 \$3 \$4 \$5 \$6 s s s \$10 \$11 \$12 \$13
\$14 \$15 \$16 \$17 \$18;
#X obj 435 199 f \$2;
#X obj 333 249 pack \$1 f;
#X msg 333 286 coords 0 -1 1 1 \$1 \$2 2 10 100;
#X obj 10 63 inlet;
#X obj 10 524 outlet;
#X msg 293 445 connect 21 0 20 0;
#X msg 313 411 connect 19 0 4 0;
#X obj 10 102 vsl 15 128 0 127 0 0 Sender Receiver Label 0 -9 1 10
-262144 -1 -1 0 1;
#X connect 1 0 7 0;
#X connect 2 0 7 0;
#X connect 4 0 16 1;
#X connect 5 0 16 0;
#X connect 5 1 15 0;
#X connect 7 0 20 0;
#X connect 7 1 21 0;
#X connect 7 2 5 0;
#X connect 7 3 11 0;
#X connect 8 0 3 0;
#X connect 10 0 14 6;
#X connect 11 0 14 0;
#X connect 11 1 10 0;
#X connect 11 2 12 0;
#X connect 11 3 13 0;
#X connect 12 0 14 7;
#X connect 13 0 14 8;
#X connect 14 0 8 0;
#X connect 15 0 4 0;
#X connect 16 0 17 0;
#X connect 17 0 3 0;
#X connect 18 0 22 0;
#X connect 20 0 3 0;
#X connect 21 0 3 0;
#X connect 22 0 19 0;
#X coords 0 -1 1 1 15 133 2 10 100;
