#N canvas 575 348 594 486 12;
#X obj 32 75 t b b;
#X obj 32 27 tgl 15 0 empty empty empty 0 -6 0 8 -262144 -1 -1 0 1
;
#X obj 298 29 bng 15 250 50 0 empty empty empty 0 -6 0 8 -262144 -1
-1;
#X msg 65 236 0 \, destroy;
#X obj 31 264 gemwin;
#X msg 31 211 reset \, create \, 1;
#N canvas 598 38 899 956 structure 0;
#N canvas 0 0 452 302 lia 0;
#X obj 177 35 inlet;
#X obj 171 96 outlet;
#X obj 12 32 inlet;
#X obj 6 93 outlet;
#X msg 56 156 \$1 \$2 0;
#X obj 24 186 gemhead;
#X obj 26 210 curve 2;
#X msg 134 155 \$1 \$2 0;
#X obj 45 61 lia2D \$0-lia 0 10 2.5 0.1;
#X connect 0 0 7 0;
#X connect 0 0 8 1;
#X connect 2 0 4 0;
#X connect 2 0 8 0;
#X connect 4 0 6 1;
#X connect 5 0 6 0;
#X connect 7 0 6 2;
#X connect 8 0 3 0;
#X connect 8 1 1 0;
#X restore 29 94 pd lia;
#N canvas 0 0 452 302 lia 0;
#X obj 177 35 inlet;
#X obj 171 96 outlet;
#X obj 12 32 inlet;
#X obj 6 93 outlet;
#X msg 56 156 \$1 \$2 0;
#X obj 24 186 gemhead;
#X obj 26 210 curve 2;
#X msg 134 155 \$1 \$2 0;
#X obj 45 61 lia2D \$0-lia 0 10 2.5 0.1;
#X connect 0 0 7 0;
#X connect 0 0 8 1;
#X connect 2 0 4 0;
#X connect 2 0 8 0;
#X connect 4 0 6 1;
#X connect 5 0 6 0;
#X connect 7 0 6 2;
#X connect 8 0 3 0;
#X connect 8 1 1 0;
#X restore 80 187 pd lia;
#N canvas 0 0 452 302 lia 0;
#X obj 177 35 inlet;
#X obj 171 96 outlet;
#X obj 12 32 inlet;
#X obj 6 93 outlet;
#X msg 56 156 \$1 \$2 0;
#X obj 24 186 gemhead;
#X obj 26 210 curve 2;
#X msg 134 155 \$1 \$2 0;
#X obj 45 61 lia2D \$0-lia 0 10 2.5 0.1;
#X connect 0 0 7 0;
#X connect 0 0 8 1;
#X connect 2 0 4 0;
#X connect 2 0 8 0;
#X connect 4 0 6 1;
#X connect 5 0 6 0;
#X connect 7 0 6 2;
#X connect 8 0 3 0;
#X connect 8 1 1 0;
#X restore 36 296 pd lia;
#N canvas 0 0 452 302 lia 0;
#X obj 177 35 inlet;
#X obj 171 96 outlet;
#X obj 12 32 inlet;
#X obj 6 93 outlet;
#X msg 56 156 \$1 \$2 0;
#X obj 24 186 gemhead;
#X obj 26 210 curve 2;
#X msg 134 155 \$1 \$2 0;
#X obj 45 61 lia2D \$0-lia 0 10 2.5 0.1;
#X connect 0 0 7 0;
#X connect 0 0 8 1;
#X connect 2 0 4 0;
#X connect 2 0 8 0;
#X connect 4 0 6 1;
#X connect 5 0 6 0;
#X connect 7 0 6 2;
#X connect 8 0 3 0;
#X connect 8 1 1 0;
#X restore 33 499 pd lia;
#N canvas 0 0 452 302 lia 0;
#X obj 177 35 inlet;
#X obj 171 96 outlet;
#X obj 12 32 inlet;
#X obj 6 93 outlet;
#X msg 56 156 \$1 \$2 0;
#X obj 24 186 gemhead;
#X obj 26 210 curve 2;
#X msg 134 155 \$1 \$2 0;
#X obj 45 61 lia2D \$0-lia 0 10 2.5 0.1;
#X connect 0 0 7 0;
#X connect 0 0 8 1;
#X connect 2 0 4 0;
#X connect 2 0 8 0;
#X connect 4 0 6 1;
#X connect 5 0 6 0;
#X connect 7 0 6 2;
#X connect 8 0 3 0;
#X connect 8 1 1 0;
#X restore 35 675 pd lia;
#N canvas 0 0 452 302 lia 0;
#X obj 177 35 inlet;
#X obj 171 96 outlet;
#X obj 12 32 inlet;
#X obj 6 93 outlet;
#X msg 56 156 \$1 \$2 0;
#X obj 24 186 gemhead;
#X obj 26 210 curve 2;
#X msg 134 155 \$1 \$2 0;
#X obj 45 61 lia2D \$0-lia 0 10 2.5 0.1;
#X connect 0 0 7 0;
#X connect 0 0 8 1;
#X connect 2 0 4 0;
#X connect 2 0 8 0;
#X connect 4 0 6 1;
#X connect 5 0 6 0;
#X connect 7 0 6 2;
#X connect 8 0 3 0;
#X connect 8 1 1 0;
#X restore 87 740 pd lia;
#N canvas 0 0 452 302 lia 0;
#X obj 177 35 inlet;
#X obj 171 96 outlet;
#X obj 12 32 inlet;
#X obj 6 93 outlet;
#X msg 56 156 \$1 \$2 0;
#X obj 24 186 gemhead;
#X obj 26 210 curve 2;
#X msg 134 155 \$1 \$2 0;
#X obj 45 61 lia2D \$0-lia 0 10 2.5 0.1;
#X connect 0 0 7 0;
#X connect 0 0 8 1;
#X connect 2 0 4 0;
#X connect 2 0 8 0;
#X connect 4 0 6 1;
#X connect 5 0 6 0;
#X connect 7 0 6 2;
#X connect 8 0 3 0;
#X connect 8 1 1 0;
#X restore 88 716 pd lia;
#N canvas 0 0 452 302 lia 0;
#X obj 177 35 inlet;
#X obj 171 96 outlet;
#X obj 12 32 inlet;
#X obj 6 93 outlet;
#X msg 56 156 \$1 \$2 0;
#X obj 24 186 gemhead;
#X obj 26 210 curve 2;
#X msg 134 155 \$1 \$2 0;
#X obj 45 61 lia2D \$0-lia 0 10 2.5 0.1;
#X connect 0 0 7 0;
#X connect 0 0 8 1;
#X connect 2 0 4 0;
#X connect 2 0 8 0;
#X connect 4 0 6 1;
#X connect 5 0 6 0;
#X connect 7 0 6 2;
#X connect 8 0 3 0;
#X connect 8 1 1 0;
#X restore 81 574 pd lia;
#N canvas 0 0 452 302 lia 0;
#X obj 177 35 inlet;
#X obj 171 96 outlet;
#X obj 12 32 inlet;
#X obj 6 93 outlet;
#X msg 56 156 \$1 \$2 0;
#X obj 24 186 gemhead;
#X obj 26 210 curve 2;
#X msg 134 155 \$1 \$2 0;
#X obj 45 61 lia2D \$0-lia 0 10 2.5 0.1;
#X connect 0 0 7 0;
#X connect 0 0 8 1;
#X connect 2 0 4 0;
#X connect 2 0 8 0;
#X connect 4 0 6 1;
#X connect 5 0 6 0;
#X connect 7 0 6 2;
#X connect 8 0 3 0;
#X connect 8 1 1 0;
#X restore 82 548 pd lia;
#N canvas 0 0 452 302 lia 0;
#X obj 177 35 inlet;
#X obj 171 96 outlet;
#X obj 12 32 inlet;
#X obj 6 93 outlet;
#X msg 56 156 \$1 \$2 0;
#X obj 24 186 gemhead;
#X obj 26 210 curve 2;
#X msg 134 155 \$1 \$2 0;
#X obj 45 61 lia2D \$0-lia 0 10 2.5 0.1;
#X connect 0 0 7 0;
#X connect 0 0 8 1;
#X connect 2 0 4 0;
#X connect 2 0 8 0;
#X connect 4 0 6 1;
#X connect 5 0 6 0;
#X connect 7 0 6 2;
#X connect 8 0 3 0;
#X connect 8 1 1 0;
#X restore 71 370 pd lia;
#N canvas 0 0 452 302 lia 0;
#X obj 177 35 inlet;
#X obj 171 96 outlet;
#X obj 12 32 inlet;
#X obj 6 93 outlet;
#X msg 56 156 \$1 \$2 0;
#X obj 24 186 gemhead;
#X obj 26 210 curve 2;
#X msg 134 155 \$1 \$2 0;
#X obj 45 61 lia2D \$0-lia 0 10 2.5 0.1;
#X connect 0 0 7 0;
#X connect 0 0 8 1;
#X connect 2 0 4 0;
#X connect 2 0 8 0;
#X connect 4 0 6 1;
#X connect 5 0 6 0;
#X connect 7 0 6 2;
#X connect 8 0 3 0;
#X connect 8 1 1 0;
#X restore 72 345 pd lia;
#N canvas 0 0 452 302 lia 0;
#X obj 177 35 inlet;
#X obj 171 96 outlet;
#X obj 12 32 inlet;
#X obj 6 93 outlet;
#X msg 56 156 \$1 \$2 0;
#X obj 24 186 gemhead;
#X obj 26 210 curve 2;
#X msg 134 155 \$1 \$2 0;
#X obj 45 61 lia2D \$0-lia 0 10 2.5 0.1;
#X connect 0 0 7 0;
#X connect 0 0 8 1;
#X connect 2 0 4 0;
#X connect 2 0 8 0;
#X connect 4 0 6 1;
#X connect 5 0 6 0;
#X connect 7 0 6 2;
#X connect 8 0 3 0;
#X connect 8 1 1 0;
#X restore 359 17 pd lia;
#N canvas 0 0 452 302 lia 0;
#X obj 177 35 inlet;
#X obj 171 96 outlet;
#X obj 12 32 inlet;
#X obj 6 93 outlet;
#X msg 56 156 \$1 \$2 0;
#X obj 24 186 gemhead;
#X obj 26 210 curve 2;
#X msg 134 155 \$1 \$2 0;
#X obj 45 61 lia2D \$0-lia 0 10 2.5 0.1;
#X connect 0 0 7 0;
#X connect 0 0 8 1;
#X connect 2 0 4 0;
#X connect 2 0 8 0;
#X connect 4 0 6 1;
#X connect 5 0 6 0;
#X connect 7 0 6 2;
#X connect 8 0 3 0;
#X connect 8 1 1 0;
#X restore 354 206 pd lia;
#N canvas 0 0 452 302 lia 0;
#X obj 177 35 inlet;
#X obj 171 96 outlet;
#X obj 12 32 inlet;
#X obj 6 93 outlet;
#X msg 56 156 \$1 \$2 0;
#X obj 24 186 gemhead;
#X obj 26 210 curve 2;
#X msg 134 155 \$1 \$2 0;
#X obj 45 61 lia2D \$0-lia 0 10 2.5 0.1;
#X connect 0 0 7 0;
#X connect 0 0 8 1;
#X connect 2 0 4 0;
#X connect 2 0 8 0;
#X connect 4 0 6 1;
#X connect 5 0 6 0;
#X connect 7 0 6 2;
#X connect 8 0 3 0;
#X connect 8 1 1 0;
#X restore 342 400 pd lia;
#N canvas 0 0 452 302 lia 0;
#X obj 177 35 inlet;
#X obj 171 96 outlet;
#X obj 12 32 inlet;
#X obj 6 93 outlet;
#X msg 56 156 \$1 \$2 0;
#X obj 24 186 gemhead;
#X obj 26 210 curve 2;
#X msg 134 155 \$1 \$2 0;
#X obj 45 61 lia2D \$0-lia 0 10 2.5 0.1;
#X connect 0 0 7 0;
#X connect 0 0 8 1;
#X connect 2 0 4 0;
#X connect 2 0 8 0;
#X connect 4 0 6 1;
#X connect 5 0 6 0;
#X connect 7 0 6 2;
#X connect 8 0 3 0;
#X connect 8 1 1 0;
#X restore 354 608 pd lia;
#N canvas 0 0 452 302 lia 0;
#X obj 177 35 inlet;
#X obj 171 96 outlet;
#X obj 12 32 inlet;
#X obj 6 93 outlet;
#X msg 56 156 \$1 \$2 0;
#X obj 24 186 gemhead;
#X obj 26 210 curve 2;
#X msg 134 155 \$1 \$2 0;
#X obj 45 61 lia2D \$0-lia 0 10 2.5 0.1;
#X connect 0 0 7 0;
#X connect 0 0 8 1;
#X connect 2 0 4 0;
#X connect 2 0 8 0;
#X connect 4 0 6 1;
#X connect 5 0 6 0;
#X connect 7 0 6 2;
#X connect 8 0 3 0;
#X connect 8 1 1 0;
#X restore 349 770 pd lia;
#N canvas 0 0 452 302 lia 0;
#X obj 177 35 inlet;
#X obj 171 96 outlet;
#X obj 12 32 inlet;
#X obj 6 93 outlet;
#X msg 56 156 \$1 \$2 0;
#X obj 24 186 gemhead;
#X obj 26 210 curve 2;
#X msg 134 155 \$1 \$2 0;
#X obj 45 61 lia2D \$0-lia 0 10 2.5 0.1;
#X connect 0 0 7 0;
#X connect 0 0 8 1;
#X connect 2 0 4 0;
#X connect 2 0 8 0;
#X connect 4 0 6 1;
#X connect 5 0 6 0;
#X connect 7 0 6 2;
#X connect 8 0 3 0;
#X connect 8 1 1 0;
#X restore 601 748 pd lia;
#N canvas 0 0 452 302 lia 0;
#X obj 177 35 inlet;
#X obj 171 96 outlet;
#X obj 12 32 inlet;
#X obj 6 93 outlet;
#X msg 56 156 \$1 \$2 0;
#X obj 24 186 gemhead;
#X obj 26 210 curve 2;
#X msg 134 155 \$1 \$2 0;
#X obj 45 61 lia2D \$0-lia 0 10 2.5 0.1;
#X connect 0 0 7 0;
#X connect 0 0 8 1;
#X connect 2 0 4 0;
#X connect 2 0 8 0;
#X connect 4 0 6 1;
#X connect 5 0 6 0;
#X connect 7 0 6 2;
#X connect 8 0 3 0;
#X connect 8 1 1 0;
#X restore 601 726 pd lia;
#N canvas 0 0 452 302 lia 0;
#X obj 177 35 inlet;
#X obj 171 96 outlet;
#X obj 12 32 inlet;
#X obj 6 93 outlet;
#X msg 56 156 \$1 \$2 0;
#X obj 24 186 gemhead;
#X obj 26 210 curve 2;
#X msg 134 155 \$1 \$2 0;
#X obj 45 61 lia2D \$0-lia 0 10 2.5 0.1;
#X connect 0 0 7 0;
#X connect 0 0 8 1;
#X connect 2 0 4 0;
#X connect 2 0 8 0;
#X connect 4 0 6 1;
#X connect 5 0 6 0;
#X connect 7 0 6 2;
#X connect 8 0 3 0;
#X connect 8 1 1 0;
#X restore 657 680 pd lia;
#N canvas 0 0 452 302 lia 0;
#X obj 177 35 inlet;
#X obj 171 96 outlet;
#X obj 12 32 inlet;
#X obj 6 93 outlet;
#X msg 56 156 \$1 \$2 0;
#X obj 24 186 gemhead;
#X obj 26 210 curve 2;
#X msg 134 155 \$1 \$2 0;
#X obj 45 61 lia2D \$0-lia 0 10 2.5 0.1;
#X connect 0 0 7 0;
#X connect 0 0 8 1;
#X connect 2 0 4 0;
#X connect 2 0 8 0;
#X connect 4 0 6 1;
#X connect 5 0 6 0;
#X connect 7 0 6 2;
#X connect 8 0 3 0;
#X connect 8 1 1 0;
#X restore 604 579 pd lia;
#N canvas 0 0 452 302 lia 0;
#X obj 177 35 inlet;
#X obj 171 96 outlet;
#X obj 12 32 inlet;
#X obj 6 93 outlet;
#X msg 56 156 \$1 \$2 0;
#X obj 24 186 gemhead;
#X obj 26 210 curve 2;
#X msg 134 155 \$1 \$2 0;
#X obj 45 61 lia2D \$0-lia 0 10 2.5 0.1;
#X connect 0 0 7 0;
#X connect 0 0 8 1;
#X connect 2 0 4 0;
#X connect 2 0 8 0;
#X connect 4 0 6 1;
#X connect 5 0 6 0;
#X connect 7 0 6 2;
#X connect 8 0 3 0;
#X connect 8 1 1 0;
#X restore 604 555 pd lia;
#N canvas 0 0 452 302 lia 0;
#X obj 177 35 inlet;
#X obj 171 96 outlet;
#X obj 12 32 inlet;
#X obj 6 93 outlet;
#X msg 56 156 \$1 \$2 0;
#X obj 24 186 gemhead;
#X obj 26 210 curve 2;
#X msg 134 155 \$1 \$2 0;
#X obj 45 61 lia2D \$0-lia 0 10 2.5 0.1;
#X connect 0 0 7 0;
#X connect 0 0 8 1;
#X connect 2 0 4 0;
#X connect 2 0 8 0;
#X connect 4 0 6 1;
#X connect 5 0 6 0;
#X connect 7 0 6 2;
#X connect 8 0 3 0;
#X connect 8 1 1 0;
#X restore 651 490 pd lia;
#N canvas 0 0 452 302 lia 0;
#X obj 177 35 inlet;
#X obj 171 96 outlet;
#X obj 12 32 inlet;
#X obj 6 93 outlet;
#X msg 56 156 \$1 \$2 0;
#X obj 24 186 gemhead;
#X obj 26 210 curve 2;
#X msg 134 155 \$1 \$2 0;
#X obj 45 61 lia2D \$0-lia 0 10 2.5 0.1;
#X connect 0 0 7 0;
#X connect 0 0 8 1;
#X connect 2 0 4 0;
#X connect 2 0 8 0;
#X connect 4 0 6 1;
#X connect 5 0 6 0;
#X connect 7 0 6 2;
#X connect 8 0 3 0;
#X connect 8 1 1 0;
#X restore 578 365 pd lia;
#N canvas 0 0 452 302 lia 0;
#X obj 177 35 inlet;
#X obj 171 96 outlet;
#X obj 12 32 inlet;
#X obj 6 93 outlet;
#X msg 56 156 \$1 \$2 0;
#X obj 24 186 gemhead;
#X obj 26 210 curve 2;
#X msg 134 155 \$1 \$2 0;
#X obj 45 61 lia2D \$0-lia 0 10 2.5 0.1;
#X connect 0 0 7 0;
#X connect 0 0 8 1;
#X connect 2 0 4 0;
#X connect 2 0 8 0;
#X connect 4 0 6 1;
#X connect 5 0 6 0;
#X connect 7 0 6 2;
#X connect 8 0 3 0;
#X connect 8 1 1 0;
#X restore 576 342 pd lia;
#N canvas 0 0 452 302 lia 0;
#X obj 177 35 inlet;
#X obj 171 96 outlet;
#X obj 12 32 inlet;
#X obj 6 93 outlet;
#X msg 56 156 \$1 \$2 0;
#X obj 24 186 gemhead;
#X obj 26 210 curve 2;
#X msg 134 155 \$1 \$2 0;
#X obj 45 61 lia2D \$0-lia 0 10 2.5 0.1;
#X connect 0 0 7 0;
#X connect 0 0 8 1;
#X connect 2 0 4 0;
#X connect 2 0 8 0;
#X connect 4 0 6 1;
#X connect 5 0 6 0;
#X connect 7 0 6 2;
#X connect 8 0 3 0;
#X connect 8 1 1 0;
#X restore 642 293 pd lia;
#N canvas 0 0 452 302 lia 0;
#X obj 177 35 inlet;
#X obj 171 96 outlet;
#X obj 12 32 inlet;
#X obj 6 93 outlet;
#X msg 56 156 \$1 \$2 0;
#X obj 24 186 gemhead;
#X obj 26 210 curve 2;
#X msg 134 155 \$1 \$2 0;
#X obj 45 61 lia2D \$0-lia 0 10 2.5 0.1;
#X connect 0 0 7 0;
#X connect 0 0 8 1;
#X connect 2 0 4 0;
#X connect 2 0 8 0;
#X connect 4 0 6 1;
#X connect 5 0 6 0;
#X connect 7 0 6 2;
#X connect 8 0 3 0;
#X connect 8 1 1 0;
#X restore 575 180 pd lia;
#N canvas 0 0 452 302 lia 0;
#X obj 177 35 inlet;
#X obj 171 96 outlet;
#X obj 12 32 inlet;
#X obj 6 93 outlet;
#X msg 56 156 \$1 \$2 0;
#X obj 24 186 gemhead;
#X obj 26 210 curve 2;
#X msg 134 155 \$1 \$2 0;
#X obj 45 61 lia2D \$0-lia 0 10 2.5 0.1;
#X connect 0 0 7 0;
#X connect 0 0 8 1;
#X connect 2 0 4 0;
#X connect 2 0 8 0;
#X connect 4 0 6 1;
#X connect 5 0 6 0;
#X connect 7 0 6 2;
#X connect 8 0 3 0;
#X connect 8 1 1 0;
#X restore 643 101 pd lia;
#N canvas 0 0 454 304 masse 0;
#X obj 26 38 inlet;
#X obj 11 137 outlet;
#X obj 25 104 unpack s f f;
#X obj 285 48 gemhead;
#X obj 284 89 translateXYZ;
#X obj 281 131 sphere 0.1;
#X obj 24 65 masse2D \$0-masse 50 -0.3 2;
#X connect 0 0 6 0;
#X connect 2 1 4 1;
#X connect 2 2 4 2;
#X connect 3 0 4 0;
#X connect 4 0 5 0;
#X connect 6 0 2 0;
#X connect 6 0 1 0;
#X restore 30 7 pd masse;
#N canvas 0 0 454 304 masse 0;
#X obj 26 38 inlet;
#X obj 11 137 outlet;
#X obj 25 104 unpack s f f;
#X obj 285 48 gemhead;
#X obj 284 89 translateXYZ;
#X obj 281 131 sphere 0.1;
#X obj 24 65 masse2D \$0-masse 50 -0.3 1.5;
#X connect 0 0 6 0;
#X connect 2 1 4 1;
#X connect 2 2 4 2;
#X connect 3 0 4 0;
#X connect 4 0 5 0;
#X connect 6 0 2 0;
#X connect 6 0 1 0;
#X restore 32 214 pd masse;
#N canvas 0 0 458 308 masse 0;
#X obj 26 38 inlet;
#X obj 11 137 outlet;
#X obj 25 104 unpack s f f;
#X obj 285 48 gemhead;
#X obj 284 89 translateXYZ;
#X obj 281 131 sphere 0.1;
#X obj 24 65 masse2D \$0-masse 50 -0.3 1;
#X connect 0 0 6 0;
#X connect 2 1 4 1;
#X connect 2 2 4 2;
#X connect 3 0 4 0;
#X connect 4 0 5 0;
#X connect 6 0 2 0;
#X connect 6 0 1 0;
#X restore 35 398 pd masse;
#N canvas 0 0 456 306 masse 0;
#X obj 26 38 inlet;
#X obj 11 137 outlet;
#X obj 25 104 unpack s f f;
#X obj 285 48 gemhead;
#X obj 284 89 translateXYZ;
#X obj 281 131 sphere 0.1;
#X obj 24 65 masse2D \$0-masse 50 -0.3 0.5;
#X connect 0 0 6 0;
#X connect 2 1 4 1;
#X connect 2 2 4 2;
#X connect 3 0 4 0;
#X connect 4 0 5 0;
#X connect 6 0 2 0;
#X connect 6 0 1 0;
#X restore 38 611 pd masse;
#N canvas 0 0 454 304 masse 0;
#X obj 26 38 inlet;
#X obj 11 137 outlet;
#X obj 25 104 unpack s f f;
#X obj 285 48 gemhead;
#X obj 284 89 translateXYZ;
#X obj 281 131 sphere 0.1;
#X obj 24 65 masse2D \$0-masse 50 -0.3 0;
#X connect 0 0 6 0;
#X connect 2 1 4 1;
#X connect 2 2 4 2;
#X connect 3 0 4 0;
#X connect 4 0 5 0;
#X connect 6 0 2 0;
#X connect 6 0 1 0;
#X restore 32 768 pd masse;
#N canvas 0 0 454 304 masse 0;
#X obj 26 38 inlet;
#X obj 11 137 outlet;
#X obj 25 104 unpack s f f;
#X obj 285 48 gemhead;
#X obj 284 89 translateXYZ;
#X obj 281 131 sphere 0.1;
#X obj 23 66 masse2D \$0-masse 50 0.3 2;
#X connect 0 0 6 0;
#X connect 2 1 4 1;
#X connect 2 2 4 2;
#X connect 3 0 4 0;
#X connect 4 0 5 0;
#X connect 6 0 2 0;
#X connect 6 0 1 0;
#X restore 642 14 pd masse;
#N canvas 0 0 454 304 masse 0;
#X obj 26 38 inlet;
#X obj 11 137 outlet;
#X obj 25 104 unpack s f f;
#X obj 285 48 gemhead;
#X obj 284 89 translateXYZ;
#X obj 281 131 sphere 0.1;
#X obj 24 65 masse2D \$0-masse 50 0.3 1.5;
#X connect 0 0 6 0;
#X connect 2 1 4 1;
#X connect 2 2 4 2;
#X connect 3 0 4 0;
#X connect 4 0 5 0;
#X connect 6 0 2 0;
#X connect 6 0 1 0;
#X restore 640 202 pd masse;
#N canvas 0 0 454 304 masse 0;
#X obj 26 38 inlet;
#X obj 11 137 outlet;
#X obj 25 104 unpack s f f;
#X obj 285 48 gemhead;
#X obj 284 89 translateXYZ;
#X obj 281 131 sphere 0.1;
#X obj 25 65 masse2D \$0-masse 50 0.3 1;
#X connect 0 0 6 0;
#X connect 2 1 4 1;
#X connect 2 2 4 2;
#X connect 3 0 4 0;
#X connect 4 0 5 0;
#X connect 6 0 2 0;
#X connect 6 0 1 0;
#X restore 647 393 pd masse;
#N canvas 0 0 454 304 masse 0;
#X obj 26 38 inlet;
#X obj 11 137 outlet;
#X obj 25 104 unpack s f f;
#X obj 285 48 gemhead;
#X obj 284 89 translateXYZ;
#X obj 281 131 sphere 0.1;
#X obj 24 65 masse2D \$0-masse 50 0.3 0.5;
#X connect 0 0 6 0;
#X connect 2 1 4 1;
#X connect 2 2 4 2;
#X connect 3 0 4 0;
#X connect 4 0 5 0;
#X connect 6 0 2 0;
#X connect 6 0 1 0;
#X restore 655 614 pd masse;
#N canvas 0 0 456 306 masse 0;
#X obj 26 38 inlet;
#X obj 11 137 outlet;
#X obj 25 104 unpack s f f;
#X obj 285 48 gemhead;
#X obj 284 89 translateXYZ;
#X obj 281 131 sphere 0.1;
#X obj 24 65 masse2D \$0-masse 50 0.3 0;
#X connect 0 0 6 0;
#X connect 2 1 4 1;
#X connect 2 2 4 2;
#X connect 3 0 4 0;
#X connect 4 0 5 0;
#X connect 6 0 2 0;
#X connect 6 0 1 0;
#X restore 654 776 pd masse;
#X connect 0 0 27 0;
#X connect 0 1 28 0;
#X connect 1 0 28 0;
#X connect 1 1 32 0;
#X connect 2 0 28 0;
#X connect 2 1 29 0;
#X connect 3 0 29 0;
#X connect 3 1 30 0;
#X connect 4 0 30 0;
#X connect 4 1 31 0;
#X connect 5 0 31 0;
#X connect 5 1 35 0;
#X connect 6 0 31 0;
#X connect 6 1 34 0;
#X connect 7 0 30 0;
#X connect 7 1 34 0;
#X connect 8 0 30 0;
#X connect 8 1 33 0;
#X connect 9 0 29 0;
#X connect 9 1 33 0;
#X connect 10 0 29 0;
#X connect 10 1 32 0;
#X connect 11 0 27 0;
#X connect 11 1 32 0;
#X connect 12 0 28 0;
#X connect 12 1 33 0;
#X connect 13 0 29 0;
#X connect 13 1 34 0;
#X connect 14 0 30 0;
#X connect 14 1 35 0;
#X connect 15 0 31 0;
#X connect 15 1 36 0;
#X connect 16 0 30 0;
#X connect 16 1 36 0;
#X connect 17 0 29 0;
#X connect 17 1 36 0;
#X connect 18 0 35 0;
#X connect 18 1 36 0;
#X connect 19 0 29 0;
#X connect 19 1 35 0;
#X connect 20 0 28 0;
#X connect 20 1 35 0;
#X connect 21 0 34 0;
#X connect 21 1 35 0;
#X connect 22 0 28 0;
#X connect 22 1 34 0;
#X connect 23 0 27 0;
#X connect 23 1 34 0;
#X connect 24 0 33 0;
#X connect 24 1 34 0;
#X connect 25 0 27 0;
#X connect 25 1 33 0;
#X connect 26 0 32 0;
#X connect 26 1 33 0;
#X connect 27 0 0 0;
#X connect 27 0 11 0;
#X connect 27 0 25 0;
#X connect 27 0 23 0;
#X connect 28 0 0 1;
#X connect 28 0 2 0;
#X connect 28 0 12 0;
#X connect 28 0 1 0;
#X connect 28 0 22 0;
#X connect 28 0 20 0;
#X connect 29 0 2 1;
#X connect 29 0 3 0;
#X connect 29 0 13 0;
#X connect 29 0 9 0;
#X connect 29 0 10 0;
#X connect 29 0 19 0;
#X connect 29 0 17 0;
#X connect 30 0 3 1;
#X connect 30 0 4 0;
#X connect 30 0 14 0;
#X connect 30 0 7 0;
#X connect 30 0 8 0;
#X connect 30 0 16 0;
#X connect 31 0 4 1;
#X connect 31 0 15 0;
#X connect 31 0 5 0;
#X connect 31 0 6 0;
#X connect 32 0 26 0;
#X connect 32 0 11 1;
#X connect 32 0 1 1;
#X connect 32 0 10 1;
#X connect 33 0 26 1;
#X connect 33 0 24 0;
#X connect 33 0 12 1;
#X connect 33 0 25 1;
#X connect 33 0 9 1;
#X connect 33 0 8 1;
#X connect 34 0 24 1;
#X connect 34 0 21 0;
#X connect 34 0 13 1;
#X connect 34 0 22 1;
#X connect 34 0 23 1;
#X connect 34 0 6 1;
#X connect 34 0 7 1;
#X connect 35 0 21 1;
#X connect 35 0 18 0;
#X connect 35 0 14 1;
#X connect 35 0 19 1;
#X connect 35 0 20 1;
#X connect 35 0 5 1;
#X connect 36 0 18 1;
#X connect 36 0 15 1;
#X connect 36 0 16 1;
#X connect 36 0 17 1;
#X restore 407 307 pd structure;
#N canvas 157 92 871 502 init 0;
#X msg 245 351 setK \$1;
#X msg 427 318 setD \$1;
#X floatatom 245 276 5 -10 200 0 - - -;
#X floatatom 427 267 5 0 0 0 - - -;
#X obj 245 325 / 10;
#X obj 245 299 + 1;
#X obj 427 291 / 10;
#X obj 49 50 loadbang;
#X floatatom 611 259 5 0 0 0 - - -;
#X obj 611 283 / 10;
#X msg 611 310 setD2 \$1;
#X obj 47 201 s \$0-masse;
#X obj 245 383 s \$0-lia;
#X obj 217 28 loadbang;
#X obj 269 110 sel 0 1 2 3;
#X obj 268 71 r preset;
#X obj 406 25 loadbang;
#X obj 458 107 sel 0 1 2 3;
#X obj 457 68 r preset;
#X obj 593 22 loadbang;
#X obj 645 104 sel 0 1 2 3;
#X obj 644 65 r preset;
#X msg 224 144 25;
#X msg 414 141 7;
#X msg 601 138 1;
#X msg 275 143 1;
#X msg 651 137 0.1;
#X msg 463 140 0.2;
#X msg 326 142 30;
#X msg 514 139 13;
#X msg 701 136 0.1;
#X msg 371 142 10;
#X msg 560 139 0.2;
#X msg 747 136 0.2;
#X msg 44 84 setXmin -3.8;
#X msg 58 110 setXmax 3.8;
#X msg 75 135 setYmin -3.8;
#X msg 89 161 setYmax 3.8;
#X connect 0 0 12 0;
#X connect 1 0 12 0;
#X connect 2 0 5 0;
#X connect 3 0 6 0;
#X connect 4 0 0 0;
#X connect 5 0 4 0;
#X connect 6 0 1 0;
#X connect 7 0 34 0;
#X connect 7 0 35 0;
#X connect 7 0 36 0;
#X connect 7 0 37 0;
#X connect 8 0 9 0;
#X connect 9 0 10 0;
#X connect 10 0 12 0;
#X connect 13 0 22 0;
#X connect 14 0 22 0;
#X connect 14 1 25 0;
#X connect 14 2 28 0;
#X connect 14 3 31 0;
#X connect 15 0 14 0;
#X connect 16 0 23 0;
#X connect 17 0 23 0;
#X connect 17 1 27 0;
#X connect 17 2 29 0;
#X connect 17 3 32 0;
#X connect 18 0 17 0;
#X connect 19 0 24 0;
#X connect 20 0 24 0;
#X connect 20 1 26 0;
#X connect 20 2 30 0;
#X connect 20 3 33 0;
#X connect 21 0 20 0;
#X connect 22 0 2 0;
#X connect 23 0 3 0;
#X connect 24 0 8 0;
#X connect 25 0 2 0;
#X connect 26 0 8 0;
#X connect 27 0 3 0;
#X connect 28 0 2 0;
#X connect 29 0 3 0;
#X connect 30 0 8 0;
#X connect 31 0 2 0;
#X connect 32 0 3 0;
#X connect 33 0 8 0;
#X connect 34 0 11 0;
#X connect 35 0 11 0;
#X connect 36 0 11 0;
#X connect 37 0 11 0;
#X restore 407 280 pd init;
#X obj 319 28 loadbang;
#X msg 235 252 force2D 0 2;
#X msg 180 278 force2D -2 0;
#X msg 237 305 force2D 0 -2;
#X msg 291 277 force2D 2 0;
#X obj 32 48 metro 5;
#X obj 67 100 s \$0-lia;
#X obj 32 161 s \$0-masse;
#X obj 319 57 t b b b;
#X msg 370 82 reset;
#X msg 345 107 resetL;
#X msg 319 135 resetF;
#X obj 235 337 s \$0-masse;
#N canvas 894 558 454 304 gravite 0;
#X obj 80 154 inlet;
#X obj 79 241 outlet;
#X obj 80 184 f;
#X msg 81 213 force2D 0 \$1;
#X obj 185 29 loadbang;
#X obj 269 110 sel 0 1 2 3;
#X obj 268 71 r preset;
#X msg 224 144 -0.01;
#X msg 275 143 -0.003;
#X msg 325 142 -0.003;
#X msg 386 142 -0.03;
#X connect 0 0 2 0;
#X connect 2 0 3 0;
#X connect 3 0 1 0;
#X connect 4 0 7 0;
#X connect 5 0 7 0;
#X connect 5 1 8 0;
#X connect 5 2 9 0;
#X connect 5 3 10 0;
#X connect 6 0 5 0;
#X connect 7 0 2 1;
#X connect 8 0 2 1;
#X connect 9 0 2 1;
#X connect 10 0 2 1;
#X restore 80 129 pd gravite;
#X obj 451 118 vradio 15 1 0 4 empty empty empty 0 -6 0 8 -262144 -1
-1 0;
#X obj 451 184 s preset;
#X text 52 410 the diferent preset show diferents kind of comportement
for the structure.;
#X text 55 25 <- 1;
#X text 174 213 <- 2;
#X connect 0 0 15 0;
#X connect 0 1 14 0;
#X connect 0 1 21 0;
#X connect 1 0 13 0;
#X connect 2 0 16 0;
#X connect 3 0 4 0;
#X connect 5 0 4 0;
#X connect 8 0 16 0;
#X connect 9 0 20 0;
#X connect 10 0 20 0;
#X connect 11 0 20 0;
#X connect 12 0 20 0;
#X connect 13 0 0 0;
#X connect 16 0 19 0;
#X connect 16 1 18 0;
#X connect 16 2 17 0;
#X connect 17 0 15 0;
#X connect 18 0 14 0;
#X connect 19 0 14 0;
#X connect 21 0 15 0;
#X connect 22 0 23 0;
