#N canvas 124 6 758 583 12;
#X obj 28 79 tgl 15 0 empty empty empty 0 -6 0 8 -262144 -1 -1 1 1
;
#X obj 99 184 s lia;
#X obj 28 183 s masse;
#X obj 49 413 s masse;
#X msg 397 175 setK \$1;
#X msg 618 127 setM \$1;
#X obj 397 202 s lia;
#X obj 618 155 s masse;
#X obj 397 149 / 10;
#X obj 397 123 + 1;
#X obj 69 298 gemwin;
#X msg 88 269 0 \, destroy;
#X floatatom 397 101 5 0 0 0 - - -;
#X floatatom 534 105 5 0 0 0 - - -;
#X floatatom 618 104 5 0 0 0 - - -;
#X obj 28 100 metro 10;
#X obj 28 124 t b b;
#X obj 256 111 world_light;
#X obj 256 83 gemhead;
#X text 199 154 <- gravity simulation;
#X obj 559 355 s gemhead;
#X obj 559 216 gemhead;
#X floatatom 581 246 5 0 0 0 - - -;
#X floatatom 631 247 5 0 0 0 - - -;
#X floatatom 681 247 5 0 0 0 - - -;
#X msg 534 128 setD2 \$1;
#X msg 63 152 force3D 0 -8 0;
#X floatatom 450 106 5 0 0 0 - - -;
#X msg 450 129 setD \$1;
#X obj 329 442 gemLia 0 1 0.1 0.1;
#X obj 632 442 gemLia 0 1 0.1 0.1;
#X obj 934 443 gemLia 0 1 0.1 0.1;
#X obj 1237 443 gemLia 0 1 0.1 0.1;
#X obj 327 504 gemLia 0 1 0.1 0.1;
#X obj 176 472 gemLia 0 1 0.1 0.1;
#X obj 631 504 gemLia 0 1 0.1 0.1;
#X obj 479 472 gemLia 0 1 0.1 0.1;
#X obj 933 505 gemLia 0 1 0.1 0.1;
#X obj 781 473 gemLia 0 1 0.1 0.1;
#X obj 1236 505 gemLia 0 1 0.1 0.1;
#X obj 1084 473 gemLia 0 1 0.1 0.1;
#X obj 1542 504 gemLia 0 1 0.1 0.1;
#X obj 1390 472 gemLia 0 1 0.1 0.1;
#X obj 1693 472 gemLia 0 1 0.1 0.1;
#X obj 327 563 gemLia 0 1 0.1 0.1;
#X obj 175 531 gemLia 0 1 0.1 0.1;
#X obj 630 563 gemLia 0 1 0.1 0.1;
#X obj 478 531 gemLia 0 1 0.1 0.1;
#X obj 932 564 gemLia 0 1 0.1 0.1;
#X obj 780 532 gemLia 0 1 0.1 0.1;
#X obj 1235 564 gemLia 0 1 0.1 0.1;
#X obj 1083 532 gemLia 0 1 0.1 0.1;
#X obj 326 625 gemLia 0 1 0.1 0.1;
#X obj 174 593 gemLia 0 1 0.1 0.1;
#X obj 629 625 gemLia 0 1 0.1 0.1;
#X obj 477 593 gemLia 0 1 0.1 0.1;
#X obj 931 626 gemLia 0 1 0.1 0.1;
#X obj 779 594 gemLia 0 1 0.1 0.1;
#X obj 1234 626 gemLia 0 1 0.1 0.1;
#X obj 1082 594 gemLia 0 1 0.1 0.1;
#X obj 1541 563 gemLia 0 1 0.1 0.1;
#X obj 1389 531 gemLia 0 1 0.1 0.1;
#X obj 1692 531 gemLia 0 1 0.1 0.1;
#X obj 1540 625 gemLia 0 1 0.1 0.1;
#X obj 1388 593 gemLia 0 1 0.1 0.1;
#X obj 1691 593 gemLia 0 1 0.1 0.1;
#X obj 1543 442 gemLia 0 1 0.1 0.1;
#X obj 325 687 gemLia 0 1 0.1 0.1;
#X obj 173 655 gemLia 0 1 0.1 0.1;
#X obj 628 687 gemLia 0 1 0.1 0.1;
#X obj 476 655 gemLia 0 1 0.1 0.1;
#X obj 930 688 gemLia 0 1 0.1 0.1;
#X obj 1233 688 gemLia 0 1 0.1 0.1;
#X obj 1081 656 gemLia 0 1 0.1 0.1;
#X obj 323 749 gemLia 0 1 0.1 0.1;
#X obj 172 717 gemLia 0 1 0.1 0.1;
#X obj 627 749 gemLia 0 1 0.1 0.1;
#X obj 475 717 gemLia 0 1 0.1 0.1;
#X obj 929 750 gemLia 0 1 0.1 0.1;
#X obj 777 718 gemLia 0 1 0.1 0.1;
#X obj 1232 750 gemLia 0 1 0.1 0.1;
#X obj 1080 718 gemLia 0 1 0.1 0.1;
#X obj 1387 655 gemLia 0 1 0.1 0.1;
#X obj 1690 655 gemLia 0 1 0.1 0.1;
#X obj 1538 749 gemLia 0 1 0.1 0.1;
#X obj 1386 717 gemLia 0 1 0.1 0.1;
#X obj 1689 717 gemLia 0 1 0.1 0.1;
#X obj 778 656 gemLia 0 1 0.1 0.1;
#X obj 1539 687 gemLia 0 1 0.1 0.1;
#X obj 25 592 gemMasse2 10 0 3 0;
#X obj 836 154 bng 15 250 50 0 empty empty empty 0 -6 0 8 -262144 -1
-1;
#X obj 857 153 loadbang;
#X obj 857 182 t b b b;
#X msg 908 207 reset;
#X msg 883 232 resetL;
#X msg 857 260 resetF;
#X obj 857 296 s lia;
#X obj 910 308 s masse;
#X obj 902 340 s masse2;
#X obj 329 472 gemMasse 10 1 1 0;
#X obj 325 532 gemMasse 10 1 2 0;
#X obj 327 593 gemMasse 10 1 3 0;
#X obj 326 654 gemMasse 10 1 4 0;
#X obj 324 717 gemMasse 10 1 5 0;
#X obj 633 472 gemMasse 10 2 1 0;
#X obj 630 531 gemMasse 10 2 2 0;
#X obj 629 593 gemMasse 10 2 3 0;
#X obj 629 656 gemMasse 10 2 4 0;
#X obj 627 717 gemMasse 10 2 5 0;
#X obj 933 473 gemMasse 10 3 1 0;
#X obj 932 532 gemMasse 10 3 2 0;
#X obj 931 594 gemMasse 10 3 3 0;
#X obj 930 656 gemMasse 10 3 4 0;
#X obj 929 718 gemMasse 10 3 5 0;
#X obj 1236 473 gemMasse 10 4 1 0;
#X obj 1235 532 gemMasse 10 4 2 0;
#X obj 1234 594 gemMasse 10 4 3 0;
#X obj 1234 656 gemMasse 10 4 4 0;
#X obj 1232 718 gemMasse 10 4 5 0;
#X obj 1543 473 gemMasse 10 5 1 0;
#X obj 1542 531 gemMasse 10 5 2 0;
#X obj 1541 593 gemMasse 10 5 3 0;
#X obj 1540 655 gemMasse 10 5 4 0;
#X obj 1538 718 gemMasse 10 5 5 0;
#X obj 329 410 gemMasse2 10 1 0 0;
#X obj 632 410 gemMasse2 10 2 0 0;
#X obj 934 411 gemMasse2 10 3 0 0;
#X obj 1237 411 gemMasse2 10 4 0 0;
#X obj 1543 410 gemMasse2 10 5 0 0;
#X obj 26 471 gemMasse2 10 0 1 0;
#X obj 1846 472 gemMasse2 10 6 1 0;
#X obj 1844 531 gemMasse2 10 6 2 0;
#X obj 25 530 gemMasse2 10 0 2 0;
#X obj 23 654 gemMasse2 10 0 4 0;
#X obj 22 716 gemMasse2 10 0 5 0;
#X obj 321 777 gemMasse2 10 1 6 0;
#X obj 626 776 gemMasse2 10 2 6 0;
#X obj 928 777 gemMasse2 10 3 6 0;
#X obj 1231 777 gemMasse2 10 4 6 0;
#X obj 1537 776 gemMasse2 10 5 6 0;
#X obj 1844 594 gemMasse2 10 6 3 0;
#X obj 1845 656 gemMasse2 10 6 4 0;
#X obj 1841 717 gemMasse2 10 6 5 0;
#X msg 397 77 2;
#X msg 618 80 10;
#X msg 450 80 0.1;
#X msg 535 80 0.03;
#X msg 49 342 force3D 0 1 0;
#X msg 60 364 force3D 0 0 1;
#X msg 67 388 force3D 1 0 0;
#X floatatom 613 298 5 0 0 0 - - -;
#X floatatom 663 299 5 0 0 0 - - -;
#X floatatom 713 299 5 0 0 0 - - -;
#X obj 559 328 translateXYZ -2.8 0 0;
#X obj 559 272 rotateXYZ -40 0 0;
#X msg 210 352 force3D 0 3 0;
#X msg 203 375 force3D 0 0 3;
#X msg 195 398 force3D 3 0 0;
#X obj 505 51 bng 15 250 50 0 empty empty empty 0 -6 0 8 -262144 -1
-1;
#X msg 69 241 reset \, lighting 1 \, create \, 1;
#X text 409 20 This is a plane with 3D masses.;
#X text 33 814 masses are used in the border (gemMasse2) for telling
the link there position. they do not receive bang information \, so
they will not move.;
#X text 53 75 <- 1;
#X text 308 242 <- 2;
#X connect 0 0 15 0;
#X connect 4 0 6 0;
#X connect 5 0 7 0;
#X connect 8 0 4 0;
#X connect 9 0 8 0;
#X connect 11 0 10 0;
#X connect 12 0 9 0;
#X connect 13 0 25 0;
#X connect 14 0 5 0;
#X connect 15 0 16 0;
#X connect 16 0 2 0;
#X connect 16 1 1 0;
#X connect 16 1 26 0;
#X connect 18 0 17 0;
#X connect 21 0 154 0;
#X connect 22 0 154 1;
#X connect 23 0 154 2;
#X connect 24 0 154 3;
#X connect 25 0 6 0;
#X connect 27 0 28 0;
#X connect 28 0 6 0;
#X connect 29 0 124 0;
#X connect 29 1 99 0;
#X connect 30 0 125 0;
#X connect 30 1 104 0;
#X connect 31 0 126 0;
#X connect 31 1 109 0;
#X connect 32 0 127 0;
#X connect 32 1 114 0;
#X connect 33 0 99 0;
#X connect 33 1 100 0;
#X connect 34 0 129 0;
#X connect 34 1 99 0;
#X connect 35 0 104 0;
#X connect 35 1 105 0;
#X connect 36 0 99 0;
#X connect 36 1 104 0;
#X connect 37 0 109 0;
#X connect 37 1 110 0;
#X connect 38 0 104 0;
#X connect 38 1 109 0;
#X connect 39 0 114 0;
#X connect 39 1 115 0;
#X connect 40 0 109 0;
#X connect 40 1 114 0;
#X connect 41 0 119 0;
#X connect 41 1 120 0;
#X connect 42 0 114 0;
#X connect 42 1 119 0;
#X connect 43 0 119 0;
#X connect 43 1 130 0;
#X connect 44 0 100 0;
#X connect 44 1 101 0;
#X connect 45 0 132 0;
#X connect 45 1 100 0;
#X connect 46 0 105 0;
#X connect 46 1 106 0;
#X connect 47 0 100 0;
#X connect 47 1 105 0;
#X connect 48 0 110 0;
#X connect 48 1 111 0;
#X connect 49 0 105 0;
#X connect 49 1 110 0;
#X connect 50 0 115 0;
#X connect 50 1 116 0;
#X connect 51 0 110 0;
#X connect 51 1 115 0;
#X connect 52 0 101 0;
#X connect 52 1 102 0;
#X connect 53 0 89 0;
#X connect 53 1 101 0;
#X connect 54 0 106 0;
#X connect 54 1 107 0;
#X connect 55 0 101 0;
#X connect 55 1 106 0;
#X connect 56 0 111 0;
#X connect 56 1 112 0;
#X connect 57 0 106 0;
#X connect 57 1 111 0;
#X connect 58 0 116 0;
#X connect 58 1 117 0;
#X connect 59 0 111 0;
#X connect 59 1 116 0;
#X connect 60 0 120 0;
#X connect 60 1 121 0;
#X connect 61 0 115 0;
#X connect 61 1 120 0;
#X connect 62 0 120 0;
#X connect 62 1 131 0;
#X connect 63 0 121 0;
#X connect 63 1 122 0;
#X connect 64 0 116 0;
#X connect 64 1 121 0;
#X connect 65 0 121 0;
#X connect 65 1 140 0;
#X connect 66 0 128 0;
#X connect 66 1 119 0;
#X connect 67 0 102 0;
#X connect 67 1 103 0;
#X connect 68 0 133 0;
#X connect 68 1 102 0;
#X connect 69 0 107 0;
#X connect 69 1 108 0;
#X connect 70 0 102 0;
#X connect 70 1 107 0;
#X connect 71 0 112 0;
#X connect 71 1 113 0;
#X connect 72 0 117 0;
#X connect 72 1 118 0;
#X connect 73 0 112 0;
#X connect 73 1 117 0;
#X connect 74 0 103 0;
#X connect 74 1 135 0;
#X connect 75 0 134 0;
#X connect 75 1 103 0;
#X connect 76 0 108 0;
#X connect 76 1 136 0;
#X connect 77 0 103 0;
#X connect 77 1 108 0;
#X connect 78 0 113 0;
#X connect 78 1 137 0;
#X connect 79 0 108 0;
#X connect 79 1 113 0;
#X connect 80 0 118 0;
#X connect 80 1 138 0;
#X connect 81 0 113 0;
#X connect 81 1 118 0;
#X connect 82 0 117 0;
#X connect 82 1 122 0;
#X connect 83 0 122 0;
#X connect 83 1 141 0;
#X connect 84 0 123 0;
#X connect 84 1 139 0;
#X connect 85 0 118 0;
#X connect 85 1 123 0;
#X connect 86 0 123 0;
#X connect 86 1 142 0;
#X connect 87 0 107 0;
#X connect 87 1 112 0;
#X connect 88 0 122 0;
#X connect 88 1 123 0;
#X connect 89 0 53 0;
#X connect 90 0 92 0;
#X connect 91 0 92 0;
#X connect 92 0 95 0;
#X connect 92 1 94 0;
#X connect 92 2 93 0;
#X connect 93 0 97 0;
#X connect 93 0 98 0;
#X connect 94 0 96 0;
#X connect 95 0 96 0;
#X connect 99 0 33 0;
#X connect 99 0 34 1;
#X connect 99 0 36 0;
#X connect 99 0 29 1;
#X connect 100 0 44 0;
#X connect 100 0 45 1;
#X connect 100 0 47 0;
#X connect 100 0 33 1;
#X connect 101 0 52 0;
#X connect 101 0 53 1;
#X connect 101 0 55 0;
#X connect 101 0 44 1;
#X connect 102 0 67 0;
#X connect 102 0 68 1;
#X connect 102 0 70 0;
#X connect 102 0 52 1;
#X connect 103 0 74 0;
#X connect 103 0 75 1;
#X connect 103 0 77 0;
#X connect 103 0 67 1;
#X connect 104 0 35 0;
#X connect 104 0 36 1;
#X connect 104 0 38 0;
#X connect 104 0 30 1;
#X connect 105 0 46 0;
#X connect 105 0 47 1;
#X connect 105 0 49 0;
#X connect 105 0 35 1;
#X connect 106 0 54 0;
#X connect 106 0 55 1;
#X connect 106 0 57 0;
#X connect 106 0 46 1;
#X connect 107 0 69 0;
#X connect 107 0 70 1;
#X connect 107 0 87 0;
#X connect 107 0 54 1;
#X connect 108 0 76 0;
#X connect 108 0 77 1;
#X connect 108 0 79 0;
#X connect 108 0 69 1;
#X connect 109 0 37 0;
#X connect 109 0 38 1;
#X connect 109 0 40 0;
#X connect 109 0 31 1;
#X connect 110 0 48 0;
#X connect 110 0 49 1;
#X connect 110 0 51 0;
#X connect 110 0 37 1;
#X connect 111 0 56 0;
#X connect 111 0 57 1;
#X connect 111 0 59 0;
#X connect 111 0 48 1;
#X connect 112 0 71 0;
#X connect 112 0 73 0;
#X connect 112 0 87 1;
#X connect 112 0 56 1;
#X connect 113 0 78 0;
#X connect 113 0 79 1;
#X connect 113 0 81 0;
#X connect 113 0 71 1;
#X connect 114 0 39 0;
#X connect 114 0 40 1;
#X connect 114 0 32 1;
#X connect 114 0 42 0;
#X connect 115 0 50 0;
#X connect 115 0 51 1;
#X connect 115 0 61 0;
#X connect 115 0 39 1;
#X connect 116 0 58 0;
#X connect 116 0 59 1;
#X connect 116 0 50 1;
#X connect 116 0 64 0;
#X connect 117 0 72 0;
#X connect 117 0 73 1;
#X connect 117 0 82 0;
#X connect 117 0 58 1;
#X connect 118 0 80 0;
#X connect 118 0 81 1;
#X connect 118 0 72 1;
#X connect 118 0 85 0;
#X connect 119 0 41 0;
#X connect 119 0 42 1;
#X connect 119 0 43 0;
#X connect 119 0 66 1;
#X connect 120 0 60 0;
#X connect 120 0 61 1;
#X connect 120 0 62 0;
#X connect 120 0 41 1;
#X connect 121 0 63 0;
#X connect 121 0 64 1;
#X connect 121 0 65 0;
#X connect 121 0 60 1;
#X connect 122 0 82 1;
#X connect 122 0 83 0;
#X connect 122 0 88 0;
#X connect 122 0 63 1;
#X connect 123 0 84 0;
#X connect 123 0 85 1;
#X connect 123 0 86 0;
#X connect 123 0 88 1;
#X connect 124 0 29 0;
#X connect 125 0 30 0;
#X connect 126 0 31 0;
#X connect 127 0 32 0;
#X connect 128 0 66 0;
#X connect 129 0 34 0;
#X connect 130 0 43 1;
#X connect 131 0 62 1;
#X connect 132 0 45 0;
#X connect 133 0 68 0;
#X connect 134 0 75 0;
#X connect 135 0 74 1;
#X connect 136 0 76 1;
#X connect 137 0 78 1;
#X connect 138 0 80 1;
#X connect 139 0 84 1;
#X connect 140 0 65 1;
#X connect 141 0 83 1;
#X connect 142 0 86 1;
#X connect 143 0 12 0;
#X connect 144 0 14 0;
#X connect 145 0 27 0;
#X connect 146 0 13 0;
#X connect 147 0 3 0;
#X connect 148 0 3 0;
#X connect 149 0 3 0;
#X connect 150 0 153 1;
#X connect 151 0 153 2;
#X connect 152 0 153 3;
#X connect 153 0 20 0;
#X connect 154 0 153 0;
#X connect 155 0 105 0;
#X connect 156 0 105 0;
#X connect 157 0 105 0;
#X connect 158 0 145 0;
#X connect 158 0 143 0;
#X connect 158 0 146 0;
#X connect 158 0 144 0;
#X connect 159 0 10 0;
