#N canvas 571 315 270 265 10;
#X obj 30 113 gemhead;
#X obj 30 139 translateXYZ;
#X obj 22 60 unpack s f f f;
#X obj 30 163 sphere 0.05;
#X obj 22 37 masse3D masse2 1 0 3;
#X connect 0 0 1 0;
#X connect 1 0 3 0;
#X connect 2 1 1 1;
#X connect 2 2 1 2;
#X connect 2 3 1 3;
#X connect 4 0 2 0;
