#N canvas 571 315 268 263 10;
#X obj 30 113 gemhead;
#X obj 30 139 translateXYZ;
#X obj 22 60 unpack s f f f;
#X obj 22 37 masse3D masse 1 0 3;
#X obj 31 163 sphere 0.1;
#X connect 0 0 1 0;
#X connect 1 0 4 0;
#X connect 2 1 1 1;
#X connect 2 2 1 2;
#X connect 2 3 1 3;
#X connect 3 0 2 0;
