#N canvas 792 238 341 264 10;
#X obj 112 80 unpack s f f f;
#X obj 15 171 outlet;
#X obj 112 57 masse3D masse2 1 \$1 \$2 \$3;
#X obj 98 202 translateXYZ 0 0 0;
#X obj 99 226 sphere 0.3;
#X obj 93 120 r gemhead;
#X obj 95 144 separator;
#X obj 129 173 / 3;
#X obj 161 171 / 3;
#X obj 193 170 / 3;
#X obj 66 11 inlet;
#X connect 0 1 7 0;
#X connect 0 2 8 0;
#X connect 0 3 9 0;
#X connect 2 0 0 0;
#X connect 2 0 1 0;
#X connect 3 0 4 0;
#X connect 5 0 6 0;
#X connect 6 0 3 0;
#X connect 7 0 3 1;
#X connect 8 0 3 2;
#X connect 9 0 3 3;
#X connect 10 0 2 0;
