#N canvas 122 226 1016 613 10;
#X obj 25 24 inlet;
#X obj 134 33 inlet;
#X obj 21 215 outlet;
#X obj 134 217 outlet;
#X obj 221 34 inlet;
#X obj 221 218 outlet;
#X obj 358 60 random 10;
#X obj 358 33 r init;
#X obj 274 208 gemhead;
#X obj 274 289 translateXYZ;
#X obj 274 337 sphere 0.2;
#X obj 296 256 \$2;
#X obj 296 231 loadbang;
#X obj 318 256 \$4;
#X msg 358 83 setX \$1;
#X obj 341 142 mass M 22;
#X obj 301 312 r size;
#X obj 427 476 primTri 0 0 0;
#X obj 426 122 t b f;
#X obj 450 213 t b f;
#X obj 463 451 pack \$2 \$4 f;
#X obj 463 428 t b f;
#X obj 517 87 \$2;
#X obj 517 62 loadbang;
#X obj 539 87 \$4;
#X obj 425 149 pack f f f;
#X obj 450 280 pack f f f;
#X obj 516 111 - 1;
#X obj 540 110 - 1;
#X obj 427 390 gemhead;
#X obj 427 362 &&;
#X msg 488 329 0;
#X obj 488 308 loadbang;
#X msg 455 329 1;
#X msg 427 329 1;
#X obj 610 37 inlet;
#X obj 632 539 primTri 0 0 0;
#X obj 632 148 t b f;
#X obj 656 239 t b f;
#X obj 821 299 t b f;
#X obj 723 113 \$2;
#X obj 723 88 loadbang;
#X obj 745 113 \$4;
#X obj 631 175 pack f f f;
#X obj 656 306 pack f f f;
#X obj 722 137 - 1;
#X obj 746 136 - 1;
#X obj 632 469 gemhead;
#X obj 633 388 &&;
#X msg 694 355 0;
#X obj 694 334 loadbang;
#X msg 661 355 1;
#X msg 633 355 1;
#X obj 657 426 &&;
#X msg 697 394 1;
#X obj 668 514 pack f f f;
#X obj 224 89 link L 0 1 0.1 0.1;
#X obj 135 58 link L 0 1 0.1 0.1;
#X connect 0 0 15 0;
#X connect 1 0 34 0;
#X connect 1 0 18 0;
#X connect 1 0 52 0;
#X connect 1 0 37 0;
#X connect 1 0 57 0;
#X connect 4 0 33 0;
#X connect 4 0 19 0;
#X connect 4 0 51 0;
#X connect 4 0 38 0;
#X connect 4 0 56 0;
#X connect 6 0 14 0;
#X connect 7 0 6 0;
#X connect 8 0 9 0;
#X connect 9 0 10 0;
#X connect 11 0 9 1;
#X connect 12 0 11 0;
#X connect 12 0 13 0;
#X connect 13 0 9 2;
#X connect 14 0 15 0;
#X connect 15 0 2 0;
#X connect 15 0 9 3;
#X connect 15 0 21 0;
#X connect 15 0 56 1;
#X connect 15 0 57 1;
#X connect 16 0 10 1;
#X connect 18 0 25 0;
#X connect 18 1 25 2;
#X connect 19 0 26 0;
#X connect 19 1 26 2;
#X connect 20 0 17 3;
#X connect 21 0 20 0;
#X connect 21 1 20 2;
#X connect 22 0 27 0;
#X connect 22 0 26 0;
#X connect 23 0 22 0;
#X connect 23 0 24 0;
#X connect 24 0 25 1;
#X connect 24 0 28 0;
#X connect 25 0 17 1;
#X connect 26 0 17 2;
#X connect 27 0 25 0;
#X connect 28 0 26 1;
#X connect 29 0 17 0;
#X connect 30 0 29 0;
#X connect 31 0 30 1;
#X connect 31 0 30 0;
#X connect 32 0 31 0;
#X connect 33 0 30 1;
#X connect 34 0 30 0;
#X connect 35 0 39 0;
#X connect 35 0 54 0;
#X connect 37 0 43 0;
#X connect 37 1 43 2;
#X connect 38 0 44 0;
#X connect 38 1 44 2;
#X connect 39 0 55 0;
#X connect 39 1 55 2;
#X connect 40 0 45 0;
#X connect 40 0 44 0;
#X connect 41 0 40 0;
#X connect 41 0 42 0;
#X connect 42 0 43 1;
#X connect 42 0 46 0;
#X connect 43 0 36 1;
#X connect 44 0 36 2;
#X connect 45 0 43 0;
#X connect 45 0 55 0;
#X connect 46 0 44 1;
#X connect 46 0 55 1;
#X connect 47 0 36 0;
#X connect 48 0 53 0;
#X connect 49 0 48 1;
#X connect 49 0 48 0;
#X connect 49 0 53 1;
#X connect 50 0 49 0;
#X connect 51 0 48 1;
#X connect 52 0 48 0;
#X connect 53 0 47 0;
#X connect 54 0 53 1;
#X connect 55 0 36 3;
#X connect 56 0 5 0;
#X connect 56 1 15 0;
#X connect 57 0 3 0;
#X connect 57 1 15 0;
