#N canvas 645 -2 656 389 12;
#X obj 26 38 inlet;
#X obj 11 137 outlet;
#X obj 25 104 unpack s f f;
#X obj 62 165 gemhead;
#X obj 59 206 translateXYZ;
#X obj 56 248 sphere 0.1;
#X obj 25 71 masse2D \$3-masse 50 \$1 \$2 -3.8 3.8 -3.8 3.8;
#X obj 257 105 unpack s f f f;
#X obj 438 233 osc~;
#X obj 438 208 mtof;
#X obj 438 133 loadbang;
#X obj 364 275 *~;
#X msg 364 209 \$1 50;
#X obj 364 234 line~;
#X obj 364 305 dac~;
#X obj 438 183 + 30;
#X obj 438 159 random 60;
#X obj 442 29 inlet;
#X msg 442 53 0;
#X obj 364 183 min 0.1;
#X obj 364 130 * 0.03;
#X connect 0 0 6 0;
#X connect 2 1 4 1;
#X connect 2 2 4 2;
#X connect 3 0 4 0;
#X connect 4 0 5 0;
#X connect 6 0 2 0;
#X connect 6 0 1 0;
#X connect 6 1 7 0;
#X connect 7 3 20 0;
#X connect 8 0 11 1;
#X connect 9 0 8 0;
#X connect 10 0 16 0;
#X connect 11 0 14 0;
#X connect 11 0 14 1;
#X connect 12 0 13 0;
#X connect 13 0 11 0;
#X connect 15 0 9 0;
#X connect 16 0 15 0;
#X connect 17 0 18 0;
#X connect 18 0 19 1;
#X connect 19 0 12 0;
#X connect 20 0 19 0;
