#N canvas 571 315 419 342 10;
#X obj 45 142 gemhead;
#X obj 45 168 translateXYZ;
#X obj 25 108 unpack s f f;
#X obj 25 85 masse2D masse 1 \$1 \$2;
#X msg 37 259 setX \$1 \, setY \$2;
#X obj 13 236 r link;
#X obj 25 39 loadbang;
#X msg 175 155 1 0 0;
#X obj 175 23 inlet;
#X obj 45 191 color 1 1 1;
#X obj 45 212 circle 0.05;
#X msg 25 62 setYmin -3 \, setT 0.9;
#X obj 85 40 r reset;
#X obj 40 286 iCircle2D masse 0 0 0.0001 0.15 0 0 1 0 0 0 0.31;
#X connect 0 0 1 0;
#X connect 1 0 9 0;
#X connect 2 1 1 1;
#X connect 2 2 1 2;
#X connect 3 0 2 0;
#X connect 3 0 4 0;
#X connect 4 0 13 0;
#X connect 5 0 13 0;
#X connect 6 0 11 0;
#X connect 7 0 9 1;
#X connect 8 0 7 0;
#X connect 9 0 10 0;
#X connect 11 0 3 0;
#X connect 12 0 11 0;
