#N canvas 24 9 934 571 10;
#X obj 188 46 pp 0;
#X floatatom 188 23 5 0 0 0 - - -;
#X floatatom 224 31 5 0 0 0 - - -;
#X floatatom 260 43 5 0 0 0 - - -;
#X floatatom 295 52 5 0 0 0 - - -;
#X floatatom 330 61 5 0 0 0 - - -;
#X obj 224 54 pp 1;
#X obj 260 66 pp 2;
#X obj 295 75 pp 3;
#X obj 330 84 pp 4;
#X text 25 482 2.arg: <float> nr. of lines = parameter-sets;
#X text 329 31 input: <list> of <float> para-index;
#X text 370 43 + <float/sym> parameter;
#X obj 593 112 openpanel;
#X obj 593 91 bng 15 250 50 0 empty empty empty 20 8 0 8 -262144 -1
-1;
#X obj 681 94 bng 15 250 50 0 empty empty empty 20 8 0 8 -262144 -1
-1;
#X obj 681 115 savepanel;
#X obj 227 421 print out;
#X floatatom 378 347 5 0 9 0 - - -;
#X text 380 328 <float> line number for recall and store;
#X msg 346 222 recall;
#X msg 323 247 store;
#X text 654 221 the 2nd symbol of read- or write-message;
#X text 655 235 should have 3 characters:;
#X text 656 251 1st char is the kind of separator:;
#X text 672 262 b .. blank or space;
#X text 671 272 c .. colon;
#X text 671 281 s .. semicolon;
#X text 671 291 t .. tabulator;
#X text 429 339 0 <= n < number of lines;
#X text 251 119 prepend column-number of parameter;
#X text 654 309 2nd char is the kind of end_of_line:;
#X text 669 320 b .. blank or space + return;
#X text 668 330 c .. colon + return;
#X text 668 339 s .. semicolon + return;
#X text 668 349 r .. return only;
#X text 655 364 3nd char is the kind of operating-system:;
#X text 670 375 l .. linux;
#X text 669 384 w .. windows;
#X text 671 395 m .. macintosh;
#X text 8 2 iem_pbank_csv;
#X text 109 2 parameter-bank with csv-syntax;
#X obj 39 282 pp 0;
#X msg 369 195 recall 1 5;
#X floatatom 366 71 5 0 0 0 - - -;
#X obj 366 94 pp 5;
#X symbolatom 401 78 10 0 0 0 - - -;
#X obj 401 102 pp 6;
#X msg 593 137 read \$1 csl;
#X obj 398 394 loadbang;
#X obj 398 436 pp add;
#X msg 398 415 0 aaa \, 1 bbb \, 2 ccc \, 3 ddd \, 4 eee \, 5 fff \,
6 ggg;
#X obj 479 482 r aaa;
#X floatatom 479 505 5 0 0 0 - - -;
#X floatatom 514 505 5 0 0 0 - - -;
#X obj 514 482 r bbb;
#X floatatom 549 505 5 0 0 0 - - -;
#X obj 549 482 r ccc;
#X symbolatom 692 505 10 0 0 0 - - -;
#X obj 479 526 bng 15 250 50 0 empty empty empty 0 -6 0 8 -262144 -1
-1;
#X obj 514 527 bng 15 250 50 0 empty empty empty 0 -6 0 8 -262144 -1
-1;
#X obj 549 527 bng 15 250 50 0 empty empty empty 0 -6 0 8 -262144 -1
-1;
#X obj 692 528 bng 15 250 50 0 empty empty empty 0 -6 0 8 -262144 -1
-1;
#X obj 692 482 r ggg;
#X floatatom 585 505 5 0 0 0 - - -;
#X floatatom 620 505 5 0 0 0 - - -;
#X floatatom 655 505 5 0 0 0 - - -;
#X obj 585 526 bng 15 250 50 0 empty empty empty 0 -6 0 8 -262144 -1
-1;
#X obj 620 527 bng 15 250 50 0 empty empty empty 0 -6 0 8 -262144 -1
-1;
#X obj 655 527 bng 15 250 50 0 empty empty empty 0 -6 0 8 -262144 -1
-1;
#X obj 585 482 r ddd;
#X obj 620 482 r eee;
#X obj 655 482 r fff;
#X obj 227 372 iem_pbank_csv 7 10;
#X obj 330 457 list2send 7;
#X msg 16 197 1.1 2.1 3.1 4.1 5.1 6.1 aa1;
#X msg 39 220 1.2 2.2 3.2 4.2 5.2 6.2 bb2;
#X msg 61 244 1.3 2.3 3.3 4.3 5.3 6.3 cc3;
#X text 386 55 stored in input-buffer;
#X text 25 472 1.arg: <float> nr. of parameters;
#X text 18 168 list of all parameters of a line;
#X text 41 179 stored in input-buffer;
#X msg 682 137 write \$1 csl;
#X text 361 246 store input-buffer to memory-line of 2nd input;
#X text 390 222 recall memory-line to input-buffer;
#X text 398 231 and output all parameter of this line;
#X obj 330 403 pp from;
#X msg 542 167 read iemhelp/help-iem_pbank.pbank csl;
#X msg 547 190 read help-iem_pbank.pbank csl;
#X obj 21 357 bng 15 250 50 0 empty empty empty 0 -6 0 8 -262144 -1
-1;
#X text 38 355 output input-buffer;
#X msg 387 168 recall 3 2;
#X obj 130 424 print zzz;
#X text 136 525 IEM KUG;
#X text 120 513 musil;
#X text 150 513 @;
#X text 156 513 iem.at;
#X text 71 502 (c) Thomas Musil 2000 - 2005;
#X text 119 535 Graz \, Austria;
#X connect 0 0 73 0;
#X connect 1 0 0 0;
#X connect 2 0 6 0;
#X connect 3 0 7 0;
#X connect 4 0 8 0;
#X connect 5 0 9 0;
#X connect 6 0 73 0;
#X connect 7 0 73 0;
#X connect 8 0 73 0;
#X connect 9 0 73 0;
#X connect 13 0 48 0;
#X connect 14 0 13 0;
#X connect 15 0 16 0;
#X connect 16 0 82 0;
#X connect 18 0 73 1;
#X connect 20 0 73 0;
#X connect 21 0 73 0;
#X connect 42 0 73 0;
#X connect 43 0 73 0;
#X connect 44 0 45 0;
#X connect 45 0 73 0;
#X connect 46 0 47 0;
#X connect 47 0 73 0;
#X connect 48 0 73 0;
#X connect 49 0 51 0;
#X connect 50 0 74 0;
#X connect 51 0 50 0;
#X connect 52 0 53 0;
#X connect 53 0 59 0;
#X connect 54 0 60 0;
#X connect 55 0 54 0;
#X connect 56 0 61 0;
#X connect 57 0 56 0;
#X connect 58 0 62 0;
#X connect 63 0 58 0;
#X connect 64 0 67 0;
#X connect 65 0 68 0;
#X connect 66 0 69 0;
#X connect 70 0 64 0;
#X connect 71 0 65 0;
#X connect 72 0 66 0;
#X connect 73 0 17 0;
#X connect 73 1 86 0;
#X connect 73 1 92 0;
#X connect 75 0 42 0;
#X connect 76 0 42 0;
#X connect 77 0 42 0;
#X connect 82 0 73 0;
#X connect 86 0 74 0;
#X connect 87 0 73 0;
#X connect 88 0 73 0;
#X connect 89 0 73 0;
#X connect 91 0 73 0;
