#N canvas 671 371 337 220 12;
#X obj -22 101 outlet;
#X obj -22 -11 stripnote;
#X obj -22 66 t b;
#X obj -22 -91 notein;
#X text 132 -49 Arg1 = Note number;
#X text 132 -36 Arg2 = Channel number;
#X obj -22 14 pack f f;
#X obj -22 -40 spigot;
#X obj 23 -63 == \$2;
#X obj -22 37 route \$1;
#X connect 1 0 6 0;
#X connect 1 1 6 1;
#X connect 2 0 0 0;
#X connect 3 0 7 0;
#X connect 3 1 1 1;
#X connect 3 2 8 0;
#X connect 6 0 9 0;
#X connect 7 0 1 0;
#X connect 8 0 7 1;
#X connect 9 0 2 0;
