#N canvas 375 118 381 493 10;
#X text 34 40 dsp ON/OFF;
#X floatatom 17 80 5 0 0 0 - - -;
#X text 55 81 % cpu;
#X obj 17 60 dsp;
#X obj 17 40 tgl 15 0 empty empty empty 8 -8 0 10 -262144 -1 -1 0 1
;
#X text 8 265 ~signal_in~;
#X floatatom 81 180 3 15 133 0 - - -;
#X obj 81 199 mtof;
#X floatatom 81 218 9 0 22000 0 - - -;
#X text 145 219 Hz;
#X text 63 294 ~signal_out~;
#X floatatom 204 262 7 0 0 0 - - -;
#X text 255 263 dB;
#X floatatom 124 163 9 0 22000 0 - - -;
#X text 188 164 Hz;
#X floatatom 51 124 3 15 133 0 - - -;
#X floatatom 142 260 5 2 9999 0 - - -;
#X text 183 261 ms;
#X floatatom 111 241 4 0.01 1000 0 - - -;
#X text 26 361 1.arg:<float> center_freq. [Hz];
#X text 26 381 3.arg:<float> interpolation_time [ms];
#X obj 51 339 dac~;
#X obj 51 314 gainvu~ 300;
#X obj 239 140 vu 15 120 empty empty 8 -8 0 10 -66577 -1 1 0;
#X obj 304 183 vsl 15 128 0 127 0 1 empty empty empty 8 -8 0 10 -262144
-1 -1 8000 1;
#X obj 51 143 testtone~ 200;
#X obj 115 109 init 69;
#X text 78 125 midi;
#X floatatom 298 329 7 0 0 0 - - -;
#X text 349 330 dB;
#X text 105 8 bandpass 2.order with bandwidth-inlet;
#X text 144 241 bandwidth Hz;
#X text 26 371 2.arg:<float> bandwidth [Hz];
#X obj 51 280 bpw2~ 440 44 200;
#X obj 13 15 cnv 8 1 1 empty empty bpw2~ 1 2 1 18 -262144 -1109 0;
#X text 184 454 IEM KUG;
#X text 168 442 musil;
#X text 198 442 @;
#X text 204 442 iem.at;
#X text 119 431 (c) Thomas Musil 2000 - 2005;
#X text 167 464 Graz \, Austria;
#X connect 3 0 1 0;
#X connect 4 0 3 0;
#X connect 6 0 7 0;
#X connect 7 0 8 0;
#X connect 8 0 33 1;
#X connect 15 0 25 0;
#X connect 16 0 33 3;
#X connect 18 0 33 2;
#X connect 22 0 21 0;
#X connect 22 0 21 1;
#X connect 22 1 28 0;
#X connect 22 2 23 0;
#X connect 23 1 11 0;
#X connect 24 0 22 1;
#X connect 25 0 33 0;
#X connect 25 1 13 0;
#X connect 26 0 15 0;
#X connect 33 0 22 0;
