#N canvas 72 24 722 400 12;
#X obj 4 50 inlet~;
#X obj 529 49 inlet;
#X obj 291 254 *~;
#X obj 370 254 *~;
#X obj 84 50 inlet~;
#X obj 4 360 outlet~;
#X obj 4 253 *~;
#X obj 83 360 outlet~;
#X obj 83 253 *~;
#X obj 25 152 expr ($f1-1)*-1;
#X obj 157 152 expr ($f1-1)*-1;
#X obj 582 71 loadbang;
#X text 191 169 inverse;
#X msg 582 93 0;
#X text 30 14 Simple 2-way Crossfade Mixer;
#X obj 25 197 jf/mix/no-zipper~;
#X obj 104 219 jf/mix/no-zipper~;
#X obj 313 207 jf/mix/no-zipper~;
#X obj 392 229 jf/mix/no-zipper~;
#X obj 5 332 +~;
#X obj 83 332 +~;
#X text 576 49 crossfade slider;
#X obj 292 50 inlet~;
#X obj 370 50 inlet~;
#X connect 0 0 6 0;
#X connect 1 0 10 0;
#X connect 1 0 9 0;
#X connect 1 0 17 0;
#X connect 1 0 18 0;
#X connect 2 0 19 1;
#X connect 3 0 20 1;
#X connect 4 0 8 0;
#X connect 6 0 19 0;
#X connect 8 0 20 0;
#X connect 9 0 15 0;
#X connect 10 0 16 0;
#X connect 11 0 13 0;
#X connect 13 0 9 0;
#X connect 13 0 10 0;
#X connect 13 0 18 0;
#X connect 13 0 17 0;
#X connect 15 0 6 1;
#X connect 16 0 8 1;
#X connect 17 0 2 1;
#X connect 18 0 3 1;
#X connect 19 0 5 0;
#X connect 20 0 7 0;
#X connect 22 0 2 0;
#X connect 23 0 3 0;
