#N canvas 517 263 450 300 12;
#X obj 64 182 timer;
#X obj 108 63 f;
#X obj 140 63 + 1;
#X obj 108 88 mod 2;
#X obj 154 182 timer;
#X obj 108 113 sel 0 1;
#X obj 64 269 outlet;
#X obj 108 11 inlet;
#X text 234 56 records elapsed time \; between bangs at inlet;
#X connect 0 0 6 0;
#X connect 1 0 2 0;
#X connect 1 0 3 0;
#X connect 2 0 1 1;
#X connect 3 0 5 0;
#X connect 4 0 6 0;
#X connect 5 0 0 0;
#X connect 5 0 4 1;
#X connect 5 1 0 1;
#X connect 5 1 4 0;
#X connect 7 0 1 0;
