#N canvas 388 1 694 704 12;
#X obj 213 521 f;
#X msg 59 103 bang;
#X msg 178 149 stop;
#X msg 244 201 rewind;
#X msg 340 269 fastforward;
#X obj 213 434 metro 100;
#X msg 282 381 100;
#X msg 301 408 25;
#X obj 36 531 - 1;
#X obj 36 508 spigot;
#X obj 376 508 spigot;
#X obj 376 531 + 1;
#X msg 421 454 1;
#X msg 81 454 1;
#X msg 461 454 0;
#X msg 121 454 0;
#X obj 59 126 t b b b;
#X floatatom 496 322 5 0 0 0 - - -;
#X obj 421 479 t f b;
#X obj 81 479 t f b;
#X obj 18 14 tgl 15 0 empty empty empty 17 7 0 10 -262144 -1 -1 0 1
;
#X obj 18 32 sel 0 1;
#X text 86 31 Play.Pause;
#X obj 475 324 bng 15 250 50 0 empty empty empty 17 7 0 10 -262144
-1 -1;
#X obj 475 346 f;
#X text 544 320 Seek;
#X text 102 103 play;
#X obj 36 554 max 0;
#X obj 244 225 t b b b b;
#X obj 340 293 t b b b b;
#X obj 178 174 t a b;
#X msg 578 41 0;
#X obj 213 675 s clock;
#X obj 611 398 tgl 15 0 empty empty empty 17 7 0 10 -262144 -1 -1 0
1;
#X text 632 396 Record;
#X obj 566 650 spigot;
#X obj 566 675 s record_clock;
#X obj 554 533 == 0;
#X obj 213 650 spigot;
#X obj 200 80 tgl 20 0 empty empty play 1 9 1 9 -257985 -1 -1 0 1;
#X obj 222 80 bng 20 250 50 0 empty empty << 2 10 1 15 -191407 -1 -1
;
#X obj 244 80 bng 20 250 50 0 empty empty >> 2 10 1 15 -191407 -1 -1
;
#X obj 288 80 nbx 5 20 -1e+037 1e+037 0 0 empty empty empty 0 -8 1
10 -228856 -1 -1 0 256;
#X obj 258 29 r clock;
#X obj 321 29 r record_clock;
#X floatatom 157 569 5 0 0 0 - - -;
#X msg 18 155 stop;
#X obj 611 336 loadbang;
#X msg 611 361 0;
#X obj 266 80 tgl 20 0 empty empty rec 3 9 1 9 -257985 -1 -1 0 1;
#X obj 611 426 f;
#X obj 341 80 bng 20 250 50 0 empty empty seek 1 9 1 9 -228856 -1 -1
;
#X obj 250 605 sel 0;
#X obj 213 576 t f f;
#X connect 0 0 9 0;
#X connect 0 0 10 0;
#X connect 0 0 35 0;
#X connect 0 0 45 0;
#X connect 0 0 53 0;
#X connect 1 0 16 0;
#X connect 2 0 30 0;
#X connect 3 0 28 0;
#X connect 4 0 29 0;
#X connect 5 0 0 0;
#X connect 6 0 5 1;
#X connect 7 0 5 1;
#X connect 8 0 27 0;
#X connect 9 0 8 0;
#X connect 10 0 11 0;
#X connect 11 0 0 1;
#X connect 12 0 18 0;
#X connect 13 0 19 0;
#X connect 14 0 10 1;
#X connect 15 0 9 1;
#X connect 16 0 5 0;
#X connect 16 1 12 0;
#X connect 16 2 6 0;
#X connect 17 0 24 1;
#X connect 18 0 10 1;
#X connect 18 1 15 0;
#X connect 19 0 9 1;
#X connect 19 1 14 0;
#X connect 20 0 21 0;
#X connect 21 0 46 0;
#X connect 21 1 1 0;
#X connect 23 0 24 0;
#X connect 24 0 0 0;
#X connect 27 0 0 1;
#X connect 28 0 5 0;
#X connect 28 1 13 0;
#X connect 28 2 7 0;
#X connect 28 3 31 0;
#X connect 29 0 5 0;
#X connect 29 1 12 0;
#X connect 29 2 7 0;
#X connect 29 3 31 0;
#X connect 30 0 5 0;
#X connect 30 1 31 0;
#X connect 31 0 39 0;
#X connect 33 0 50 0;
#X connect 35 0 36 0;
#X connect 37 0 38 1;
#X connect 38 0 32 0;
#X connect 39 0 21 0;
#X connect 40 0 3 0;
#X connect 41 0 4 0;
#X connect 42 0 24 1;
#X connect 43 0 42 0;
#X connect 44 0 42 0;
#X connect 46 0 5 0;
#X connect 47 0 48 0;
#X connect 48 0 33 0;
#X connect 49 0 50 0;
#X connect 50 0 35 1;
#X connect 50 0 37 0;
#X connect 51 0 24 0;
#X connect 52 0 31 0;
#X connect 53 0 38 0;
#X connect 53 1 52 0;
#X coords 0 -1 1 1 161 20 2 200 80;
