#N canvas 364 239 677 451 12;
#X obj 54 12 inlet;
#X obj 7 407 outlet;
#X msg 411 45 C C# D D# E F F# G G# A A# B;
#X obj 54 140 t b f;
#X symbolatom 200 378 10 0 0 0 - - -;
#X msg 54 224 Major Minor;
#X obj 245 152 t a b;
#X obj 54 102 mod;
#X floatatom 106 49 5 0 0 0 - - -;
#X obj 350 13 inlet;
#X text 103 11 number (index);
#X text 400 13 list of symbols in;
#X obj 350 78 t a a;
#X text 377 268 Outputs symbols for given numbers \; and sends them
to as a label to a \; canvas named \$1;
#X msg 513 396 \; \$2 label \$1;
#X obj 574 350 symbol \$1;
#X obj 574 327 loadbang;
#X obj 513 373 pack s s;
#X obj 200 405 outlet;
#X text 257 405 symbols;
#X text 66 407 modded numbers;
#N canvas 0 0 450 192 rj/u_collect 0;
#X obj 195 37 inlet;
#X obj 41 37 inlet;
#X obj 41 144 outlet;
#X msg 195 74 set;
#X obj 41 99 list trim;
#X obj 41 74 list prepend add2;
#N canvas 172 83 586 377 LICENSE-GPL 0;
#X text 57 88 This program is free software: you can redistribute it
and/or modify it under the terms of the GNU General Public License
as published by the Free Software Foundation \, either version 3 of
the License \, or (at your option) any later version.;
#X text 58 168 This program is distributed in the hope that it will
be useful \, but WITHOUT ANY WARRANTY \; without even the implied warranty
of MERCHANTABILITY or FITNESS FOR A PARTICULAR PURPOSE. See the GNU
General Public License for more details.;
#X text 57 261 You should have received a copy of the GNU General Public
License along with this program. If not \, see <http://www.gnu.org/licenses/>.
;
#X text 61 54 Copyright (C) 2009 \, Reality Jockey Ltd.;
#X text 60 325 See the file LICENSE.txt for the full license text.
;
#X restore 292 59 pd LICENSE-GPL;
#X connect 0 0 3 0;
#X connect 1 0 5 0;
#X connect 3 0 2 0;
#X connect 4 0 2 0;
#X connect 5 0 4 0;
#X restore 245 176 pd rj/u_collect;
#X obj 54 257 list-abs/list-idx;
#X obj 387 102 list-abs/list-len;
#X connect 0 0 7 0;
#X connect 0 0 8 0;
#X connect 2 0 12 0;
#X connect 3 0 5 0;
#X connect 3 1 22 1;
#X connect 5 0 22 0;
#X connect 6 0 21 0;
#X connect 6 1 21 1;
#X connect 7 0 3 0;
#X connect 7 0 1 0;
#X connect 8 0 7 0;
#X connect 9 0 12 0;
#X connect 12 0 6 0;
#X connect 12 1 23 0;
#X connect 15 0 17 1;
#X connect 16 0 15 0;
#X connect 17 0 14 0;
#X connect 21 0 5 0;
#X connect 22 0 4 0;
#X connect 22 0 18 0;
#X connect 22 0 17 0;
#X connect 23 0 7 1;
