#N canvas 527 98 713 391 10;
#X text 29 15 red;
#X text 99 17 green;
#X text 171 17 blue;
#X obj 167 129 t b f;
#X obj 101 147 +;
#X obj 101 172 t b f;
#X obj 101 203 +;
#X obj 101 311 outlet;
#X obj 24 106 * -65536;
#X obj 101 107 * -256;
#X obj 167 107 * -1;
#X obj 101 226 - 1;
#X obj 272 144 cnv 15 100 60 empty \$0-colour-test-cnv r0/g0/b0 5 12
1 12 -1 -262144 0;
#X obj 275 108 hsl 95 10 0 255 0 0 empty empty empty -2 -8 0 10 -258113
-1 -1 0 1;
#X obj 275 120 hsl 95 10 0 255 0 0 empty empty empty -2 -8 0 10 -4034
-1 -1 0 1;
#X obj 275 132 hsl 95 10 0 255 0 0 empty empty empty -2 -8 0 10 -4160
-1 -1 0 1;
#X obj 302 253 pack f \$0;
#X msg 309 286 \; \$2-colour-test-cnv color \$1;
#X obj 24 79 int;
#X obj 101 79 int;
#X obj 167 79 int;
#X obj -146 137 t b f;
#X obj -136 157 t b f;
#X obj -165 213 pack f f f \$0;
#X msg -165 235 \; \$4-colour-test-cnv label r\$1/g\$2/b\$3;
#X obj 273 189 nbx 10 14 -1e+37 1e+37 0 0 empty empty empty 0 -8 0
10 -262144 -1 -1 -1 256;
#X obj 240 41 loadbang;
#X obj 274 92 nbx 10 14 0 1000 0 0 empty empty empty 0 -8 0 10 -262144
-1 -1 0 256;
#X connect 3 0 4 0;
#X connect 3 1 4 1;
#X connect 4 0 5 0;
#X connect 5 0 6 0;
#X connect 5 1 6 1;
#X connect 6 0 11 0;
#X connect 8 0 6 0;
#X connect 9 0 4 0;
#X connect 10 0 3 0;
#X connect 11 0 7 0;
#X connect 11 0 16 0;
#X connect 11 0 25 0;
#X connect 13 0 18 0;
#X connect 14 0 19 0;
#X connect 15 0 20 0;
#X connect 16 0 17 0;
#X connect 18 0 8 0;
#X connect 18 0 23 0;
#X connect 19 0 9 0;
#X connect 19 0 21 0;
#X connect 20 0 10 0;
#X connect 20 0 22 0;
#X connect 21 0 23 0;
#X connect 21 1 23 1;
#X connect 22 0 23 0;
#X connect 22 1 23 2;
#X connect 23 0 24 0;
#X connect 26 0 13 0;
#X connect 27 0 16 0;
#X coords 0 -1 1 1 104 116 2 270 90;
