#N canvas 368 263 830 410 12;
#X obj 16 6 inlet~;
#X obj 16 373 outlet~;
#X obj 86 373 outlet~;
#X obj 255 102 hsl 128 15 0 127 0 0 empty empty Panorama -2 8 1 10
-257985 -1 -1 6350 1;
#X obj 255 119 hsl 128 15 0 127 0 0 empty empty Proximity -2 8 1 10
-257985 -1 -1 12700 1;
#X obj 170 8 loadbang;
#X msg 170 33 63.5;
#X msg 217 33 127;
#X obj 186 373 outlet~;
#X obj 256 373 outlet~;
#X text 467 58 j/mix/soundstage~ \; \; Places mono signals in a more
\; convincing virtual space for \; headphone listening. \; \; \; Outputs
3&4 may be connected to \; a wet reverb auxiliary buss \; if desired
\; \; (Mimics the fact that a sound from the \; right will be heard
slightly later in \; the left ear and that far away sounds \; sound
duller) \; \; 2010 J Flynn;
#N canvas 104 120 592 370 proximity 0;
#X obj 16 6 inlet~;
#X obj 86 6 inlet~;
#X obj 16 330 outlet~;
#X obj 87 330 outlet~;
#X obj 16 129 lop~ 22000;
#X obj 86 161 lop~ 22000;
#X obj 367 9 inlet;
#X obj 17 305 *~;
#X obj 87 305 *~;
#X obj 381 215 j/mix/nozipper~;
#X obj 381 139 j/scale/lin 0 127 0 1;
#X obj 168 116 mtof;
#X obj 168 93 j/scale/lin 0 127 60 137;
#X connect 0 0 4 0;
#X connect 1 0 5 0;
#X connect 4 0 7 0;
#X connect 5 0 8 0;
#X connect 6 0 10 0;
#X connect 6 0 12 0;
#X connect 7 0 2 0;
#X connect 8 0 3 0;
#X connect 9 0 7 1;
#X connect 9 0 8 1;
#X connect 10 0 9 0;
#X connect 11 0 5 1;
#X connect 11 0 4 1;
#X connect 12 0 11 0;
#X restore 15 244 pd proximity;
#N canvas 538 129 705 427 reverbSend 0;
#X obj 12 28 inlet~;
#X obj 92 28 inlet~;
#X obj 12 348 outlet~;
#X obj 92 348 outlet~;
#X obj 574 30 inlet;
#X obj 12 294 *~;
#X obj 92 324 *~;
#X obj 33 271 j/mix/nozipper~;
#X obj 113 301 j/mix/nozipper~;
#X obj 251 34 inlet;
#X obj 11 184 *~;
#X obj 91 214 *~;
#X obj 32 161 j/mix/nozipper~;
#X obj 112 191 j/mix/nozipper~;
#X obj 251 129 j/scale/lin 0 127 1 0.25;
#X obj 403 104 t b f;
#X obj 465 248 j/scale/lin 0 127 2 1;
#X obj 403 81 j/scale/lin 0 127 0.5 1;
#X connect 0 0 10 0;
#X connect 1 0 11 0;
#X connect 4 0 16 0;
#X connect 4 0 17 0;
#X connect 5 0 2 0;
#X connect 6 0 3 0;
#X connect 7 0 5 1;
#X connect 8 0 6 1;
#X connect 9 0 14 0;
#X connect 10 0 5 0;
#X connect 11 0 6 0;
#X connect 12 0 10 1;
#X connect 13 0 11 1;
#X connect 14 0 12 0;
#X connect 14 1 13 0;
#X connect 15 0 14 0;
#X connect 15 1 14 4;
#X connect 16 0 7 0;
#X connect 16 0 8 0;
#X connect 17 0 15 0;
#X restore 138 309 pd reverbSend;
#N canvas 0 0 879 498 panorama 0;
#X obj 16 6 inlet~;
#X obj 15 427 outlet~;
#X obj 85 427 outlet~;
#X obj 296 7 inlet;
#X obj 15 304 lop~ 20000;
#X obj 399 259 mtof;
#X obj 85 382 lop~ 20000;
#X obj 596 259 mtof;
#X obj 399 236 j/scale/lin 0 127 137 110;
#X obj 16 256 j/mix/nozipper~;
#X obj 86 334 j/mix/nozipper~;
#X obj 86 358 vd~ \$0-EarToEarDelayR;
#X obj 16 280 vd~ \$0-EarToEarDelayL;
#X obj 16 31 *~ 0.5;
#X obj 406 74 j/scale/lin 0 127 0 2.1;
#X obj 16 167 delwrite~ \$0-EarToEarDelayL 3;
#X obj 107 138 delwrite~ \$0-EarToEarDelayR 3;
#X connect 0 0 13 0;
#X connect 3 0 8 0;
#X connect 3 0 14 0;
#X connect 4 0 1 0;
#X connect 5 0 4 1;
#X connect 6 0 2 0;
#X connect 7 0 6 1;
#X connect 8 0 5 0;
#X connect 8 1 7 0;
#X connect 9 0 12 0;
#X connect 10 0 11 0;
#X connect 11 0 6 0;
#X connect 12 0 4 0;
#X connect 13 0 15 0;
#X connect 13 0 16 0;
#X connect 14 0 9 0;
#X connect 14 1 10 0;
#X restore 16 159 pd panorama;
#X obj 274 8 inlet;
#X obj 324 8 inlet;
#X connect 0 0 13 0;
#X connect 3 0 12 2;
#X connect 3 0 13 1;
#X connect 4 0 12 3;
#X connect 4 0 11 2;
#X connect 5 0 6 0;
#X connect 5 0 7 0;
#X connect 6 0 3 0;
#X connect 7 0 4 0;
#X connect 11 0 12 0;
#X connect 11 0 1 0;
#X connect 11 1 12 1;
#X connect 11 1 2 0;
#X connect 12 0 8 0;
#X connect 12 1 9 0;
#X connect 13 0 11 0;
#X connect 13 1 11 1;
#X connect 14 0 3 0;
#X connect 15 0 4 0;
#X coords 0 -1 1 1 137 36 2 250 100;
