#N canvas 639 211 380 277 12;
#X obj 4 50 inlet~;
#X obj 4 246 outlet~;
#X obj 269 85 tgl 15 0 empty empty empty 17 7 0 10 -262144 -1 -1 0
1;
#X obj 247 10 inlet;
#X obj 4 219 *~;
#X obj 25 193 line~;
#X obj 25 171 pack;
#X msg 25 149 \$1 50;
#X obj 83 246 outlet~;
#X obj 83 219 *~;
#X obj 104 193 line~;
#X obj 104 171 pack;
#X msg 104 149 \$1 50;
#X obj 162 50 inlet~;
#X obj 162 246 outlet~;
#X obj 162 219 *~;
#X obj 183 193 line~;
#X obj 183 171 pack;
#X msg 183 149 \$1 50;
#X obj 241 246 outlet~;
#X obj 241 219 *~;
#X obj 262 193 line~;
#X obj 262 171 pack;
#X msg 262 149 \$1 50;
#X obj 262 120 == 0;
#X text 30 14 Simple 2-way Router;
#X obj 183 120 == 0;
#X obj 283 36 loadbang;
#X msg 283 58 0;
#X connect 0 0 4 0;
#X connect 0 0 15 0;
#X connect 2 0 7 0;
#X connect 2 0 24 0;
#X connect 2 0 12 0;
#X connect 2 0 26 0;
#X connect 3 0 2 0;
#X connect 4 0 1 0;
#X connect 5 0 4 1;
#X connect 6 0 5 0;
#X connect 7 0 6 0;
#X connect 9 0 8 0;
#X connect 10 0 9 1;
#X connect 11 0 10 0;
#X connect 12 0 11 0;
#X connect 13 0 9 0;
#X connect 13 0 20 0;
#X connect 15 0 14 0;
#X connect 16 0 15 1;
#X connect 17 0 16 0;
#X connect 18 0 17 0;
#X connect 20 0 19 0;
#X connect 21 0 20 1;
#X connect 22 0 21 0;
#X connect 23 0 22 0;
#X connect 24 0 23 0;
#X connect 26 0 18 0;
#X connect 27 0 28 0;
#X connect 28 0 2 0;
