#N canvas 72 24 722 348 12;
#X obj 4 50 inlet~;
#X obj 529 49 inlet;
#X obj 291 254 *~;
#X obj 370 254 *~;
#X obj 84 50 inlet~;
#X obj 4 310 outlet~;
#X obj 4 283 *~;
#X obj 83 310 outlet~;
#X obj 83 283 *~;
#X obj 25 133 expr ($f1-1)*-1;
#X obj 157 133 expr ($f1-1)*-1;
#X obj 582 71 loadbang;
#X text 285 133 inverse;
#X msg 582 93 0;
#X obj 25 227 j/mix/nozipper~;
#X obj 104 249 j/mix/nozipper~;
#X obj 313 207 j/mix/nozipper~;
#X obj 392 229 j/mix/nozipper~;
#X text 576 49 crossfade slider;
#X obj 292 310 outlet~;
#X obj 371 310 outlet~;
#X text 30 14 Simple 2-way Crossfade Mixer send style;
#X obj 157 168 * 2;
#X obj 25 168 * 2;
#X text 188 168 keep full volume til halfway;
#X obj 25 193 clip 0 1;
#X obj 157 193 clip 0 1;
#X connect 0 0 6 0;
#X connect 0 0 2 0;
#X connect 1 0 16 0;
#X connect 1 0 17 0;
#X connect 1 0 9 0;
#X connect 1 0 10 0;
#X connect 2 0 19 0;
#X connect 3 0 20 0;
#X connect 4 0 8 0;
#X connect 4 0 3 0;
#X connect 6 0 5 0;
#X connect 8 0 7 0;
#X connect 9 0 23 0;
#X connect 10 0 22 0;
#X connect 11 0 13 0;
#X connect 13 0 9 0;
#X connect 13 0 10 0;
#X connect 14 0 6 1;
#X connect 15 0 8 1;
#X connect 16 0 2 1;
#X connect 17 0 3 1;
#X connect 22 0 26 0;
#X connect 23 0 25 0;
#X connect 25 0 14 0;
#X connect 26 0 15 0;
