#N canvas 301 216 292 262 12;
#X obj 93 159 + 1;
#X obj 34 122 until;
#X obj 83 109 t b;
#X msg 83 131 1;
#X obj 46 81 t f f;
#X obj 46 13 inlet;
#X obj 62 220 outlet;
#X obj 62 159 f;
#X obj 46 45 f \$1;
#X connect 0 0 7 1;
#X connect 1 0 7 0;
#X connect 2 0 3 0;
#X connect 3 0 7 1;
#X connect 4 0 1 0;
#X connect 4 1 2 0;
#X connect 5 0 8 0;
#X connect 7 0 0 0;
#X connect 7 0 6 0;
#X connect 8 0 4 0;
