#N canvas 515 34 392 286 12;
#X obj -121 150 j/mix/xFadeSend~;
#X obj 4 100 / 128;
#X obj -37 181 throw~ \$1L;
#X obj 63 181 throw~ \$1R;
#X obj -121 256 outlet~;
#X obj -51 256 outlet~;
#X obj -122 8 inlet~;
#X obj -58 8 inlet~;
#X text 61 77 \$1-Send Name \; \$2-Controller Send Name;
#X obj 4 75 r \$2;
#X connect 0 0 4 0;
#X connect 0 1 5 0;
#X connect 0 2 2 0;
#X connect 0 3 3 0;
#X connect 1 0 0 2;
#X connect 6 0 0 0;
#X connect 7 0 0 1;
#X connect 9 0 1 0;
