#N canvas 719 344 161 263 12;
#X obj 34 122 until;
#X obj 46 81 t f f;
#X obj 46 13 inlet;
#X obj 54 225 outlet;
#X obj 46 45 f \$1;
#X obj 93 159 - 1;
#X obj 54 159 f \$1;
#X connect 0 0 6 0;
#X connect 1 0 0 0;
#X connect 1 1 6 1;
#X connect 2 0 4 0;
#X connect 4 0 1 0;
#X connect 5 0 6 1;
#X connect 6 0 3 0;
#X connect 6 0 5 0;
