#N canvas 351 147 413 257 12;
#X obj 144 145 readsf~ 2;
#X msg 144 115 open \$1;
#X obj 144 61 openpanel;
#X obj 144 93 symbol;
#X obj 143 221 outlet~;
#X obj 214 221 outlet~;
#X text 126 6 Simple Waveplayer;
#X obj 12 12 bng 15 250 50 0 empty empty Load_File 17 7 1 10 -228856
-1 -1;
#X obj 12 46 tgl 15 0 empty empty Play.Stop 17 7 1 10 -257985 -1 -1
0 1;
#X obj 255 93 f;
#X obj 229 41 t f b;
#X obj 200 187 *~;
#X obj 144 187 *~;
#X obj 15 63 hsl 65 15 0 1 0 0 empty empty Volume -2 8 1 10 -257985
-1 -1 6400 1;
#X obj -81 8 loadbang;
#X msg -72 78 0;
#X obj -12 131 j/mix/nozipper~;
#X obj 12 29 tgl 15 0 empty empty Loop 17 7 1 10 -228856 -1 -1 0 1
;
#X obj 242 150 spigot;
#X msg -81 31 0.5;
#X connect 0 0 12 0;
#X connect 0 1 11 0;
#X connect 0 2 3 0;
#X connect 0 2 18 0;
#X connect 1 0 0 0;
#X connect 2 0 3 0;
#X connect 3 0 1 0;
#X connect 7 0 2 0;
#X connect 7 0 15 0;
#X connect 8 0 10 0;
#X connect 9 0 0 0;
#X connect 10 0 9 0;
#X connect 10 1 3 0;
#X connect 11 0 5 0;
#X connect 12 0 4 0;
#X connect 13 0 16 0;
#X connect 14 0 19 0;
#X connect 15 0 8 0;
#X connect 16 0 12 1;
#X connect 16 0 11 1;
#X connect 17 0 18 1;
#X connect 18 0 9 0;
#X connect 19 0 13 0;
#X coords 0 -1 1 1 74 70 2 10 10;
