#N canvas 461 72 704 608 12;
#X obj 45 566 outlet;
#X obj 45 41 inlet;
#X obj 432 135 loadbang;
#X obj 218 41 inlet;
#X obj 45 420 + \$1;
#X obj 375 41 inlet;
#X obj 45 304 tabread \$0-chord;
#X obj 271 344 s \$0-chord;
#X obj 271 320 list prepend 0;
#X obj 45 153 t a a;
#X obj 117 208 / 12;
#X obj 117 233 int;
#X obj 117 258 * 12;
#X obj 45 327 +;
#X text 151 232 octave shift;
#X msg 412 250 0 0 2 2 4 5 5 7 7 9 9 11;
#X text 218 20 root note;
#X obj 432 160 f \$2;
#X obj 375 199 sel 0 1;
#X msg 439 272 0 1 2 3 4 5 6 7 8 9 10 11;
#X obj 45 281 mod 12;
#X msg 375 227 0 0 2 2 3 5 5 7 7 8 8 10;
#X text 267 419 \$1-root note \; \$2-none/major/minor - 0/1/2;
#X obj 481 371 table \$0-chord 12;
#X obj 45 81 unpack f f f;
#X obj 45 522 pack f f f;
#X text 43 20 note in;
#X text 374 21 set major/minor/none - 0/1/2;
#X text 577 227 minor;
#X text 613 250 major;
#X text 650 271 none;
#X connect 1 0 24 0;
#X connect 2 0 17 0;
#X connect 3 0 4 1;
#X connect 4 0 25 0;
#X connect 5 0 18 0;
#X connect 6 0 13 0;
#X connect 8 0 7 0;
#X connect 9 0 20 0;
#X connect 9 1 10 0;
#X connect 10 0 11 0;
#X connect 11 0 12 0;
#X connect 12 0 13 1;
#X connect 13 0 4 0;
#X connect 15 0 8 0;
#X connect 17 0 18 0;
#X connect 18 0 21 0;
#X connect 18 1 15 0;
#X connect 18 2 19 0;
#X connect 19 0 8 0;
#X connect 20 0 6 0;
#X connect 21 0 8 0;
#X connect 24 0 9 0;
#X connect 24 1 25 1;
#X connect 24 2 25 2;
#X connect 25 0 0 0;
