#N canvas 655 140 450 506 12;
#X obj 105 331 pack f f f;
#X obj 132 375 pack f f f;
#X obj 105 309 + 4;
#X obj 132 353 + 7;
#X obj 12 27 inlet;
#X text 60 27 note in;
#X obj 138 27 inlet;
#X text 188 25 0/1 Notes/Triads;
#X obj 105 129 spigot;
#X obj 105 179 unpack f f f;
#X obj 151 224 t f f;
#X obj 198 202 t f f;
#X obj 105 247 t f f;
#X obj 12 52 t a a;
#X obj 12 462 outlet;
#X text 282 280 Generic diatonic \; triad maker;
#X connect 0 0 14 0;
#X connect 1 0 14 0;
#X connect 2 0 0 0;
#X connect 3 0 1 0;
#X connect 4 0 13 0;
#X connect 6 0 8 1;
#X connect 8 0 9 0;
#X connect 9 0 12 0;
#X connect 9 1 10 0;
#X connect 9 2 11 0;
#X connect 10 0 0 1;
#X connect 10 1 1 1;
#X connect 11 0 0 2;
#X connect 11 1 1 2;
#X connect 12 0 2 0;
#X connect 12 1 3 0;
#X connect 13 0 14 0;
#X connect 13 1 8 0;
