#N canvas 314 44 906 646 12;
#X obj 8 564 f;
#X obj 339 610 outlet;
#X obj 75 400 f \$1;
#X obj 8 337 t b b;
#X obj 436 8 inlet increment;
#X obj 182 391 spigot;
#X obj 208 527 + \$3;
#X obj 104 8 inlet from;
#X obj 286 8 inlet to;
#X obj 8 141 f \$1;
#X obj 54 141 f \$2;
#X obj 8 167 >;
#X obj 8 116 t b b;
#X obj 8 191 sel 0;
#X text 97 143 <-Test for up or \; down count;
#X obj 8 8 inlet start;
#X text 89 364 Count up;
#X obj 182 416 t b f f;
#X obj 182 341 t f f;
#X text 626 83 j/count/fromToDelay \; \; Counts from \$1 to \$2 using
\$3 \; as an increment/decrement & \; \$4 is the delay time between
\; count.;
#X obj 126 506 delay \$4;
#X obj 498 564 f;
#X obj 565 400 f \$1;
#X obj 498 337 t b b;
#X obj 672 391 spigot;
#X obj 672 416 t b f f;
#X obj 672 341 t f f;
#X obj 616 506 delay \$4;
#X text 579 364 Count down;
#X obj 698 527 - \$3;
#X obj 227 367 <= \$2;
#X obj 717 367 >= \$2;
#X obj 586 8 inlet delayTime;
#X connect 0 0 18 0;
#X connect 2 0 0 1;
#X connect 3 0 0 0;
#X connect 3 1 2 0;
#X connect 4 0 6 1;
#X connect 4 0 29 1;
#X connect 5 0 17 0;
#X connect 6 0 0 1;
#X connect 7 0 2 1;
#X connect 7 0 9 1;
#X connect 7 0 22 1;
#X connect 8 0 10 1;
#X connect 8 0 30 1;
#X connect 8 0 31 1;
#X connect 9 0 11 0;
#X connect 10 0 11 1;
#X connect 11 0 13 0;
#X connect 12 0 9 0;
#X connect 12 1 10 0;
#X connect 13 0 3 0;
#X connect 13 1 23 0;
#X connect 15 0 12 0;
#X connect 17 0 20 0;
#X connect 17 1 6 0;
#X connect 17 2 1 0;
#X connect 18 0 5 0;
#X connect 18 1 30 0;
#X connect 20 0 0 0;
#X connect 21 0 26 0;
#X connect 22 0 21 1;
#X connect 23 0 21 0;
#X connect 23 1 22 0;
#X connect 24 0 25 0;
#X connect 25 0 27 0;
#X connect 25 1 29 0;
#X connect 25 2 1 0;
#X connect 26 0 24 0;
#X connect 26 1 31 0;
#X connect 27 0 21 0;
#X connect 29 0 21 1;
#X connect 30 0 5 1;
#X connect 31 0 24 1;
#X connect 32 0 20 1;
#X connect 32 0 27 1;
