#N canvas 604 290 245 228 12;
#X obj 141 53 f \$1;
#X text 188 6 reset;
#X obj 141 7 inlet;
#X obj 8 8 inlet;
#X obj 8 192 outlet;
#X text 57 8 bangs;
#X obj 56 114 + 1;
#X obj 8 114 f \$1;
#X connect 0 0 7 1;
#X connect 2 0 0 0;
#X connect 3 0 7 0;
#X connect 6 0 7 1;
#X connect 7 0 4 0;
#X connect 7 0 6 0;
