#N canvas 740 162 450 425 12;
#X obj 254 41 block~ 1024 1 \$1;
#X obj 26 358 outlet~;
#X obj 131 13 inlet;
#X obj 264 298 outlet~;
#X obj 204 58 inlet;
#X obj 204 83 * -1;
#X obj 204 108 + 1;
#X obj 25 322 *~ 1;
#X obj 264 275 *~ 0;
#X obj 26 98 phasor~;
#X obj 27 220 iemabs/lp10_bess~ 12000 50;
#X obj 26 13 inlet;
#X msg 26 38 \$1 50;
#X obj 26 63 line~;
#X obj 251 158 phasor~;
#X connect 2 0 10 1;
#X connect 4 0 5 0;
#X connect 4 0 7 1;
#X connect 5 0 6 0;
#X connect 6 0 8 1;
#X connect 7 0 1 0;
#X connect 8 0 3 0;
#X connect 9 0 10 0;
#X connect 10 0 7 0;
#X connect 11 0 12 0;
#X connect 12 0 13 0;
#X connect 13 0 9 0;
#X connect 13 0 14 0;
#X connect 14 0 8 0;
