#N canvas 176 5 1060 587 12;
#X text 9 113 1-Array Name 2-Array Size;
#X text 413 119 FUNCTIONS;
#X obj 96 32 cnv 15 93 15 empty empty \$1 0 7 1 10 -257985 -66577 0
;
#X obj 418 32 bng 15 250 50 0 sendCleanArray\$1 cleanArray\$1 cln 3
8 1 8 -228856 -1 -1;
#X obj 274 32 nbx 3 15 75 300 0 0 sendAllArray\$1 allArray\$1 all -12
7 1 10 -191407 -1 -1 75 256;
#X obj 435 32 bng 15 250 50 0 sendSineArray\$1 sineArray\$1 sin 1 7
1 9 -191407 -1 -1;
#X obj 504 32 bng 15 250 50 0 sendShiftArray\$1Right shiftArray\$1Right
>> 3 7 1 10 -162280 -1 -1;
#X obj 486 32 bng 15 250 50 0 sendShiftArray\$1Left shiftArray\$1Left
<< 1 7 1 10 -162280 -1 -1;
#X obj 452 32 bng 15 250 50 0 sendRandomizeArray\$1 RandomizeArray\$1
rnd 1 7 1 9 -162280 -1 -1;
#X obj 469 32 bng 15 250 50 0 sendEvolveArray\$1 evolveArray\$1 evo
1 8 1 8 -128992 -1 -1;
#X obj 233 32 nbx 2 15 0 127 0 0 sendFillArray\$1 fillArray\$1 fill
-12 7 1 10 -228856 -1 -1 0 256;
#X obj 39 32 cnv 15 55 15 empty empty empty 20 12 0 14 -1 -66577 0
;
#X obj 191 32 nbx 2 15 1 32 0 0 send-2\$1 2\$1 empty 0 -5 1 10 -228856
-1 -1 1 256;
#N canvas 0 0 450 300 cleanArray 0;
#X obj 48 148 clip \$3 \$4;
#X obj 48 43 jf/count/1to \$2;
#X obj 48 68 - 1;
#X obj 48 92 t f f;
#X obj 48 116 tabread Array\$1;
#X obj 48 179 pack f f;
#X obj 48 205 tabwrite Array\$1;
#X text 80 67 clip values outside bounds;
#X obj 48 17 r sendCleanArray\$1;
#X connect 0 0 5 0;
#X connect 1 0 2 0;
#X connect 2 0 3 0;
#X connect 3 0 4 0;
#X connect 3 1 5 1;
#X connect 4 0 0 0;
#X connect 5 0 6 0;
#X connect 8 0 1 0;
#X restore 400 180 pd cleanArray;
#N canvas 623 162 324 512 sineArray 0;
#X obj 66 71 symbol Array\$1;
#X text 45 -66 Fill With Sine;
#X obj 201 35 / 2;
#X obj 48 192 jf/count/1to \$2;
#X obj 48 216 - 1;
#X obj 48 241 t f f;
#X obj 48 265 tabread Array\$1;
#X msg 66 122 \; \$1 sinesum \$2 \$3 \; \$1 resize \$2 \;;
#X obj 48 379 pack f f;
#X obj 48 405 tabwrite Array\$1;
#X text 114 35 half range;
#X obj 23 -24 bng 15 250 50 0 empty empty empty 17 7 0 10 -262144 -1
-1;
#X text 79 342 centre Array;
#X obj 109 96 pack s \$2 f;
#X obj 186 263 f \$3;
#X obj 224 263 f \$4;
#X obj 195 293 +;
#X obj 48 342 +;
#X obj 186 219 loadbang;
#X obj 195 315 / 2;
#X obj 186 241 t b b;
#X obj 198 -53 loadbang;
#X obj 48 -6 t b b;
#X obj 201 -13 f \$4;
#X obj 201 11 - \$3;
#X obj 48 -46 r sendSineArray\$1;
#X connect 0 0 13 0;
#X connect 2 0 13 2;
#X connect 3 0 4 0;
#X connect 4 0 5 0;
#X connect 5 0 6 0;
#X connect 5 1 8 1;
#X connect 6 0 17 0;
#X connect 8 0 9 0;
#X connect 11 0 22 0;
#X connect 13 0 7 0;
#X connect 14 0 16 0;
#X connect 15 0 16 1;
#X connect 16 0 19 0;
#X connect 17 0 8 0;
#X connect 18 0 20 0;
#X connect 19 0 17 1;
#X connect 20 0 14 0;
#X connect 20 1 15 0;
#X connect 21 0 23 0;
#X connect 22 0 3 0;
#X connect 22 1 0 0;
#X connect 23 0 24 0;
#X connect 24 0 2 0;
#X connect 25 0 22 0;
#X restore 400 224 pd sineArray;
#N canvas 818 176 316 445 fillArray 0;
#X obj 150 228 - 1;
#X obj 89 313 mod;
#X obj 89 379 pack f f;
#X obj 89 336 tabread Array\$1;
#X obj 81 165 t b f;
#X obj 150 252 t f f;
#X text 89 7 Fill Array;
#X obj 89 404 tabwrite Array\$1;
#X obj 81 71 r sendFillArray\$1;
#X obj 150 204 jf/count/1to \$2;
#X connect 0 0 5 0;
#X connect 1 0 3 0;
#X connect 2 0 7 0;
#X connect 3 0 2 0;
#X connect 4 0 9 0;
#X connect 4 1 1 1;
#X connect 5 0 1 0;
#X connect 5 1 2 1;
#X connect 8 0 4 0;
#X connect 9 0 0 0;
#X restore 400 268 pd fillArray;
#N canvas 0 0 759 524 randomizeAndEvolveArray 0;
#X obj 222 141 f \$4;
#X obj 222 165 - \$3;
#X obj 222 107 loadbang;
#X obj 78 129 - 1;
#X obj 78 183 t b f;
#X obj 78 105 jf/count/1to \$2;
#X text 86 23 Randomize Array;
#X obj 450 165 random \$2;
#X obj 450 188 - 1;
#X obj 450 217 t b f;
#X text 441 38 One Random Value;
#X obj 221 308 abs;
#X obj 222 226 > 0;
#X obj 222 248 pack f f;
#X obj 222 204 t f f;
#X obj 221 270 route 0 1;
#X obj 78 356 random;
#X obj 78 437 pack f f;
#X obj 78 382 + \$4;
#X text 255 226 route neg ranges;
#X obj 212 357 random;
#X obj 212 438 pack f f;
#X text 85 407 neg range;
#X text 225 407 pos range;
#X obj 212 383 + \$3;
#X obj 450 349 random;
#X obj 450 430 pack f f;
#X obj 450 375 + \$4;
#X obj 585 349 random;
#X obj 585 430 pack f f;
#X text 457 400 neg range;
#X text 598 399 pos range;
#X obj 585 375 + \$3;
#X obj 78 462 tabwrite Array\$1;
#X obj 212 463 tabwrite Array\$1;
#X obj 450 455 tabwrite Array\$1;
#X obj 585 455 tabwrite Array\$1;
#X obj 78 50 r sendRandomizeArray\$1;
#X obj 450 65 r sendEvolveArray\$1;
#X obj 519 128 r send-2\$1;
#X connect 0 0 1 0;
#X connect 1 0 14 0;
#X connect 2 0 0 0;
#X connect 3 0 4 0;
#X connect 4 0 16 0;
#X connect 4 0 20 0;
#X connect 4 1 17 1;
#X connect 4 1 21 1;
#X connect 5 0 3 0;
#X connect 7 0 8 0;
#X connect 8 0 9 0;
#X connect 9 0 25 0;
#X connect 9 0 28 0;
#X connect 9 1 26 1;
#X connect 9 1 29 1;
#X connect 11 0 16 1;
#X connect 11 0 25 1;
#X connect 12 0 13 0;
#X connect 13 0 15 0;
#X connect 14 0 12 0;
#X connect 14 1 13 1;
#X connect 15 0 11 0;
#X connect 15 1 20 1;
#X connect 15 1 28 1;
#X connect 16 0 18 0;
#X connect 17 0 33 0;
#X connect 18 0 17 0;
#X connect 20 0 24 0;
#X connect 21 0 34 0;
#X connect 24 0 21 0;
#X connect 25 0 27 0;
#X connect 26 0 35 0;
#X connect 27 0 26 0;
#X connect 28 0 32 0;
#X connect 29 0 36 0;
#X connect 32 0 29 0;
#X connect 37 0 5 0;
#X connect 38 0 7 0;
#X connect 39 0 7 1;
#X restore 400 290 pd randomizeAndEvolveArray;
#N canvas 0 0 781 449 shiftArrayLeftRight 0;
#X obj 60 364 pack f f;
#X obj 60 152 jf/count/1to \$2;
#X obj 97 303 jf/count/up 0;
#X obj 229 347 pack f f;
#X obj 229 239 f;
#X obj 266 294 f \$2;
#X obj 229 266 t f b;
#X text 122 132 2;
#X text 262 239 3;
#X obj 266 319 - 1;
#X obj 60 177 - 1;
#X obj 97 328 - 1;
#X obj 34 89 t b b b;
#X obj 60 252 t f b;
#X obj 60 203 tabread Array\$1;
#X obj 229 370 tabwrite Array\$1;
#X obj 250 156 tabread Array\$1;
#X msg 250 133 0;
#X text 283 133 1;
#X text 237 75 Shift Arrays;
#X obj 405 75 t b b b;
#X obj 620 126 f \$2;
#X obj 620 151 - 1;
#X obj 620 177 tabread Array\$1;
#X obj 599 326 pack f f;
#X obj 599 238 f;
#X obj 599 265 t f b;
#X text 632 238 3;
#X obj 599 349 tabwrite Array\$1;
#X msg 636 293 0;
#X obj 431 355 pack f f;
#X text 493 123 2;
#X obj 431 168 - 1;
#X obj 431 243 t f b;
#X obj 431 194 tabread Array\$1;
#X obj 431 143 jf/count/to1From \$2;
#X obj 468 293 jf/count/down 31;
#X obj 468 319 + 1;
#X text 660 141 1;
#X obj 189 71 bng 15 250 50 0 empty empty empty 17 7 0 10 -262144 -1
-1;
#X obj 360 42 bng 15 250 50 0 empty empty empty 17 7 0 10 -262144 -1
-1;
#X obj 60 389 tabwrite Array\$1;
#X obj 431 378 tabwrite Array\$1;
#X obj 545 243 f \$2;
#X obj 545 268 - 1;
#X obj 34 57 r sendShiftArray\$1Left;
#X obj 405 40 r sendShiftArray\$1Right;
#X connect 0 0 41 0;
#X connect 1 0 10 0;
#X connect 2 0 11 0;
#X connect 3 0 15 0;
#X connect 4 0 6 0;
#X connect 5 0 9 0;
#X connect 6 0 3 0;
#X connect 6 1 5 0;
#X connect 9 0 3 1;
#X connect 10 0 14 0;
#X connect 11 0 0 1;
#X connect 12 0 4 0;
#X connect 12 1 1 0;
#X connect 12 1 2 1;
#X connect 12 2 17 0;
#X connect 13 0 0 0;
#X connect 13 1 2 0;
#X connect 14 0 13 0;
#X connect 16 0 4 1;
#X connect 17 0 16 0;
#X connect 20 0 25 0;
#X connect 20 1 43 0;
#X connect 20 1 35 0;
#X connect 20 2 21 0;
#X connect 21 0 22 0;
#X connect 22 0 23 0;
#X connect 23 0 25 1;
#X connect 24 0 28 0;
#X connect 25 0 26 0;
#X connect 26 0 24 0;
#X connect 26 1 29 0;
#X connect 29 0 24 1;
#X connect 30 0 42 0;
#X connect 32 0 34 0;
#X connect 33 0 30 0;
#X connect 33 1 36 0;
#X connect 34 0 33 0;
#X connect 35 0 32 0;
#X connect 36 0 37 0;
#X connect 37 0 30 1;
#X connect 39 0 12 0;
#X connect 40 0 20 0;
#X connect 43 0 44 0;
#X connect 44 0 36 1;
#X connect 45 0 12 0;
#X connect 46 0 20 0;
#X restore 400 246 pd shiftArrayLeftRight;
#X obj 309 32 tgl 15 0 send-0\$1 0\$1 3 1 7 1 10 -228856 -1 -1 0 1
;
#N canvas 44 81 604 602 resolutionAndTriplet 0;
#X text 318 113 regular;
#X text 339 145 half speed;
#X text 369 174 quarter speed;
#X text 396 204 eighth speed;
#X text 353 436 triplets;
#X text 324 404 quarter notes;
#X obj 289 371 sel 0 1;
#X obj 58 18 inlet;
#X obj 103 184 mod 1;
#X msg 315 436 3;
#X obj 58 569 outlet;
#X msg 283 115 1;
#X msg 304 145 2;
#X msg 325 175 4;
#X msg 346 205 8;
#X msg 289 406 2;
#X obj 58 307 spigot;
#X obj 103 206 == 0;
#X obj 58 476 spigot;
#X obj 103 435 == 0;
#X obj 103 413 mod 2;
#X obj 58 503 / 2;
#X obj 58 543 int;
#X obj 58 353 / 1;
#X obj 58 377 t f f;
#X text 409 234 16th speed;
#X text 436 264 1.32 speed;
#X msg 365 235 16;
#X msg 386 265 32;
#X obj 283 83 sel 0 1 2 3 4 5;
#X obj 289 307 r send-0\$1;
#X obj 283 19 r send-1\$1;
#X connect 6 0 15 0;
#X connect 6 1 9 0;
#X connect 7 0 8 0;
#X connect 7 0 16 0;
#X connect 8 0 17 0;
#X connect 9 0 20 1;
#X connect 9 0 21 1;
#X connect 11 0 8 1;
#X connect 11 0 23 1;
#X connect 12 0 8 1;
#X connect 12 0 23 1;
#X connect 13 0 8 1;
#X connect 13 0 23 1;
#X connect 14 0 8 1;
#X connect 14 0 23 1;
#X connect 15 0 20 1;
#X connect 15 0 21 1;
#X connect 16 0 23 0;
#X connect 17 0 16 1;
#X connect 18 0 21 0;
#X connect 19 0 18 1;
#X connect 20 0 19 0;
#X connect 21 0 22 0;
#X connect 22 0 10 0;
#X connect 23 0 24 0;
#X connect 24 0 18 0;
#X connect 24 1 20 0;
#X connect 27 0 8 1;
#X connect 27 0 23 1;
#X connect 28 0 8 1;
#X connect 28 0 23 1;
#X connect 29 0 11 0;
#X connect 29 1 12 0;
#X connect 29 2 13 0;
#X connect 29 3 14 0;
#X connect 29 4 27 0;
#X connect 29 5 28 0;
#X connect 30 0 6 0;
#X connect 31 0 29 0;
#X restore 636 110 pd resolutionAndTriplet;
#X obj 636 226 mod;
#X obj 657 250 s currentValArray\$1;
#X obj 636 303 tabread Array\$1;
#X obj 636 452 s stepOut\$1;
#X obj 636 76 r globalMetroNumber;
#X obj 739 453 outlet;
#N canvas 532 220 450 300 allArray 0;
#X obj 94 191 pack s f;
#X obj 118 138 t b f;
#X text 55 12 Set Constant Value;
#X obj 45 67 r sendAllArray\$1;
#X obj 35 164 symbol \$1;
#X msg 35 219 \; Array\$1 const \$2 \;;
#X connect 0 0 5 0;
#X connect 1 0 4 0;
#X connect 1 1 0 1;
#X connect 3 0 1 0;
#X connect 4 0 0 0;
#X restore 400 202 pd allArray;
#X obj 22 34 vsl 15 63 75 300 0 0 send-3\$1 3\$1 empty -7 -9 1 10 -191407
-1 -1 0 1;
#X obj 326 32 hradio 15 1 0 6 send-1\$1 1\$1 empty 0 -8 1 10 -228856
-1 -1 0;
#X obj 40 51 cnv 12 12 46 sendCnv0\$1 Cnv0\$1 empty 20 12 0 14 -262081
-1 0;
#X obj 55 51 cnv 12 12 44 sendCnv1\$1 Cnv1\$1 empty 20 12 0 14 -166441
-1 0;
#X obj 70 51 cnv 12 12 42 sendCnv2\$1 Cnv2\$1 empty 20 12 0 14 -166441
-1 0;
#X obj 85 51 cnv 12 12 40 sendCnv3\$1 Cnv3\$1 empty 20 12 0 14 -166441
-1 0;
#X obj 100 51 cnv 12 12 46 sendCnv4\$1 Cnv4\$1 empty 20 12 0 14 -166441
-1 0;
#X obj 115 51 cnv 12 12 44 sendCnv5\$1 Cnv5\$1 empty 20 12 0 14 -166441
-1 0;
#X obj 130 51 cnv 12 12 42 sendCnv6\$1 Cnv6\$1 empty 20 12 0 14 -166441
-1 0;
#X obj 145 51 cnv 12 12 40 sendCnv7\$1 Cnv7\$1 empty 20 12 0 14 -166441
-1 0;
#X obj 160 51 cnv 12 12 46 sendCnv8\$1 Cnv8\$1 empty 20 12 0 14 -166441
-1 0;
#X obj 175 51 cnv 12 12 44 sendCnv9\$1 Cnv9\$1 empty 20 12 0 14 -166441
-1 0;
#X obj 190 51 cnv 12 12 42 sendCnv10\$1 Cnv10\$1 empty 20 12 0 14 -166441
-1 0;
#X obj 205 51 cnv 12 12 40 sendCnv11\$1 Cnv11\$1 empty 20 12 0 14 -166441
-1 0;
#X obj 220 51 cnv 12 12 46 sendCnv12\$1 Cnv12\$1 empty 20 12 0 14 -166441
-1 0;
#X obj 235 51 cnv 12 12 44 sendCnv13\$1 Cnv13\$1 empty 20 12 0 14 -166441
-1 0;
#X obj 250 51 cnv 12 12 42 sendCnv14\$1 Cnv14\$1 empty 20 12 0 14 -166441
-1 0;
#X obj 265 51 cnv 12 12 40 sendCnv15\$1 Cnv15\$1 empty 20 12 0 14 -166441
-1 0;
#X obj 280 51 cnv 12 12 46 sendCnv16\$1 Cnv16\$1 empty 20 12 0 14 -166441
-1 0;
#X obj 295 51 cnv 12 12 44 sendCnv17\$1 Cnv17\$1 empty 20 12 0 14 -166441
-1 0;
#X obj 310 51 cnv 12 12 42 sendCnv18\$1 Cnv18\$1 empty 20 12 0 14 -166441
-1 0;
#X obj 325 51 cnv 12 12 40 sendCnv19\$1 Cnv19\$1 empty 20 12 0 14 -166441
-1 0;
#X obj 340 51 cnv 12 12 46 sendCnv20\$1 Cnv20\$1 empty 20 12 0 14 -166441
-1 0;
#X obj 355 51 cnv 12 12 44 sendCnv21\$1 Cnv21\$1 empty 20 12 0 14 -166441
-1 0;
#X obj 370 51 cnv 12 12 42 sendCnv22\$1 Cnv22\$1 empty 20 12 0 14 -166441
-1 0;
#X obj 385 51 cnv 12 12 40 sendCnv23\$1 Cnv23\$1 empty 20 12 0 14 -166441
-1 0;
#X obj 400 51 cnv 12 12 46 sendCnv24\$1 Cnv24\$1 empty 20 12 0 14 -166441
-1 0;
#X obj 415 51 cnv 12 12 44 sendCnv25\$1 Cnv25\$1 empty 20 12 0 14 -166441
-1 0;
#X obj 430 51 cnv 12 12 42 sendCnv26\$1 Cnv26\$1 empty 20 12 0 14 -166441
-1 0;
#X obj 445 51 cnv 12 12 40 sendCnv27\$1 Cnv27\$1 empty 20 12 0 14 -166441
-1 0;
#X obj 460 51 cnv 12 12 46 sendCnv28\$1 Cnv28\$1 empty 20 12 0 14 -166441
-1 0;
#X obj 475 51 cnv 12 12 44 sendCnv29\$1 Cnv29\$1 empty 20 12 0 14 -166441
-1 0;
#X obj 490 51 cnv 12 12 42 sendCnv30\$1 Cnv30\$1 empty 20 12 0 14 -166441
-1 0;
#X obj 505 51 cnv 12 12 40 sendCnv31\$1 Cnv31\$1 empty 20 12 0 14 -166441
-1 0;
#N canvas 196 255 931 421 canvasAndPlayheadColours 0;
#X obj 46 53 int;
#X msg 46 334 \; Cnv\$2\$1 color 1 22 22;
#X obj 718 190 t b f;
#X obj 636 216 symbol \$1;
#X msg 234 334 \; Cnv\$2\$1 color 2 11 22;
#X obj 549 42 r currentValArray\$1;
#X obj 549 64 int;
#X obj 547 158 f;
#X obj 549 124 t f f b;
#X obj 499 242 pack s f;
#X obj 523 189 t b f;
#X obj 441 215 symbol \$1;
#X msg 443 271 \; Cnv\$2\$1 color 1 22 22;
#X text 578 157 float stores previous;
#X text 694 305 orange;
#X text 485 307 back to grey;
#X msg 638 271 \; Cnv\$2\$1 color \$3 22 22;
#X obj 694 243 pack s f f;
#N canvas 15 207 606 448 yellow 0;
#X obj 97 270 bang;
#X msg 77 295 0;
#X msg 104 295 1;
#X obj 146 268 bang;
#X msg 132 295 0;
#X msg 160 295 1;
#X obj 196 269 bang;
#X msg 187 295 0;
#X msg 214 295 1;
#X obj 265 313 spigot;
#X obj 312 313 spigot;
#X obj 359 313 spigot;
#X obj 249 385 outlet;
#X text 93 33 select;
#X text 267 28 red;
#X text 337 30 green;
#X text 409 30 blue;
#X obj 405 102 t b f;
#X obj 339 160 +;
#X obj 339 185 t b f;
#X obj 339 216 +;
#X obj 296 385 outlet;
#X obj 343 385 outlet;
#X obj 28 180 loadbang;
#X obj 97 135 route back front label bang;
#X obj 343 362 f;
#X obj 296 361 f;
#X obj 249 361 f;
#X obj 262 79 * -65536;
#X obj 339 80 * -256;
#X obj 405 80 * -1;
#X obj 339 247 - 1;
#X obj 235 168 t b b b b;
#X obj 262 53 f 255;
#X obj 339 55 f 255;
#X obj 405 56 f 0;
#X obj 247 9 loadbang;
#X obj 97 56 loadbang;
#X connect 0 0 1 0;
#X connect 0 0 2 0;
#X connect 1 0 10 1;
#X connect 1 0 11 1;
#X connect 2 0 9 1;
#X connect 3 0 4 0;
#X connect 3 0 5 0;
#X connect 4 0 9 1;
#X connect 4 0 11 1;
#X connect 5 0 10 1;
#X connect 6 0 7 0;
#X connect 6 0 8 0;
#X connect 7 0 9 1;
#X connect 7 0 10 1;
#X connect 8 0 11 1;
#X connect 9 0 27 1;
#X connect 10 0 26 1;
#X connect 11 0 25 1;
#X connect 17 0 18 0;
#X connect 17 1 18 1;
#X connect 18 0 19 0;
#X connect 19 0 20 0;
#X connect 19 1 20 1;
#X connect 20 0 31 0;
#X connect 23 0 2 0;
#X connect 24 0 0 0;
#X connect 24 1 3 0;
#X connect 24 2 6 0;
#X connect 24 3 32 0;
#X connect 25 0 22 0;
#X connect 26 0 21 0;
#X connect 27 0 12 0;
#X connect 28 0 20 0;
#X connect 29 0 18 0;
#X connect 30 0 17 0;
#X connect 31 0 11 0;
#X connect 31 0 10 0;
#X connect 31 0 9 0;
#X connect 32 0 27 0;
#X connect 32 1 26 0;
#X connect 32 2 25 0;
#X connect 32 3 31 0;
#X connect 33 0 28 0;
#X connect 34 0 29 0;
#X connect 35 0 30 0;
#X connect 36 0 33 0;
#X connect 36 0 34 0;
#X connect 36 0 35 0;
#X connect 37 0 24 0;
#X restore 771 189 pd yellow;
#X text 641 123 playhead colour;
#X obj 46 30 r send-2\$1;
#X obj 294 252 t b f;
#X obj 212 278 symbol \$1;
#X obj 123 220 f;
#X obj 125 186 t f f b;
#X obj 75 304 pack s f;
#X obj 99 251 t b f;
#X obj 17 277 symbol \$1;
#X text 154 219 float stores previous;
#X text 217 185 playhead colour;
#X obj 271 305 pack s f;
#X obj 46 134 sel \$2;
#X obj 125 112 moses \$2;
#X connect 0 0 31 0;
#X connect 0 0 32 0;
#X connect 2 0 3 0;
#X connect 2 1 17 1;
#X connect 3 0 17 0;
#X connect 5 0 6 0;
#X connect 6 0 8 0;
#X connect 7 0 10 0;
#X connect 8 0 7 1;
#X connect 8 1 2 0;
#X connect 8 2 7 0;
#X connect 9 0 12 0;
#X connect 10 0 11 0;
#X connect 10 1 9 1;
#X connect 11 0 9 0;
#X connect 17 0 16 0;
#X connect 18 0 17 2;
#X connect 20 0 0 0;
#X connect 21 0 22 0;
#X connect 21 1 30 1;
#X connect 22 0 30 0;
#X connect 23 0 26 0;
#X connect 24 0 23 1;
#X connect 24 1 21 0;
#X connect 24 2 23 0;
#X connect 25 0 1 0;
#X connect 26 0 27 0;
#X connect 26 1 25 1;
#X connect 27 0 25 0;
#X connect 30 0 4 0;
#X connect 31 0 23 0;
#X connect 32 0 24 0;
#X restore 24 191 pd canvasAndPlayheadColours;
#N canvas 1 2 299 373 initializeArray 0;
#X obj -3 39 symbol Array\$1;
#X obj -3 -2 loadbang;
#X text 2 17 resize graph to fit;
#X obj -3 62 pack s \$2 \$3 \$4;
#X msg -3 85 \; \$1 bounds 0 \$4 \$2 \$3 \; \$1 resize \$2 \;;
#X text 83 143 change number box bounds;
#X obj 76 197 pack s \$2 \$3 \$4;
#X obj 76 165 symbol \$1;
#X msg 76 224 \; 3\$1 1 \; 3\$1 range 0 1 \; allArray\$1 range \$3
\$4 \; Array\$1 const \$4 \; 2\$1 range 1 \$2 \; 2\$1 \$2 \;;
#X connect 0 0 3 0;
#X connect 1 0 0 0;
#X connect 1 0 7 0;
#X connect 3 0 4 0;
#X connect 6 0 8 0;
#X connect 7 0 6 0;
#X restore 24 169 pd initializeArray;
#X obj 6 -58 inlet scale;
#X obj 105 -36 jf/scale/lin 0 127 0 32;
#X obj 105 -58 inlet length;
#X obj 287 -58 inlet triplet;
#X obj 287 -36 jf/scale/lin 0 127 0 1;
#X obj 461 -36 jf/scale/lin 0 127 0 5;
#X obj 461 -58 inlet resolution;
#X obj 635 -58 inlet random;
#X obj 635 -36 t b;
#X obj 737 -36 t b;
#X obj 737 -58 inlet evolve;
#X obj 839 -36 t b;
#X obj 925 -36 t b;
#X obj 839 -58 inlet left;
#X obj 925 -58 inlet right;
#X text 10 140 3-Value From 4-Value To 5-Synth or Drums;
#N canvas 656 59 237 123 linkAllParams 0;
#X obj 7 8 j.file.linkParams \$1 0;
#X obj 7 28 j.file.linkParams \$1 1;
#X obj 7 48 j.file.linkParams \$1 2;
#X obj 7 68 j.file.linkParams \$1 3;
#X restore 23 343 pd linkAllParams;
#X obj 657 201 r send-2\$1;
#X text 160 295 3\$1=scale3 \; 2\$1=length2 \; 0\$1=triplet0 \; 1\$1=resolution1
;
#X obj 23 319 table Params\$1 4;
#N canvas 0 0 450 300 (subpatch) 0;
#X array Array\$1 1 float 2;
#X coords 0 0 1 0 480 50 1;
#X restore 39 50 graph;
#X obj 23 367 j.file.LSCPArrayPart \$1 \$5 Array;
#X text 43 271 LOAD.SAVE.COPY.PASTE;
#X obj 23 387 j.file.LSCPArrayPart \$1 \$5 Params;
#X obj 22 -7 jf/scale/lin 0 127 0 1;
#X obj 636 410 * 1;
#X obj 657 387 *;
#X obj 657 364 t f f;
#X connect 19 0 20 0;
#X connect 20 0 21 0;
#X connect 20 0 22 0;
#X connect 22 0 88 0;
#X connect 24 0 19 0;
#X connect 27 0 90 0;
#X connect 63 0 87 0;
#X connect 64 0 12 0;
#X connect 65 0 64 0;
#X connect 66 0 67 0;
#X connect 67 0 18 0;
#X connect 68 0 28 0;
#X connect 69 0 68 0;
#X connect 70 0 71 0;
#X connect 71 0 8 0;
#X connect 72 0 9 0;
#X connect 73 0 72 0;
#X connect 74 0 7 0;
#X connect 75 0 6 0;
#X connect 76 0 74 0;
#X connect 77 0 75 0;
#X connect 80 0 20 1;
#X connect 87 0 27 0;
#X connect 88 0 23 0;
#X connect 88 0 25 0;
#X connect 89 0 88 1;
#X connect 90 0 89 0;
#X connect 90 1 89 1;
#X coords 0 -1 1 1 501 72 2 20 30;
