#N canvas 86 11 1060 518 12;
#X text 9 113 1-Array Name 2-Array Size;
#X obj 96 32 cnv 15 93 15 empty empty \$1 0 7 1 10 -257985 -66577 0
;
#X obj 274 32 nbx 3 15 0 11 0 0 sendAllArray\$1 allArray\$1 all -12
7 1 10 -191407 -1 -1 3 256;
#X obj 435 32 bng 15 250 50 0 sendSineArray\$1 sineArray\$1 sin 1 7
1 9 -191407 -1 -1;
#X obj 504 32 bng 15 250 50 0 sendShiftArray\$1Right shiftArray\$1Right
>> 3 7 1 10 -162280 -1 -1;
#X obj 486 32 bng 15 250 50 0 sendShiftArray\$1Left shiftArray\$1Left
<< 1 7 1 10 -162280 -1 -1;
#X obj 452 32 bng 15 250 50 0 sendRandomizeArray\$1 RandomizeArray\$1
rnd 1 7 1 9 -162280 -1 -1;
#X obj 469 32 bng 15 250 50 0 sendEvolveArray\$1 evolveArray\$1 evo
1 8 1 8 -128992 -1 -1;
#X obj 233 32 nbx 2 15 0 127 0 0 sendFillArray\$1 fillArray\$1 fill
-12 7 1 10 -228856 -1 -1 0 256;
#X obj 39 32 cnv 15 55 15 empty empty empty 20 12 0 14 -1 -66577 0
;
#X obj 191 32 nbx 2 15 1 32 0 0 send-2\$1 2\$1 empty 0 -5 1 10 -228856
-1 -1 32 256;
#N canvas 452 420 287 289 scaleArray 0;
#X obj 84 202 pack s f;
#X obj 108 149 t b f;
#X text 23 11 Scale Values;
#X obj 145 175 + 1e-032;
#X obj 24 31 r send-3\$1;
#X obj 155 12 loadbang;
#X obj 108 78 f;
#X obj 108 103 change;
#X obj 155 36 metro 50;
#X obj 25 175 symbol \$1;
#X msg 25 230 \; Array\$1 normalize \$2 \; refreshGui\$1 bang;
#X connect 0 0 10 0;
#X connect 1 0 9 0;
#X connect 1 1 3 0;
#X connect 3 0 0 1;
#X connect 4 0 6 1;
#X connect 5 0 8 0;
#X connect 6 0 7 0;
#X connect 7 0 1 0;
#X connect 8 0 6 0;
#X connect 9 0 0 0;
#X restore 400 158 pd scaleArray;
#N canvas 623 32 324 686 sineArray 0;
#X obj 66 71 symbol Array\$1;
#X text 45 -66 Fill With Sine;
#X obj 201 35 / 2;
#X obj 48 192 jf/count/1to \$2;
#X obj 48 216 - 1;
#X obj 48 241 t f f;
#X obj 48 265 tabread Array\$1;
#X msg 66 122 \; \$1 sinesum \$2 \$3 \; \$1 resize \$2 \;;
#X obj 48 425 tabwrite Array\$1;
#X text 114 35 half range;
#X text 79 342 centre Array;
#X obj 109 96 pack s \$2 f;
#X obj 186 263 f \$3;
#X obj 224 263 f \$4;
#X obj 195 293 +;
#X obj 48 342 +;
#X obj 186 219 loadbang;
#X obj 195 315 / 2;
#X obj 186 241 t b b;
#X obj 198 -53 loadbang;
#X obj 48 -6 t b b;
#X obj 201 -13 f \$4;
#X obj 201 11 - \$3;
#X obj 48 -46 r sendSineArray\$1;
#X obj 48 379 pack f f;
#X obj 79 466 unpack f f;
#X obj 79 491 swap;
#X obj 187 466 loadbang;
#X obj 187 491 f \$2;
#X obj 187 516 - 1;
#X obj 79 526 select;
#X msg 79 577 \; refreshGui\$1 bang;
#X obj 79 551 symbol \$1;
#X connect 0 0 11 0;
#X connect 2 0 11 2;
#X connect 3 0 4 0;
#X connect 4 0 5 0;
#X connect 5 0 6 0;
#X connect 5 1 24 1;
#X connect 6 0 15 0;
#X connect 11 0 7 0;
#X connect 12 0 14 0;
#X connect 13 0 14 1;
#X connect 14 0 17 0;
#X connect 15 0 24 0;
#X connect 16 0 18 0;
#X connect 17 0 15 1;
#X connect 18 0 12 0;
#X connect 18 1 13 0;
#X connect 19 0 21 0;
#X connect 20 0 3 0;
#X connect 20 1 0 0;
#X connect 21 0 22 0;
#X connect 22 0 2 0;
#X connect 23 0 20 0;
#X connect 24 0 8 0;
#X connect 24 0 25 0;
#X connect 25 0 26 0;
#X connect 25 1 26 1;
#X connect 26 0 30 0;
#X connect 27 0 28 0;
#X connect 28 0 29 0;
#X connect 29 0 30 1;
#X connect 30 0 32 0;
#X connect 32 0 31 0;
#X restore 400 224 pd sineArray;
#N canvas 750 33 296 665 fillArray 0;
#X obj 128 187 - 1;
#X obj 67 272 mod;
#X obj 67 338 pack f f;
#X obj 67 295 tabread Array\$1;
#X obj 59 124 t b f;
#X obj 128 211 t f f;
#X text 89 7 Fill Array;
#X obj 104 388 tabwrite Array\$1;
#X obj 60 32 r sendFillArray\$1;
#X obj 128 163 jf/count/1to \$2;
#X obj 67 480 unpack f f;
#X obj 67 505 swap;
#X obj 175 480 loadbang;
#X obj 175 505 f \$2;
#X obj 175 530 - 1;
#X obj 67 540 select;
#X msg 67 591 \; refreshGui\$1 bang;
#X obj 67 565 symbol \$1;
#X obj 67 363 t a a;
#X connect 0 0 5 0;
#X connect 1 0 3 0;
#X connect 2 0 18 0;
#X connect 3 0 2 0;
#X connect 4 0 9 0;
#X connect 4 1 1 1;
#X connect 5 0 1 0;
#X connect 5 1 2 1;
#X connect 8 0 4 0;
#X connect 9 0 0 0;
#X connect 10 0 11 0;
#X connect 10 1 11 1;
#X connect 11 0 15 0;
#X connect 12 0 13 0;
#X connect 13 0 14 0;
#X connect 14 0 15 1;
#X connect 15 0 17 0;
#X connect 17 0 16 0;
#X connect 18 0 10 0;
#X connect 18 1 7 0;
#X restore 400 268 pd fillArray;
#N canvas 0 0 1050 687 randomizeAndEvolveArray 0;
#X obj 192 121 f \$4;
#X obj 192 145 - \$3;
#X obj 192 87 loadbang;
#X obj 48 109 - 1;
#X obj 48 163 t b f;
#X obj 48 85 jf/count/1to \$2;
#X text 56 3 Randomize Array;
#X obj 550 145 random \$2;
#X obj 550 168 - 1;
#X obj 550 197 t b f;
#X text 541 18 One Random Value;
#X obj 191 288 abs;
#X obj 192 206 > 0;
#X obj 192 228 pack f f;
#X obj 192 184 t f f;
#X obj 191 250 route 0 1;
#X obj 48 336 random;
#X obj 48 417 pack f f;
#X obj 48 362 + \$4;
#X text 225 206 route neg ranges;
#X obj 182 337 random;
#X obj 182 418 pack f f;
#X text 55 387 neg range;
#X text 195 387 pos range;
#X obj 182 363 + \$3;
#X obj 550 329 random;
#X obj 550 410 pack f f;
#X obj 550 355 + \$4;
#X obj 685 329 random;
#X obj 685 410 pack f f;
#X text 557 380 neg range;
#X text 698 379 pos range;
#X obj 685 355 + \$3;
#X obj 48 30 r sendRandomizeArray\$1;
#X obj 550 45 r sendEvolveArray\$1;
#X obj 941 226 jf/count/max;
#X obj 48 56 t b b;
#X obj 550 70 t b b;
#X obj 941 250 s 3\$1;
#X obj 619 108 r send-2\$1;
#X obj 85 465 tabwrite Array\$1;
#X obj 48 527 unpack f f;
#X obj 48 552 swap;
#X obj 156 527 loadbang;
#X obj 156 552 f \$2;
#X obj 156 577 - 1;
#X obj 48 587 select;
#X msg 48 638 \; refreshGui\$1 bang;
#X obj 48 612 symbol \$1;
#X obj 48 440 t a a;
#X obj 295 465 tabwrite Array\$1;
#X obj 258 527 unpack f f;
#X obj 258 552 swap;
#X obj 366 527 loadbang;
#X obj 366 552 f \$2;
#X obj 366 577 - 1;
#X obj 258 587 select;
#X msg 258 638 \; refreshGui\$1 bang;
#X obj 258 612 symbol \$1;
#X obj 258 440 t a a;
#X obj 587 465 tabwrite Array\$1;
#X msg 550 608 \; refreshGui\$1 bang;
#X obj 550 582 symbol \$1;
#X obj 807 465 tabwrite Array\$1;
#X msg 770 608 \; refreshGui\$1 bang;
#X obj 770 582 symbol \$1;
#X obj 550 440 t b a;
#X obj 770 440 t b a;
#X connect 0 0 1 0;
#X connect 1 0 14 0;
#X connect 2 0 0 0;
#X connect 3 0 4 0;
#X connect 4 0 16 0;
#X connect 4 0 20 0;
#X connect 4 1 17 1;
#X connect 4 1 21 1;
#X connect 5 0 3 0;
#X connect 7 0 8 0;
#X connect 8 0 9 0;
#X connect 9 0 25 0;
#X connect 9 0 28 0;
#X connect 9 1 26 1;
#X connect 9 1 29 1;
#X connect 11 0 16 1;
#X connect 11 0 25 1;
#X connect 12 0 13 0;
#X connect 13 0 15 0;
#X connect 14 0 12 0;
#X connect 14 1 13 1;
#X connect 15 0 11 0;
#X connect 15 1 20 1;
#X connect 15 1 28 1;
#X connect 16 0 18 0;
#X connect 17 0 49 0;
#X connect 18 0 17 0;
#X connect 20 0 24 0;
#X connect 21 0 59 0;
#X connect 24 0 21 0;
#X connect 24 0 35 0;
#X connect 25 0 27 0;
#X connect 26 0 66 0;
#X connect 27 0 26 0;
#X connect 28 0 32 0;
#X connect 29 0 67 0;
#X connect 32 0 29 0;
#X connect 33 0 36 0;
#X connect 34 0 37 0;
#X connect 35 0 38 0;
#X connect 36 0 5 0;
#X connect 36 1 35 1;
#X connect 37 0 7 0;
#X connect 39 0 7 1;
#X connect 41 0 42 0;
#X connect 41 1 42 1;
#X connect 42 0 46 0;
#X connect 43 0 44 0;
#X connect 44 0 45 0;
#X connect 45 0 46 1;
#X connect 46 0 48 0;
#X connect 48 0 47 0;
#X connect 49 0 41 0;
#X connect 49 1 40 0;
#X connect 51 0 52 0;
#X connect 51 1 52 1;
#X connect 52 0 56 0;
#X connect 53 0 54 0;
#X connect 54 0 55 0;
#X connect 55 0 56 1;
#X connect 56 0 58 0;
#X connect 58 0 57 0;
#X connect 59 0 51 0;
#X connect 59 1 50 0;
#X connect 62 0 61 0;
#X connect 65 0 64 0;
#X connect 66 0 62 0;
#X connect 66 1 60 0;
#X connect 67 0 65 0;
#X connect 67 1 63 0;
#X restore 400 290 pd randomizeAndEvolveArray;
#N canvas 0 0 799 544 shiftArrayLeftRight 0;
#X obj 50 344 pack f f;
#X obj 50 132 jf/count/1to \$2;
#X obj 87 283 jf/count/up 0;
#X obj 219 327 pack f f;
#X obj 219 219 f;
#X obj 256 274 f \$2;
#X obj 219 246 t f b;
#X text 112 112 2;
#X text 252 219 3;
#X obj 256 299 - 1;
#X obj 50 157 - 1;
#X obj 87 308 - 1;
#X obj 24 69 t b b b;
#X obj 50 232 t f b;
#X obj 50 183 tabread Array\$1;
#X obj 256 380 tabwrite Array\$1;
#X obj 240 136 tabread Array\$1;
#X msg 240 113 0;
#X text 273 113 1;
#X text 227 55 Shift Arrays;
#X obj 395 55 t b b b;
#X obj 610 106 f \$2;
#X obj 610 131 - 1;
#X obj 610 157 tabread Array\$1;
#X obj 589 306 pack f f;
#X obj 589 218 f;
#X obj 589 245 t f b;
#X text 622 218 3;
#X msg 626 273 0;
#X obj 421 335 pack f f;
#X text 483 103 2;
#X obj 421 148 - 1;
#X obj 421 223 t f b;
#X obj 421 174 tabread Array\$1;
#X obj 421 123 jf/count/to1From \$2;
#X obj 458 273 jf/count/down 31;
#X obj 458 299 + 1;
#X text 650 121 1;
#X obj 421 364 tabwrite Array\$1;
#X obj 535 223 f \$2;
#X obj 535 248 - 1;
#X obj 24 37 r sendShiftArray\$1Left;
#X obj 395 20 r sendShiftArray\$1Right;
#X msg 161 483 \; refreshGui\$1 bang;
#X obj 161 457 symbol \$1;
#X obj 50 371 tabwrite Array\$1;
#X obj 219 352 t b a;
#X obj 626 359 tabwrite Array\$1;
#X msg 531 483 \; refreshGui\$1 bang;
#X obj 531 457 symbol \$1;
#X obj 589 331 t b a;
#X connect 0 0 45 0;
#X connect 1 0 10 0;
#X connect 2 0 11 0;
#X connect 3 0 46 0;
#X connect 4 0 6 0;
#X connect 5 0 9 0;
#X connect 6 0 3 0;
#X connect 6 1 5 0;
#X connect 9 0 3 1;
#X connect 10 0 14 0;
#X connect 11 0 0 1;
#X connect 12 0 4 0;
#X connect 12 1 1 0;
#X connect 12 1 2 1;
#X connect 12 2 17 0;
#X connect 13 0 0 0;
#X connect 13 1 2 0;
#X connect 14 0 13 0;
#X connect 16 0 4 1;
#X connect 17 0 16 0;
#X connect 20 0 25 0;
#X connect 20 1 39 0;
#X connect 20 1 34 0;
#X connect 20 2 21 0;
#X connect 21 0 22 0;
#X connect 22 0 23 0;
#X connect 23 0 25 1;
#X connect 24 0 50 0;
#X connect 25 0 26 0;
#X connect 26 0 24 0;
#X connect 26 1 28 0;
#X connect 28 0 24 1;
#X connect 29 0 38 0;
#X connect 31 0 33 0;
#X connect 32 0 29 0;
#X connect 32 1 35 0;
#X connect 33 0 32 0;
#X connect 34 0 31 0;
#X connect 35 0 36 0;
#X connect 36 0 29 1;
#X connect 39 0 40 0;
#X connect 40 0 35 1;
#X connect 41 0 12 0;
#X connect 42 0 20 0;
#X connect 44 0 43 0;
#X connect 46 0 44 0;
#X connect 46 1 15 0;
#X connect 49 0 48 0;
#X connect 50 0 49 0;
#X connect 50 1 47 0;
#X restore 400 246 pd shiftArrayLeftRight;
#X obj 309 32 tgl 15 0 send-0\$1 0\$1 3 1 7 1 10 -228856 -1 -1 0 1
;
#N canvas 44 81 604 602 resolutionAndTriplet 0;
#X text 318 113 regular;
#X text 339 145 half speed;
#X text 369 174 quarter speed;
#X text 396 204 eighth speed;
#X text 353 436 triplets;
#X text 324 404 quarter notes;
#X obj 289 371 sel 0 1;
#X obj 58 18 inlet;
#X obj 103 184 mod 1;
#X msg 315 436 3;
#X obj 58 569 outlet;
#X msg 283 115 1;
#X msg 304 145 2;
#X msg 325 175 4;
#X msg 346 205 8;
#X msg 289 406 2;
#X obj 58 307 spigot;
#X obj 103 206 == 0;
#X obj 58 476 spigot;
#X obj 103 435 == 0;
#X obj 103 413 mod 2;
#X obj 58 503 / 2;
#X obj 58 543 int;
#X obj 58 353 / 1;
#X obj 58 377 t f f;
#X text 409 234 16th speed;
#X text 436 264 1.32 speed;
#X msg 365 235 16;
#X msg 386 265 32;
#X obj 283 83 sel 0 1 2 3 4 5;
#X obj 289 307 r send-0\$1;
#X obj 283 19 r send-1\$1;
#X connect 6 0 15 0;
#X connect 6 1 9 0;
#X connect 7 0 8 0;
#X connect 7 0 16 0;
#X connect 8 0 17 0;
#X connect 9 0 20 1;
#X connect 9 0 21 1;
#X connect 11 0 8 1;
#X connect 11 0 23 1;
#X connect 12 0 8 1;
#X connect 12 0 23 1;
#X connect 13 0 8 1;
#X connect 13 0 23 1;
#X connect 14 0 8 1;
#X connect 14 0 23 1;
#X connect 15 0 20 1;
#X connect 15 0 21 1;
#X connect 16 0 23 0;
#X connect 17 0 16 1;
#X connect 18 0 21 0;
#X connect 19 0 18 1;
#X connect 20 0 19 0;
#X connect 21 0 22 0;
#X connect 22 0 10 0;
#X connect 23 0 24 0;
#X connect 24 0 18 0;
#X connect 24 1 20 0;
#X connect 27 0 8 1;
#X connect 27 0 23 1;
#X connect 28 0 8 1;
#X connect 28 0 23 1;
#X connect 29 0 11 0;
#X connect 29 1 12 0;
#X connect 29 2 13 0;
#X connect 29 3 14 0;
#X connect 29 4 27 0;
#X connect 29 5 28 0;
#X connect 30 0 6 0;
#X connect 31 0 29 0;
#X restore 636 110 pd resolutionAndTriplet;
#X obj 636 226 mod;
#X obj 657 250 s currentValArray\$1;
#X obj 636 333 tabread Array\$1;
#X obj 636 362 s stepOut\$1;
#X obj 636 76 r globalMetroNumber;
#X obj 739 363 outlet;
#N canvas 532 220 253 300 allArray 0;
#X obj 94 191 pack s f;
#X obj 118 138 t b f;
#X text 55 12 Set Constant Value;
#X obj 45 67 r sendAllArray\$1;
#X obj 35 164 symbol \$1;
#X msg 35 219 \; 3\$1 \$2 \; Array\$1 const \$2 \; refreshGui\$1 bang
;
#X connect 0 0 5 0;
#X connect 1 0 4 0;
#X connect 1 1 0 1;
#X connect 3 0 1 0;
#X connect 4 0 0 0;
#X restore 400 202 pd allArray;
#X obj 22 34 vsl 15 63 0 11 0 0 sed-3\$1 3\$1 empty -7 -9 1 10 -191407
-1 -1 1691 1;
#X obj 326 32 hradio 15 1 0 6 send-1\$1 1\$1 empty 0 -8 1 10 -228856
-1 -1 0;
#N canvas 196 255 931 421 canvasAndPlayheadColours 0;
#X obj 46 53 int;
#X msg 46 334 \; Cnv\$2\$1 color 1 22 22;
#X obj 718 190 t b f;
#X obj 636 216 symbol \$1;
#X msg 234 334 \; Cnv\$2\$1 color 2 11 22;
#X obj 549 42 r currentValArray\$1;
#X obj 549 64 int;
#X obj 547 158 f;
#X obj 549 124 t f f b;
#X obj 499 242 pack s f;
#X obj 523 189 t b f;
#X obj 441 215 symbol \$1;
#X msg 443 271 \; Cnv\$2\$1 color 1 22 22;
#X text 578 157 float stores previous;
#X text 694 305 orange;
#X text 485 307 back to grey;
#X msg 638 271 \; Cnv\$2\$1 color \$3 22 22;
#X obj 694 243 pack s f f;
#N canvas 15 207 606 448 yellow 0;
#X obj 97 270 bang;
#X msg 77 295 0;
#X msg 104 295 1;
#X obj 146 268 bang;
#X msg 132 295 0;
#X msg 160 295 1;
#X obj 196 269 bang;
#X msg 187 295 0;
#X msg 214 295 1;
#X obj 265 313 spigot;
#X obj 312 313 spigot;
#X obj 359 313 spigot;
#X obj 249 385 outlet;
#X text 93 33 select;
#X text 267 28 red;
#X text 337 30 green;
#X text 409 30 blue;
#X obj 405 102 t b f;
#X obj 339 160 +;
#X obj 339 185 t b f;
#X obj 339 216 +;
#X obj 296 385 outlet;
#X obj 343 385 outlet;
#X obj 28 180 loadbang;
#X obj 97 135 route back front label bang;
#X obj 343 362 f;
#X obj 296 361 f;
#X obj 249 361 f;
#X obj 262 79 * -65536;
#X obj 339 80 * -256;
#X obj 405 80 * -1;
#X obj 339 247 - 1;
#X obj 235 168 t b b b b;
#X obj 262 53 f 255;
#X obj 339 55 f 255;
#X obj 405 56 f 0;
#X obj 247 9 loadbang;
#X obj 97 56 loadbang;
#X connect 0 0 1 0;
#X connect 0 0 2 0;
#X connect 1 0 10 1;
#X connect 1 0 11 1;
#X connect 2 0 9 1;
#X connect 3 0 4 0;
#X connect 3 0 5 0;
#X connect 4 0 9 1;
#X connect 4 0 11 1;
#X connect 5 0 10 1;
#X connect 6 0 7 0;
#X connect 6 0 8 0;
#X connect 7 0 9 1;
#X connect 7 0 10 1;
#X connect 8 0 11 1;
#X connect 9 0 27 1;
#X connect 10 0 26 1;
#X connect 11 0 25 1;
#X connect 17 0 18 0;
#X connect 17 1 18 1;
#X connect 18 0 19 0;
#X connect 19 0 20 0;
#X connect 19 1 20 1;
#X connect 20 0 31 0;
#X connect 23 0 2 0;
#X connect 24 0 0 0;
#X connect 24 1 3 0;
#X connect 24 2 6 0;
#X connect 24 3 32 0;
#X connect 25 0 22 0;
#X connect 26 0 21 0;
#X connect 27 0 12 0;
#X connect 28 0 20 0;
#X connect 29 0 18 0;
#X connect 30 0 17 0;
#X connect 31 0 11 0;
#X connect 31 0 10 0;
#X connect 31 0 9 0;
#X connect 32 0 27 0;
#X connect 32 1 26 0;
#X connect 32 2 25 0;
#X connect 32 3 31 0;
#X connect 33 0 28 0;
#X connect 34 0 29 0;
#X connect 35 0 30 0;
#X connect 36 0 33 0;
#X connect 36 0 34 0;
#X connect 36 0 35 0;
#X connect 37 0 24 0;
#X restore 771 189 pd yellow;
#X text 641 123 playhead colour;
#X obj 46 30 r send-2\$1;
#X obj 294 252 t b f;
#X obj 212 278 symbol \$1;
#X obj 123 220 f;
#X obj 125 186 t f f b;
#X obj 75 304 pack s f;
#X obj 99 251 t b f;
#X obj 17 277 symbol \$1;
#X text 154 219 float stores previous;
#X text 217 185 playhead colour;
#X obj 271 305 pack s f;
#X obj 46 134 sel \$2;
#X obj 125 112 moses \$2;
#X connect 0 0 31 0;
#X connect 0 0 32 0;
#X connect 2 0 3 0;
#X connect 2 1 17 1;
#X connect 3 0 17 0;
#X connect 5 0 6 0;
#X connect 6 0 8 0;
#X connect 7 0 10 0;
#X connect 8 0 7 1;
#X connect 8 1 2 0;
#X connect 8 2 7 0;
#X connect 9 0 12 0;
#X connect 10 0 11 0;
#X connect 10 1 9 1;
#X connect 11 0 9 0;
#X connect 17 0 16 0;
#X connect 18 0 17 2;
#X connect 20 0 0 0;
#X connect 21 0 22 0;
#X connect 21 1 30 1;
#X connect 22 0 30 0;
#X connect 23 0 26 0;
#X connect 24 0 23 1;
#X connect 24 1 21 0;
#X connect 24 2 23 0;
#X connect 25 0 1 0;
#X connect 26 0 27 0;
#X connect 26 1 25 1;
#X connect 27 0 25 0;
#X connect 30 0 4 0;
#X connect 31 0 23 0;
#X connect 32 0 24 0;
#X restore 24 191 pd canvasAndPlayheadColours;
#N canvas 238 325 346 373 initializeArray 0;
#X obj -3 39 symbol Array\$1;
#X obj -3 -2 loadbang;
#X text 2 17 resize graph to fit;
#X obj -3 62 pack s \$2 \$3 \$4;
#X msg -3 85 \; \$1 bounds 0 \$4 \$2 \$3 \; \$1 resize \$2 \;;
#X text 13 143 change number box bounds;
#X obj 6 197 pack s \$2 \$3 \$4;
#X obj 6 165 symbol \$1;
#X msg 6 224 \; 3\$1 range \$3 \$4 \; 3\$1 \$3 \; allArray\$1 range
\$3 \$4 \; Array\$1 const \$4 \; 2\$1 range 1 \$2 \; 2\$1 \$2 \;;
#X connect 0 0 3 0;
#X connect 1 0 0 0;
#X connect 1 0 7 0;
#X connect 3 0 4 0;
#X connect 6 0 8 0;
#X connect 7 0 6 0;
#X restore 24 169 pd initializeArray;
#X obj 6 -58 inlet scale;
#X obj 105 -36 jf/scale/lin 0 127 0 32;
#X obj 105 -58 inlet length;
#X obj 287 -58 inlet triplet;
#X obj 287 -36 jf/scale/lin 0 127 0 1;
#X obj 461 -36 jf/scale/lin 0 127 0 5;
#X obj 461 -58 inlet resolution;
#X obj 635 -58 inlet random;
#X obj 635 -36 t b;
#X obj 737 -36 t b;
#X obj 737 -58 inlet evolve;
#X obj 839 -36 t b;
#X obj 925 -36 t b;
#X obj 839 -58 inlet left;
#X obj 925 -58 inlet right;
#X obj 22 -7 jf/scale/lin 0 127 \$3 \$4;
#X text 10 140 3-Value From 4-Value To 5-Synth or Drums;
#X obj 657 201 r send-2\$1;
#X obj 69 49 nbx 3 12 0 11 0 0 sendCnv3\$1 Cnv3\$1 empty -12 7 1 10
-166441 -1 -1 3 256;
#X obj 59 62 nbx 3 12 0 11 0 0 sendCnv2\$1 Cnv2\$1 empty -12 7 1 10
-166441 -1 -1 3 256;
#X obj 49 75 nbx 3 12 0 11 0 0 sendCnv1\$1 Cnv1\$1 empty -12 7 1 10
-166441 -1 -1 3 256;
#X obj 39 88 nbx 3 12 0 11 0 0 sendCnv0\$1 Cnv0\$1 empty -12 7 1 10
-166441 -1 -1 3 256;
#X obj 129 49 nbx 3 12 0 11 0 0 sendCnv7\$1 Cnv7\$1 empty -12 7 1 10
-166441 -1 -1 3 256;
#X obj 119 62 nbx 3 12 0 11 0 0 sendCnv6\$1 Cnv6\$1 empty -12 7 1 10
-166441 -1 -1 3 256;
#X obj 109 75 nbx 3 12 0 11 0 0 sendCnv5\$1 Cnv5\$1 empty -12 7 1 10
-166441 -1 -1 3 256;
#X obj 99 88 nbx 3 12 0 11 0 0 sendCnv4\$1 Cnv4\$1 empty -12 7 1 10
-166441 -1 -1 3 256;
#X obj 189 49 nbx 3 12 0 11 0 0 sendCnv11\$1 Cnv11\$1 empty -12 7 1
10 -166441 -1 -1 3 256;
#X obj 179 62 nbx 3 12 0 11 0 0 sendCnv10\$1 Cnv10\$1 empty -12 7 1
10 -166441 -1 -1 3 256;
#X obj 169 75 nbx 3 12 0 11 0 0 sendCnv9\$1 Cnv9\$1 empty -12 7 1 10
-166441 -1 -1 3 256;
#X obj 159 88 nbx 3 12 0 11 0 0 sendCnv8\$1 Cnv8\$1 empty -12 7 1 10
-262081 -1 -1 3 256;
#X obj 249 49 nbx 3 12 0 11 0 0 sendCnv15\$1 Cnv15\$1 empty -12 7 1
10 -166441 -1 -1 3 256;
#X obj 239 62 nbx 3 12 0 11 0 0 sendCnv14\$1 Cnv14\$1 empty -12 7 1
10 -166441 -1 -1 3 256;
#X obj 229 75 nbx 3 12 0 11 0 0 sendCnv13\$1 Cnv13\$1 empty -12 7 1
10 -166441 -1 -1 3 256;
#X obj 219 88 nbx 3 12 0 11 0 0 sendCnv12\$1 Cnv12\$1 empty -12 7 1
10 -166441 -1 -1 3 256;
#X obj 307 49 nbx 3 12 0 11 0 0 sendCnv19\$1 Cnv19\$1 empty -12 7 1
10 -166441 -1 -1 3 256;
#X obj 297 62 nbx 3 12 0 11 0 0 sendCnv18\$1 Cnv18\$1 empty -12 7 1
10 -166441 -1 -1 3 256;
#X obj 287 75 nbx 3 12 0 11 0 0 sendCnv17\$1 Cnv17\$1 empty -12 7 1
10 -166441 -1 -1 3 256;
#X obj 277 88 nbx 3 12 0 11 0 0 sendCnv16\$1 Cnv16\$1 empty -12 7 1
10 -166441 -1 -1 3 256;
#X obj 367 49 nbx 3 12 0 11 0 0 sendCnv23\$1 Cnv23\$1 empty -12 7 1
10 -166441 -1 -1 3 256;
#X obj 357 62 nbx 3 12 0 11 0 0 sendCnv22\$1 Cnv22\$1 empty -12 7 1
10 -166441 -1 -1 3 256;
#X obj 347 75 nbx 3 12 0 11 0 0 sendCnv21\$1 Cnv21\$1 empty -12 7 1
10 -166441 -1 -1 3 256;
#X obj 337 88 nbx 3 12 0 11 0 0 sendCnv20\$1 Cnv20\$1 empty -12 7 1
10 -166441 -1 -1 3 256;
#X obj 427 49 nbx 3 12 0 11 0 0 sendCnv27\$1 Cnv27\$1 empty -12 7 1
10 -166441 -1 -1 3 256;
#X obj 417 62 nbx 3 12 0 11 0 0 sendCnv26\$1 Cnv26\$1 empty -12 7 1
10 -166441 -1 -1 3 256;
#X obj 407 75 nbx 3 12 0 11 0 0 sendCnv25\$1 Cnv25\$1 empty -12 7 1
10 -166441 -1 -1 3 256;
#X obj 397 88 nbx 3 12 0 11 0 0 sendCnv24\$1 Cnv24\$1 empty -12 7 1
10 -166441 -1 -1 3 256;
#X obj 487 49 nbx 3 12 0 11 0 0 sendCnv31\$1 Cnv31\$1 empty -12 7 1
10 -166441 -1 -1 3 256;
#X obj 477 62 nbx 3 12 0 11 0 0 sendCnv30\$1 Cnv30\$1 empty -12 7 1
10 -166441 -1 -1 3 256;
#X obj 467 75 nbx 3 12 0 11 0 0 sendCnv29\$1 Cnv29\$1 empty -12 7 1
10 -166441 -1 -1 3 256;
#X obj 457 88 nbx 3 12 0 11 0 0 sendCnv28\$1 Cnv28\$1 empty -12 7 1
10 -166441 -1 -1 3 256;
#X text 415 133 FUNCTIONS;
#N canvas 14 284 717 386 (subpatch) 0;
#X array Array\$1 32 float 2;
#X coords 0 11 32 0 480 50 1;
#X restore 530 141 graph;
#N canvas 149 470 1054 199 linkAndInitialiseAllNumberBoxes 0;
#X obj 11 10 j.array.linkNumbers \$1 3 \$3 \$4;
#X obj 271 10 j.array.linkNumbers \$1 7 \$3 \$4;
#X obj 531 10 j.array.linkNumbers \$1 11 \$3 \$4;
#X obj 791 10 j.array.linkNumbers \$1 15 \$3 \$4;
#X obj 11 30 j.array.linkNumbers \$1 2 \$3 \$4;
#X obj 11 50 j.array.linkNumbers \$1 1 \$3 \$4;
#X obj 11 70 j.array.linkNumbers \$1 0 \$3 \$4;
#X obj 11 100 j.array.linkNumbers \$1 19 \$3 \$4;
#X obj 11 120 j.array.linkNumbers \$1 18 \$3 \$4;
#X obj 11 140 j.array.linkNumbers \$1 17 \$3 \$4;
#X obj 271 30 j.array.linkNumbers \$1 6 \$3 \$4;
#X obj 271 50 j.array.linkNumbers \$1 5 \$3 \$4;
#X obj 271 70 j.array.linkNumbers \$1 4 \$3 \$4;
#X obj 271 100 j.array.linkNumbers \$1 23 \$3 \$4;
#X obj 271 120 j.array.linkNumbers \$1 22 \$3 \$4;
#X obj 271 140 j.array.linkNumbers \$1 21 \$3 \$4;
#X obj 271 160 j.array.linkNumbers \$1 20 \$3 \$4;
#X obj 531 30 j.array.linkNumbers \$1 10 \$3 \$4;
#X obj 531 50 j.array.linkNumbers \$1 9 \$3 \$4;
#X obj 531 70 j.array.linkNumbers \$1 8 \$3 \$4;
#X obj 531 100 j.array.linkNumbers \$1 27 \$3 \$4;
#X obj 531 120 j.array.linkNumbers \$1 26 \$3 \$4;
#X obj 531 140 j.array.linkNumbers \$1 25 \$3 \$4;
#X obj 531 160 j.array.linkNumbers \$1 24 \$3 \$4;
#X obj 791 160 j.array.linkNumbers \$1 28 \$3 \$4;
#X obj 791 140 j.array.linkNumbers \$1 29 \$3 \$4;
#X obj 791 120 j.array.linkNumbers \$1 30 \$3 \$4;
#X obj 791 100 j.array.linkNumbers \$1 31 \$3 \$4;
#X obj 791 70 j.array.linkNumbers \$1 12 \$3 \$4;
#X obj 791 50 j.array.linkNumbers \$1 13 \$3 \$4;
#X obj 791 30 j.array.linkNumbers \$1 14 \$3 \$4;
#X obj 11 160 j.array.linkNumbers \$1 16 \$3 \$4;
#X restore 23 415 pd linkAndInitialiseAllNumberBoxes;
#N canvas 656 59 237 123 linkAllParams 0;
#X obj 7 8 j.file.linkParams \$1 0;
#X obj 7 28 j.file.linkParams \$1 1;
#X obj 7 48 j.file.linkParams \$1 2;
#X obj 7 68 j.file.linkParams \$1 3;
#X restore 23 343 pd linkAllParams;
#X text 160 295 3\$1=scale3 \; 2\$1=length2 \; 0\$1=triplet0 \; 1\$1=resolution1
;
#X obj 23 319 table Params\$1 4;
#X obj 23 367 j.file.LSCPArrayPart \$1 \$5 Array;
#X obj 23 387 j.file.LSCPArrayPart \$1 \$5 Params;
#X text 43 271 LOAD.SAVE.COPY.PASTE;
#X connect 17 0 18 0;
#X connect 18 0 19 0;
#X connect 18 0 20 0;
#X connect 20 0 21 0;
#X connect 20 0 23 0;
#X connect 22 0 17 0;
#X connect 29 0 44 0;
#X connect 30 0 10 0;
#X connect 31 0 30 0;
#X connect 32 0 33 0;
#X connect 33 0 16 0;
#X connect 34 0 26 0;
#X connect 35 0 34 0;
#X connect 36 0 37 0;
#X connect 37 0 6 0;
#X connect 38 0 7 0;
#X connect 39 0 38 0;
#X connect 40 0 5 0;
#X connect 41 0 4 0;
#X connect 42 0 40 0;
#X connect 43 0 41 0;
#X connect 44 0 25 0;
#X connect 46 0 18 1;
#X coords 0 -1 1 1 501 72 2 20 30;
